<svg width="800" height="1080" viewBox="0 0 800 1080" fill="none" xmlns="http://www.w3.org/2000/svg">
    <style>
        .outlines {
            fill: #232526;
        }

        .main_filling {
            fill: #f9fafb;
        }

        @media (prefers-color-scheme: dark) {
            .outlines {
                fill: #ff8000;
            }

        .main_filling {
            fill: #f9fafb;
            }
        }
    </style>
    <path fill-rule="evenodd" clip-rule="evenodd" d="M381.132 452.411C398.515 439.169 442.158 433.214 460.712 445.965C479.037 458.769 481.035 479.475 489.574 498.524C497.632 494.723 510.937 500.166 513.273 507.645C516.17 511.172 516.3 521.083 518.298 525.825C605.229 539.668 618.427 607.468 628.89 684.44C642.732 762.548 674.156 840.484 660.514 920.858C662.291 923.431 663.693 925.932 664.989 928.902C668.094 934.187 664.094 941.668 657.832 941.379C649.725 940.667 641.699 939.694 633.555 939.391C610.978 938.606 588.38 938.7 565.794 938.987L562.714 939.027C448.888 940.445 335.068 943.238 221.237 943.979C217.108 943.985 215.086 940.28 215.637 936.625C216.748 929.266 217.778 921.904 218.853 914.542C191.929 921.656 163.307 923.446 136.459 915.29C134.581 913.376 140.835 914.414 141.827 914.123C117.119 897.233 124.498 861.65 126.687 836.022C140.296 748.205 145.094 651.042 197.678 576.106C220.427 545.525 253.778 521.313 292.101 515.865L293.165 515.72C304.37 514.225 316.859 513.743 326.656 507.645C337.675 498.845 342.371 482.585 353.964 482.432C357.792 482.382 362.999 487.227 368.603 490.516C369.021 483.28 372.919 477.174 373.78 471.564L373.849 471.084C374.747 464.543 373.517 458.659 381.132 452.411ZM567.954 686.76C543.524 669.782  684.26C471.002 684.485 469.305 684.719  802.586C513.617 809.318 544.17 802.332 554.358 787.175C559.792 779.09 566.088 758.697 569.328 752.371L570.046 742.336C571.817 717.392 573.392 690.54 567.954 686.76Z" class="main_filling"/>
    <path fill-rule="evenodd" clip-rule="evenodd" d="M349.707 480.962C351.394 479.467 353.89 481.345 352.818 483.363C350.409 487.899 347.939 492.198 344.707 496.208C342.747 498.639 340.647 500.938 338.52 503.212C343.98 507.938 348.662 513.804 353.084 519.302C358.738 526.333 364.084 533.663 370.431 540.097C376.691 546.443 383.612 550.879 391.981 553.837L393.671 554.424C402.079 557.377 411.064 561.364 415.803 569.327C416.738 570.897 414.856 572.838 413.274 571.858C405.04 566.757 395.364 565.731 386.401 562.361C377.742 559.105 370.195 554.095 363.526 547.7C356.868 541.316 351.278 534.053 345.447 526.943C339.68 519.913 333.472 513.908 326.652 507.96C316.127 515.043 304.113 518.126 291.896 521.153L290.563 521.483C278.332 524.512 266.166 528.031 254.692 533.306C244.575 537.956 234.624 543.51 226.383 551.078C217.635 559.109 210.827 569.367 204.595 579.398C190.656 601.841 180.856 626.428 172.228 651.313C163.255 677.198 155.749 703.601 149.69 730.318C146.609 743.908 144.106 757.594 142.049 771.377C141.059 778.014 140.179 784.666 139.407 791.333C138.582 798.452 138.392 805.776 136.209 812.621C135.273 815.554 133.064 816.772 130.852 816.668L130.402 822.289C129.807 829.784 129.251 837.28 129.064 844.821C128.752 857.36 128.893 869.863 129.795 882.375L129.923 884.081C130.631 893.213 132.214 903.473 139.078 910.16C146.187 917.085 157.119 919.263 166.699 919.387C189.014 919.678 210.495 909.13 230.241 899.877C250.578 890.347 270.359 879.769 289.666 868.297C299.498 862.454 309.224 856.418 318.826 850.205C323.538 847.155 328.217 844.054 332.861 840.902C335.521 839.097 338.041 837.118 340.749 835.517C339.422 834.281 338.83 832.338 339.941 830.642C332.114 823.845 328.856 811.716 328.475 801.901C328.167 793.979 329.333 786.079 330.252 778.232C330.716 774.275 331.29 770.325 331.885 766.385C332.12 764.829 332.299 763.164 332.574 761.521C311.438 773.141 289.71 783.488 267.407 792.681C255.974 797.394 244.395 801.631 232.657 805.513L230.277 806.296C219.155 809.938 207.766 813.379 196.268 815.461C195.653 815.573 195.154 814.665 195.81 814.375C207.016 809.429 218.609 805.257 229.983 800.701L231.852 799.94V799.94C231.638 799.928 231.415 799.898 231.183 799.843C224.512 798.232 217.894 795.75 211.352 793.661C205.28 791.721 198.458 790.503 192.783 787.575C192.346 787.35 192.59 786.742 193.016 786.714C199.395 786.271 206.319 788.131 212.573 789.225L214.923 789.637C218.859 790.331 222.882 791.077 226.799 792.051C226.94 790.738 227.673 789.42 228.716 788.647C240.193 780.145 239.028 762.972 240.255 750.308L241.165 740.907C242.766 724.453 244.46 708.001 247.033 691.671C247.171 690.799 248.519 691.049 248.525 691.872C248.658 712.116 247.13 732.266 246.364 752.478L246.246 755.794C245.822 768.265 245.491 781.216 237.639 790.812C238.737 790.171 240.221 790.171 241.111 791.229C242.204 792.53 242.835 793.991 242.815 795.425C249.91 792.449 256.974 789.396 264.004 786.28C286.604 776.264 308.731 765.054 330.273 752.926C332.591 751.62 334.795 752.646 335.941 754.367L336.107 754.343C336.134 754.34 336.162 754.337 336.191 754.336L336.355 754.329C336.361 754.329 336.368 754.33 336.373 754.33C339.406 752.663 343.537 753.85 346.139 756.281C346.216 756.354 346.281 756.433 346.349 756.511C349.644 755.031 352.72 753.034 355.511 750.503C361.224 745.323 366.063 738.919 370.281 732.497C378.05 720.668 384.648 707.514 395.142 697.777C403.668 689.866 414.238 684.941 425.328 681.849C425.281 681.525 425.405 681.18 425.629 680.95C426.199 680.366 426.605 680.164 427.341 680.518C427.399 680.547 427.435 680.587 427.459 680.629L428.541 678.779C429.131 677.776 429.738 676.765 429.948 676.499C431.207 674.913 432.503 673.34 433.819 671.799C436.049 669.19 438.59 666.616 441.533 664.807C447.977 660.847 454.751 663.088 461.376 665.252C465.378 666.56 469.368 667.911 473.364 669.239L473.776 669.373C476.755 670.331 480.242 671.169 481.574 674.327C482.102 675.576 482.183 676.873 481.938 678.132C510.236 670.932 541.667 674.24 569.282 682.691C570.342 683.015 571.4 683.887 571.623 685.033C574.788 701.265 576.197 717.912 574.765 734.421C573.53 748.672 570.373 762.637 564.426 775.684L564.087 776.42C558.498 788.511 549.638 803.416 536.108 807.206C527.938 809.494 518.902 808.145 510.57 807.726C502.472 807.318 494.195 807.259 486.173 805.985C479.03 804.851 472.771 801.648 468.356 795.837C464.547 790.824 462.542 784.765 460.899 778.738C460.147 778.977 459.4 779.232 458.664 779.52C455.561 780.732 452.931 782.689 450.554 784.992C445.533 789.856 441.639 795.764 436.386 800.405C431.631 804.606 426.213 807.874 420.401 810.386C408.358 815.592 395.438 817.672 382.699 820.431L381.811 820.625C372.221 822.73 362.432 825.315 353.967 830.309C353.802 831.78 353.132 833.163 352.059 834.069C353.552 835.472 354.184 837.693 352.872 839.777C349.207 845.595 342.895 848.906 337.228 852.626L336.859 852.87C331.285 856.567 325.661 860.191 319.992 863.741C308.468 870.959 296.702 877.78 284.771 884.301C265.58 894.789 245.977 904.682 226.019 913.656C227.217 919.552 226.779 925.631 227.68 931.566L227.818 932.413C228.202 934.615 227.683 936.458 226.166 937.897L226.006 938.045L226.009 938.025L225.866 938.155L225.819 938.195L225.835 938.183C225.66 938.343 225.48 938.492 225.296 938.62L225.061 938.77V938.77C223.601 939.658 221.72 939.648 220.225 938.864L220.054 938.77L219.766 938.605C217.79 937.468 216.428 934.651 217.247 932.413C219.262 926.912 220.023 921.041 221.884 915.504L220.408 916.164V916.164L218.462 917.012C197.422 926.114 174.05 933.779 151.124 927.574C140.995 924.832 131.527 919.031 126.459 909.576C121.471 900.272 120.766 889.469 120.502 879.12C120.175 866.347 120.859 853.378 122.543 840.715C123.673 832.214 125.04 823.553 127.149 815.141C126.064 814.183 125.267 812.81 125.057 811.11C124.061 803.075 125.803 794.722 126.869 786.728C127.911 778.924 129.061 771.135 130.363 763.37C132.99 747.688 136.043 732.04 139.597 716.542C145.923 688.961 154.276 661.869 164.332 635.425L165.213 633.121C174.505 608.951 185.265 585.295 200.247 564.062C207.414 553.903 214.99 544.692 225.116 537.372C234.604 530.513 245.305 525.574 256.349 521.799C267.404 518.022 278.768 515.491 290.332 513.916C302.076 512.317 314.473 511.336 325.428 506.517C324.042 504.032 325.232 500.676 327.564 499.135C335.414 493.947 342.672 487.198 349.707 480.962ZM600.979 706.558C601.308 706.058 602.089 706.374 601.944 706.965C598.127 722.611 594.543 738.289 592.203 754.234C587.978 783.013 588.756 812.167 589.101 841.159L589.118 842.658C589.296 858.274 589.542 873.892 590.058 889.501C590.319 897.39 590.835 905.357 590.554 913.25C590.401 917.532 589.261 921.582 588.856 925.813C588.502 929.512 588.818 933.268 588.994 936.973C589.113 939.435 585.479 939.331 585.232 936.973L584.916 933.923C584.505 930.063 583.998 926.227 582.733 922.532C581.213 918.089 580.483 913.725 579.956 909.06C579.148 901.911 578.788 894.691 578.477 887.492L578.263 882.513C576.961 852.427 577.007 822.201 579.115 792.147L579.269 790.001C581.356 761.593 584.978 730.898 600.979 706.558ZM519.602 527.511C518.605 527.101 518.954 525.593 520.059 525.856L522.067 526.335C536.781 529.861 551.229 533.681 564.963 540.241C578.706 546.806 590.341 556.606 599.586 568.658C617.558 592.083 625.026 620.552 630.922 648.994C637.474 680.598 643.44 712.319 650.049 743.913L651.276 749.799C657.391 779.225 663.165 808.669 667.42 838.444L667.725 840.604C672.016 871.222 674.596 902.901 669.915 933.6C668.989 939.673 658.886 938.161 659.281 932.16C660.422 914.813 661.239 897.557 660.449 880.172C659.659 862.782 658.029 845.469 655.599 828.232C653.554 813.726 650.505 799.401 647.807 785.011L647.384 782.738C645.125 770.498 642.796 758.27 640.472 746.042L636.999 727.734C631.794 700.319 626.487 672.881 620.491 645.639L620.135 644.036C614.267 617.827 605.616 590.373 588.013 569.561C570.151 548.439 544.58 537.802 519.602 527.511ZM454.696 805.506C455.125 804.548 456.628 804.653 457.09 805.506C458.9 808.847 459.101 813.111 459.444 816.883L459.48 817.271C459.915 821.874 460.3 826.492 460.536 831.109C460.983 839.873 461.197 848.625 461.17 857.399C461.142 866.391 460.961 875.373 460.476 884.352L460.345 886.758C459.902 894.561 459.16 903.264 455.454 910.085C454.107 912.566 450.443 911.837 449.663 909.329C447.106 901.117 448.419 891.381 449.075 882.97L449.584 876.408C450.088 869.845 450.569 863.279 450.95 856.708C451.473 847.718 451.904 838.72 452.318 829.726C452.453 826.804 452.599 823.882 452.753 820.961L452.989 816.58C453.192 812.915 453.175 808.894 454.696 805.506ZM167.268 817.144L168.399 816.05C171.873 812.649 176.263 807.411 181.399 807.736C183.447 807.866 184.752 809.566 184.327 811.582C183.42 815.891 179.026 818.127 175.864 820.757C172.399 823.638 169.133 826.717 165.874 829.826C162.983 832.583 160.202 835.418 157.488 838.342L156.474 839.442C155.501 840.504 148.573 846.772 149.322 848.399L149.363 848.472C149.572 848.783 149.224 849.211 148.879 849.102C145.887 848.157 146.074 845.592 147.205 842.993C149.378 837.999 153.184 833.38 156.507 829.115C159.821 824.861 163.408 820.9 167.268 817.144V817.144ZM465.536 691.917C463.223 686.447 454.701 686.562 449.863 686.889C437.68 687.712 424.498 690.796 413.658 696.492C402.419 702.398 394.849 711.861 388.076 722.325L387.759 722.816C381.157 733.083 374.798 745.236 364.46 752.295C359.195 755.892 353.046 759.175 346.657 760.598C346.219 761.369 345.508 761.98 344.576 762.202L344.143 762.301C342.324 762.703 339.497 763.148 337.055 762.882C337.071 764.077 337.059 765.262 337.089 766.394C337.175 769.639 337.211 772.897 337.211 776.143C337.213 782.945 336.847 789.761 337.131 796.562C337.383 802.577 338.232 808.863 341.119 814.241C343.237 818.186 346.032 820.797 349.406 823.289C357.706 818.229 367.091 815.144 376.616 812.825C388.136 810.021 399.931 808.149 411.189 804.346C416.607 802.515 421.816 800.119 426.536 796.865C431.545 793.409 435.371 788.734 439.308 784.161L439.923 783.451C443.941 778.841 448.324 774.431 454.002 771.932C458.892 769.779 465.336 769.395 469.611 766.065C471.847 764.322 472.034 761.793 472.269 759.203C469.531 759.594 466.633 758.967 463.904 758.647L462.49 758.481C459.909 758.174 457.388 757.837 454.848 757.18C454.376 757.058 454.376 756.347 454.848 756.225C457.85 755.449 460.826 755.119 463.904 754.758L464.627 754.668C467.411 754.303 470.338 753.751 473.07 754.364C473.56 752.499 474.268 750.718 475.261 748.934C476.654 746.428 479.292 743.587 479.648 740.66C479.754 739.785 479.551 738.755 479.139 737.982L478.997 737.718C478.824 737.407 478.619 737.094 478.318 736.9C478.285 736.939 478.215 736.984 478.062 737.031C475.96 737.694 474.126 736.664 473.153 735.078C469.021 735.591 464.512 735.418 460.638 735.589L456.72 735.779C452.534 735.971 448.158 736.055 444.224 735.209C443.675 735.091 443.509 734.177 444.059 733.941C448.895 731.872 454.761 731.212 459.938 730.418C462.83 729.973 465.742 729.635 468.642 729.244C470.573 728.983 472.623 728.553 474.623 728.449C479.64 722.202 476.937 712.348 469.956 709.658C467.413 710.776 465.126 710.126 462.348 709.887C459.575 709.649 456.795 709.488 454.01 709.5C448.43 709.524 442.518 710.992 436.992 710.36C436.094 710.257 435.259 709.061 436.152 708.331C440.382 704.878 446.443 703.752 451.812 703.016L452.925 702.867C454.725 702.631 456.914 702.287 459.184 702.082C459.697 701.08 460.618 700.323 462.002 700.135C462.414 700.078 462.827 700.045 463.24 700.01L463.233 699.969V699.969C466.608 699.807 466.461 694.105 465.536 691.917ZM234.502 798.596C234.442 798.688 234.377 798.775 234.307 798.86L234.2 798.984L234.755 798.758L234.502 798.596V798.596ZM524.425 679.694C510.221 678.168 495.996 678.49 481.75 678.9C480.61 682.628 476.644 685.805 472.801 685.925C475.811 690.508 476.121 696.71 474.011 701.57C478.492 703.355 482.352 706.56 484.696 711.126C487.946 717.454 487.521 724.496 484.309 730.345C487.05 732.828 488.668 736.86 488.506 740.66C488.325 744.897 485.8 748.517 483.702 752.025C481.435 755.82 481.359 759.161 480.663 763.41C479.644 769.629 475.451 773.401 470.056 775.757L470.343 776.886C471.734 782.302 473.464 788.017 477.44 791.978C482.554 797.073 490.487 797.025 497.244 797.348L497.57 797.364C503.757 797.674 509.941 798.036 516.126 798.387L520.765 798.646C527.886 799.038 534.725 799.085 540.538 794.376C550.029 786.688 556.535 773.966 560.654 762.703C569.297 739.063 569.401 713.119 565.433 688.498C552.127 684.208 538.321 681.188 524.425 679.694ZM406.299 718.915L406.403 718.922C409.328 719.256 411.337 721.626 412.053 724.436C413.092 728.52 412.582 732.213 415.083 735.901C417.655 739.692 419.237 742.728 419.611 747.412C419.765 749.34 419.694 751.262 420.123 753.149L420.434 754.471C420.764 755.88 421.035 757.238 420.87 758.751C420.72 760.131 420.048 761.207 418.665 761.649C414.155 763.092 410.674 759.768 409.509 755.564C408.503 751.933 409.846 747.606 408.427 744.196C407.64 742.306 406.189 740.725 405.37 738.822C404.558 736.936 404.15 734.966 404.02 732.916C403.772 729.038 407.201 724.379 405.288 720.866C404.881 720.116 405.342 718.892 406.299 718.915ZM346.403 678.9C349.456 678.28 352.92 676.857 355.932 678.04C357.479 678.648 358.244 680.536 356.936 681.849C354.666 684.126 351.366 684.253 348.308 684.789L348.039 684.838C344.422 685.507 340.8 686.142 337.172 686.744C330.348 687.874 323.507 688.874 316.642 689.724C309.591 690.597 302.521 691.374 295.441 691.958L292.7 692.183C286.719 692.662 280.496 693.023 274.627 692.106C273.774 691.973 273.912 690.731 274.627 690.513C281.056 688.567 288.108 688.045 294.755 687.221C301.821 686.344 308.875 685.418 315.911 684.319C322.936 683.221 329.951 682.043 336.941 680.741C340.1 680.154 343.254 679.54 346.403 678.9ZM456.582 672.651C453.902 671.702 450.954 670.295 448.051 670.766C443.044 671.578 438.588 676.458 434.624 679.672L436.614 679.285C446.797 677.327 460.281 675.218 468.829 681.694C468.851 681.657 468.868 681.62 468.892 681.582C469.583 680.534 470.382 679.716 471.254 678.819C471.338 678.741 471.418 678.659 471.498 678.577L471.969 678.075L470.892 677.702C468.586 676.887 465.854 675.834 465.422 675.68L465.392 675.669C462.452 674.673 459.508 673.688 456.582 672.651ZM372.919 459.134C372.5 453.743 380.888 453.787 381.303 459.134C382.21 470.808 379.583 482.371 373.931 492.605C373.89 492.68 373.844 492.746 373.8 492.817C377.336 494.657 380.911 496.422 384.566 498C389.241 500.019 394.005 501.858 398.853 503.418C403.239 504.83 408.643 505.387 412.33 508.325C420.105 514.519 417.184 527.373 415.688 535.705L415.455 537.021C414.71 541.308 414.172 545.707 415.979 549.822C417.908 554.217 421.81 557.478 425.291 560.623L425.994 561.26C429.078 564.071 432.602 567.486 434.864 571.296C436.929 567.025 439.743 563.535 442.719 559.606C444.843 556.802 443.331 555.878 441.806 553.139C440.338 550.503 439.621 547.692 440.08 544.685C440.927 539.131 445.364 535.118 449.781 532.104C454.998 528.545 460.819 525.909 466.212 522.599C477.292 515.797 488.083 508.021 497.805 499.385C498.073 499.146 498.538 499.459 498.323 499.785C490.643 511.47 481.638 521.568 470.572 530.139C466.084 533.614 461.37 536.497 456.625 539.528L455.26 540.403C453.355 541.638 450.978 543.289 450.117 545.391C449.25 547.505 451.098 549.101 452.093 550.853C455.253 556.414 453.729 561.604 449.983 566.32L449.808 566.538C446.086 571.127 443.264 575.395 441.915 581.258C439.016 593.852 443.054 606.97 447.281 618.794L447.448 619.26C449.735 625.633 452.165 631.959 454.152 638.434L454.698 640.224C456.498 646.182 457.972 652.058 455.953 658.183C455.267 660.266 452.426 660.758 451.247 658.798C447.086 651.884 446.048 643.564 443.44 635.962C440.898 628.554 437.979 621.279 435.523 613.84C432.361 604.262 430.245 593.953 431.393 583.907C431.36 583.848 431.322 583.793 431.294 583.731L430.489 581.97C428.294 577.2 426.174 573.035 422.183 569.234C418.019 565.268 413.5 561.758 410.224 556.957C403.108 546.53 407.509 534.93 408.369 523.529L408.467 522.131C408.623 519.763 408.709 516.546 407.163 514.908C405.424 513.063 401.347 512.593 399.04 511.776C393.078 509.665 387.202 507.206 381.607 504.253C376.28 501.442 371.12 498.336 366.316 494.698L363.881 492.866C360.039 489.966 356.055 486.799 353.48 482.851C353.183 482.397 353.688 481.664 354.226 481.881C358.524 483.626 362.452 486.402 366.474 488.817C366.536 488.67 366.609 488.521 366.691 488.372C371.667 479.363 373.714 469.381 372.919 459.134ZM510.231 520.859C511.944 516.161 519.749 516.524 519.438 522.106C519.199 526.395 517.379 530.266 515.715 534.16L515.537 534.577C513.819 538.635 511.835 542.444 509.46 546.162C504.923 553.271 499.608 559.868 493.931 566.093C488.785 571.738 482.03 575.189 474.246 574.616C470.966 574.374 467.656 573.539 464.782 571.901C461.368 569.953 457.661 564.107 453.306 565.523C452.885 565.659 452.492 565.042 452.856 564.75C457.884 560.7 463.59 566.98 468.404 568.493C475.656 570.772 483.099 568.252 487.768 562.386C492.642 556.262 497.127 549.405 501.224 542.737C503.304 539.351 505.202 535.837 506.842 532.215C508.496 528.56 508.872 524.587 510.231 520.859ZM498.54 491.945C498.329 491.296 499.134 490.679 499.704 491.05C503.008 493.201 505.87 496.044 508.917 498.536C512.298 501.3 515.704 504.008 519.162 506.675C524.204 510.563 518.357 517.721 513.919 513.473C507.846 507.663 501.194 500.066 498.54 491.945ZM480.403 469.204C481.745 464.027 489.682 466.162 488.526 471.279L488.488 471.435C486.297 479.886 489.417 488.491 496.078 493.97L496.324 494.169C500.538 497.543 494.567 503.441 490.395 500.099C481.286 492.806 477.496 480.418 480.403 469.204Z" class="outlines"/>
    <path fill-rule="evenodd" clip-rule="evenodd" d="M556.747 326.319C556.467 310.537 556.157 294.439 553.812 278.81C551.519 263.531 545.211 249.72 534.372 238.625C511.348 215.057 477.975 209.301 446.91 204.025L393.798 195.006C377.595 192.255 360.308 187.857 343.937 191.759C335.87 193.681 329.02 198.148 322.758 203.432C316.723 208.526 310.234 213.996 306.145 220.848C302.048 227.711 300.639 235.733 299.308 243.494C297.805 252.245 296.639 261.064 295.81 269.904C294.148 287.615 293.922 305.46 295.127 323.207C295.71 331.816 296.639 340.399 297.825 348.945C298.413 353.182 299.078 357.409 299.829 361.622C300.05 362.864 300.218 364.239 300.445 365.628C298.77 370.395 297.817 375.331 297.894 380.247C298.12 394.725 310.336 403.841 322.652 408.735C329.793 411.573 337.258 413.501 344.274 416.671C351.655 420.006 356.679 425.411 361.726 431.578C371.351 443.339 382.212 453.909 394.614 462.728C420.908 481.426 454.212 490.27 486.117 483.557C493.772 481.947 501.494 479.446 508.375 475.678C515.64 471.699 521.103 465.934 525.69 459.118C534.208 446.465 540.316 432.216 544.937 417.717C549.651 402.927 552.996 388.109 554.821 372.687C556.639 357.315 557.022 341.786 556.747 326.319V326.319Z" class="main_filling"/>
    <path fill-rule="evenodd" clip-rule="evenodd" d="M387.261 140.029C409.24 137.005 439.576 146.835 450.522 166.655C502.779 154.331 568.69 153.927 611.761 194.955C656.704 243.623 600.253 307.793 562.822 322.26C565.547 335.51 561.298 420.392 531.231 458.254C507.369 490.334 451.801 505.139 426.087 466.822L425.887 466.506C423.132 462.081 425.504 462.223 428.332 465.514C453.511 487.665 487.746 488.044 514.127 464.667C563.569 421.939 558.471 317.172 534.944 256.564C467.951 249.203 396.223 269.516 349.952 319.964L353.081 338.808C353.614 342.019 354.22 345.226 354.682 348.448C354.977 350.512 355.01 352.565 353.581 354.236C348.86 359.752 340.905 351.463 334.359 348.166C332.427 347.894 330.491 347.789 328.592 347.923C297.143 351.975 303.339 413.006 337.904 402.309C340.808 400.499 343.303 401.051 344.43 403.677C352.669 411.227 358.101 424.691 371.789 437.66C376.619 442.524 381.014 446.594 386.446 450.496C389.637 453.724 399.265 457.016 396.213 462.54C390.441 475.11 356.406 435.626 350.388 424.707C331.534 432.155 310.639 429.625 291.101 427.804C188.023 422.443 201.784 313.746 286.274 245.12C302.178 233.407 319.725 223.851 337.965 216.499C340.456 215.495 339.368 211.404 336.842 212.422C324.773 217.288 313.008 223.08 301.792 229.783L301.775 225.776C301.759 219.026 301.865 211.998 303.037 205.831C303.622 201.557 304.608 196.993 306.125 193.559C308 183.032 337.377 146.897 387.261 140.029ZM327.217 361.935C328.808 360.422 331.779 362.226 333.196 362.181C336.819 362.677 340.262 364.207 342.946 366.097C344.719 367.09 345.961 368.023 346.999 368.881L347.027 368.873C347.019 368.873 347.009 368.881 347.001 368.883L347.099 368.949C348.61 370.024 354.143 376.075 350.648 374.447C350.387 374.109 350.12 373.783 349.851 373.464C349.822 373.508 349.782 373.551 349.734 373.592L349.93 373.884C352.902 378.355 347.772 373.644 346.983 372.393C346.945 372.423 346.903 372.444 346.862 372.466L347.889 373.717C348.033 373.895 348.146 374.036 348.24 374.156L348.457 374.366C351.892 377.744 351.999 380.784 348.008 375.789C348.165 376.025 348.291 376.274 348.309 376.495L348.545 376.797C351.679 380.836 349.13 379.402 347.573 377.677L347.443 377.528L347.469 377.569C348.918 379.801 346.044 378.235 345.536 377.04L345.514 376.986C344.961 376.535 344.62 376.028 344.504 375.9L344.482 375.878C341.788 373.117 337.882 370.78 334.564 369.718C334.083 369.626 333.597 369.553 333.105 369.501C331.11 369.056 329.093 368.751 327.055 368.586C326.806 368.556 326.553 368.373 326.364 368.136C323.283 368.032 324.234 366.769 325.513 366.534L325.535 366.53L325.281 366.509C323.303 366.316 321.953 365.606 323.953 365.17L324.206 365.12C324.175 365.071 324.148 365.023 324.121 364.974C322.408 364.786 323.526 363.12 324.476 363.523C324.076 362.215 325.905 362.868 326.133 362.674C326.307 362.481 326.523 362.31 326.648 362.301C327.198 361.912 326.931 361.947 327.217 361.935ZM337.696 340.753L337.294 340.988C336.97 341.178 336.636 341.304 336.301 341.378C336.774 341.579 337.241 341.797 337.704 342.029C337.697 341.745 337.691 341.461 337.691 341.178L337.696 340.753Z" class="outlines"/>
    <path fill-rule="evenodd" clip-rule="evenodd" d="M477.174 427.58C472.44 425.648 468.216 422.426 465.128 418.309C464.054 416.878 463.776 415.367 464.001 413.984C464.255 412.43 465.174 411.021 466.427 410.077C467.685 409.129 469.257 408.661 470.778 408.9C472.099 409.107 473.415 409.83 474.456 411.331L474.673 411.632C476.509 414.116 478.902 416.155 481.628 417.469C484.255 418.736 487.193 419.327 490.234 418.983C496.026 418.329 500.017 415.195 504.26 410.94C504.786 410.403 505.312 409.849 505.841 409.286C506.175 408.776 506.638 408.448 507.153 408.276C507.724 408.085 508.371 408.095 508.962 408.302C509.533 408.501 510.044 408.879 510.386 409.382C510.711 409.86 510.896 410.45 510.836 411.129C510.447 415.538 508.143 419.474 504.87 422.564C501.234 425.996 496.415 428.37 491.878 429.203C486.879 430.12 481.786 429.463 477.174 427.58V427.58ZM494.236 359.554C499.554 362.788 507.657 370.328 501.936 378.345C495.202 385.414 485.506 377.309 480.729 373.644C476.299 370.803 471.321 378.109 475.431 381.426C509.955 406.996 523.966 360.4 496.926 355.752C493.948 355.24 492.843 358.554 494.236 359.554ZM432.369 329.81C432.957 322.514 444.064 320.857 445.169 328.077C446.158 334.544 444.994 340.485 442.082 346.308C439.299 351.87 432.306 349.275 431.777 344.21C431.068 337.42 432.003 334.348 432.369 329.81ZM516.921 326.58C518.469 324.551 520.705 323.166 523.384 323.948C531.754 326.395 529.287 338.282 526.348 344.068C524.75 347.21 519.588 348.007 517.255 345.24C513.452 340.729 511.631 331.719 516.465 327.275C516.596 327.045 516.742 326.814 516.921 326.58ZM441.964 297.885L443.286 297.653C447.376 296.945 452.461 296.266 455.355 299.555C456.889 301.299 457.417 304.541 455.355 306.211C451.726 309.149 447.715 308.01 443.367 308.259C439.784 308.465 436.34 309.058 432.889 310.045C425.317 312.21 419.148 316.162 412.681 320.502C411.832 321.071 410.966 319.985 411.371 319.192C415.104 311.877 422.338 305.868 429.585 302.205C433.452 300.25 437.685 298.629 441.964 297.885ZM509.291 294.608L510.303 294.815C521.315 297.118 535.623 301.718 540.837 312.538C541.036 314.069 540.826 314.396 540.655 314.611L540.599 314.682C540.458 314.865 540.346 315.117 539.683 315.325C539.499 315.282 539.313 315.235 539.125 315.186C536.735 314.559 534.844 313.696 533.013 312.8L531.027 311.822C528.724 310.692 526.401 309.603 523.938 308.8C518.683 307.085 513.278 305.877 507.789 305.232C506.599 305.092 505.454 304.691 504.55 304.002C503.692 303.349 503.037 302.444 502.738 301.242C502.351 299.685 502.462 298.507 503.297 297.103C503.924 296.049 504.822 295.318 505.853 294.898C506.905 294.47 508.102 294.369 509.291 294.608Z" class="outlines"/>
</svg>
