<svg width="800" height="1080" viewBox="0 0 800 1080" fill="none" xmlns="http://www.w3.org/2000/svg">
    <style>
        .outlines {
            fill: #232526;
        }

        .main_filling {
            fill: #f9fafb;
        }

        @media (prefers-color-scheme: dark) {
            .outlines {
                fill: #ff8000;
            }

            .main_filling {
                fill: #f9fafb;
            }
        }
    </style>
    <path fill-rule="evenodd" clip-rule="evenodd" d="M143.361 910.821C142.403 910.852 142.705 910.572 143.057 910.504C143.158 910.609 143.26 910.716 143.361 910.821ZM171.66 931.866C198.44 935.042 225.253 932.137 251.9 929.224C305.886 925.22 359.493 936.884 413.585 933.327C481.185 930.477 548.969 925.126 616.344 934.144C634.98 934.572 664.704 939.603 657.946 910.744C649.068 836.547 637.199 762.723 624.485 689.097C613.71 647.821 612.931 576.427 583.425 547.724C579.111 543.784 563.638 531.038 559.548 529.326C539.21 521.752 502.547 515.841 487.421 499.784C475.169 479.045 480.868 450.744 461.817 434.048C445.119 420.41 408.676 423.293 390.824 433.533C376.74 442.669 374.534 460.414 365.757 473.537C363.593 476.681 358.45 484.261 355.547 486.706C348.479 493.514 323.654 500.665 316.485 501.979C276.029 510.273 255.857 515.397 224.038 542.291C140.899 627.201 152.684 777.379 129.679 888.413C128.738 900.619 121.32 917.183 134.554 925.042C145.952 930.504 159.353 929.909 171.66 931.866Z" class="main_filling"/>
    <path fill-rule="evenodd" clip-rule="evenodd" d="M478.146 471.557C478.246 471.268 478.71 471.218 478.78 471.557C479.915 476.748 482.041 482.441 484.196 487.309C486.386 492.241 489.379 496.771 493.16 500.617C501.083 508.677 511.273 512.354 522.449 512.361L522.717 512.368C522.768 511.993 522.826 511.617 522.88 511.241L522.956 510.677C523.977 502.956 533.139 503.182 534.928 509.008C535.836 509.297 536.745 509.585 537.646 509.888L537.826 509.953C539.344 510.531 544.484 513.092 545.428 512.411C547.505 510.916 549.879 512.629 550.667 514.538C551.956 517.664 552.172 521.528 552.59 524.919L552.646 525.359L552.71 525.887C582.111 533.531 598.611 562.958 607.034 590.068C611.597 604.764 614.583 619.924 617.583 635.001C620.794 651.127 623.753 667.295 626.886 683.428C633.062 715.222 638.907 747.087 643.984 779.071L645.457 788.36C650.108 817.77 654.639 847.164 658.449 876.708C660.505 892.637 662.435 908.58 664.294 924.537C664.627 927.382 664.958 930.229 665.285 933.077L665.774 937.351C666.21 941.184 666.949 944.974 665.055 948.56C660.949 956.337 648.512 956.281 647.808 946.32C647.668 944.34 648.336 942.825 649.442 941.769L649.427 941.601C649.416 941.502 649.405 941.428 649.4 941.395C649.034 939.416 648.935 937.323 648.71 935.322C648.217 931.053 647.738 926.784 647.252 922.508C646.315 914.363 645.372 906.22 644.393 898.083C642.415 881.576 640.322 865.091 638.105 848.62L635.906 832.334C628.554 778.047 620.891 723.772 610.808 669.916C608.062 655.255 605.238 640.616 602.343 625.983C599.597 612.126 596.512 598.331 591.907 584.953C584.386 563.099 571.238 542.634 552.984 528.29C553.266 531.03 553.47 533.785 553.731 536.526C554.4 543.564 555.111 550.594 555.829 557.625C558.442 583.1 561.984 608.533 568.027 633.443C571.019 645.787 574.667 657.967 579.111 669.866C581.301 675.728 583.688 681.512 586.308 687.19C588.9 692.805 593.443 698.807 593.717 705.063C593.843 707.959 590.815 710.53 588.013 710.22C589.322 721.746 590.062 733.391 590.843 744.889C591.984 761.542 592.893 778.226 594.224 794.866C596.604 824.674 599.59 854.439 602.717 884.176C603.336 890.071 604.01 895.962 604.677 901.852L605.235 906.797C605.611 910.003 606.179 913.845 604.477 916.688C605.998 920.359 607.041 924.128 607.647 928.059C608.414 932.948 605.619 938.429 599.914 938.218C599.266 938.196 598.618 938.14 597.97 938.07C592.681 939.296 587.407 940.374 581.914 940.409C574.9 940.458 567.872 940.317 560.858 940.268C547.288 940.176 533.717 940.085 520.146 939.972C471.019 939.578 421.872 939.599 372.752 938.81L353.099 938.498C335.082 938.208 317.063 937.874 299.055 937.218C286.653 936.767 274.253 936.309 261.857 935.809L259.334 935.712C248.397 935.314 237.448 935.109 226.632 933.434C226.361 933.389 226.244 933.107 226.286 932.86L226.301 932.793L225.829 932.688C225.555 933.871 219.85 928.897 219.893 925.593C217.526 922.515 218.632 917.597 218.886 914.032C219.132 910.559 219.442 907.079 219.717 903.606C220.301 896.187 220.801 888.762 221.4 881.344C223.815 851.43 225.9 821.44 227.252 791.463C227.935 776.352 228.484 761.233 229.062 746.122C229.322 739.241 229.684 732.355 230.358 725.507L230.534 723.795C231.273 716.85 231.203 709.382 233.759 702.836C233.794 702.746 233.914 702.746 233.949 702.836C236.534 709.206 236.78 716.61 237.301 723.599C237.393 723.571 237.484 723.557 237.583 723.535C241.153 721.838 244.759 720.309 248.139 718.209C248.597 717.928 249.041 717.631 249.491 717.343C254.808 701.069 260.97 685.063 266.639 668.894C284.956 616.613 295.069 560.936 297.308 505.577C283.336 514.588 268.12 521.598 253.327 529.126L251.942 529.833C237.372 537.286 223.421 545.747 213.048 558.675C204.005 569.933 198.097 583.65 192.569 596.873C186.632 611.083 181.28 625.546 176.386 640.144C166.456 669.761 158.766 700.104 152.766 730.757C146.843 761.008 142.611 791.484 139.78 822.173C138.336 837.827 137.019 853.495 135.914 869.184C135.35 877.124 134.85 885.07 134.386 893.024C134.16 896.885 133.991 900.753 133.738 904.613C133.583 906.839 133.555 909.135 132.822 911.249C132.21 913.01 131.125 914.483 130.111 916.04C128.259 918.879 123.583 919.394 121.843 916.04L121.09 914.588C120.093 912.654 119.183 910.706 119.048 908.474C118.921 906.36 119.181 904.155 119.301 902.034C119.534 897.744 119.801 893.447 120.069 889.156C120.632 880.132 121.259 871.107 121.963 862.09C123.365 844.026 125.167 826.012 127.435 808.033C135.414 744.889 146.935 682.075 168.921 622.151C174.357 607.335 180.421 592.638 187.266 578.415C193.886 564.663 202.259 551.679 214.414 542.211C225.603 533.493 238.609 527.658 251.531 521.994L253.146 521.287C267.632 514.954 282.09 508.134 297.217 503.428C296.879 503.47 296.548 503.513 296.26 503.611C295.928 503.717 295.731 503.287 295.936 503.055C296.794 502.104 297.153 501.124 298.14 500.187C298.821 499.539 299.53 498.927 300.259 498.337L301.307 497.502C303.227 495.978 305.244 494.421 307.66 493.889C311.076 493.142 312.753 496.249 311.794 498.68C312.287 498.039 313.611 498.229 313.956 499.11C325.196 528.107 332.576 558.802 347.703 586.2C358.872 606.44 373.857 625.131 393.745 637.354C404.428 643.92 416.654 648.964 429.28 649.76C440.618 650.472 451.527 647.589 461.168 641.637C479.858 630.104 492.062 609.857 500.766 590.237C510.336 568.637 517.167 545.621 521.181 522.288C508.463 522.464 495.041 516.659 486.583 507.197C482.132 502.216 478.815 496.151 477.132 489.683C475.435 483.16 475.977 477.798 478.146 471.557ZM371.449 454.613C372.999 451.844 376.435 450.929 379.245 452.056C382.364 453.31 383.302 456.339 382.858 459.418C382.343 463.025 380.026 466.921 378.224 470.07C376.337 473.367 373.907 476.404 371.392 479.242C366.661 484.597 361.597 489.422 355.59 493.368C349.611 497.292 342.85 500.229 335.9 501.871L334.248 502.257C328.841 503.493 321.149 504.91 316.646 501.97C316.428 501.829 316.435 501.54 316.646 501.399C319.083 499.701 322.344 499.398 325.146 498.596C328.202 497.715 331.266 496.715 334.188 495.46C339.957 492.98 345.478 489.711 350.392 485.808C355.33 481.892 360.104 477.221 363.407 471.831C365.069 469.126 366.485 466.287 367.843 463.427C369.217 460.559 369.907 457.375 371.449 454.613Z" class="outlines"/>
    <path fill-rule="evenodd" clip-rule="evenodd" d="M549.657 320.509C544.823 261.56 530.105 209.349 460.946 207.123C429.737 207.402 397.878 214.035 369.178 226.307C299.42 261.297 277.287 389.15 338.746 440.617C338.38 440.825 338.292 441.426 338.724 441.716C351.421 450.262 365.534 457.293 379.67 463.2C417.322 479.125 461.646 486.042 500.046 468.768C558.646 443.823 559.525 374.412 549.657 320.509V320.509Z" class="main_filling"/>
    <path fill-rule="evenodd" clip-rule="evenodd" d="M665.004 293.032C667.412 290.863 669.208 288.016 670.117 284.825C670.948 281.915 671.004 278.738 670.124 275.836C669.18 272.722 667.145 270.242 667.603 267.001C667.652 266.684 667.715 266.353 667.814 266.022C669.574 259.921 673.905 255.518 672.356 248.755C671.92 246.845 671.096 245.126 669.948 243.774C670.074 242.308 670.187 240.829 670.279 239.349C672.821 233.396 672.729 226.323 670.018 220.462C669.687 217.461 669.187 214.488 668.483 211.564C668.807 208.978 668.356 206.132 667.525 203.871C666.065 199.892 664.261 195.971 662.303 192.114C662.534 191.059 662.43 189.945 661.848 188.954C660.791 187.152 659.393 185.569 657.964 184.021C656.953 182.215 655.936 180.424 654.927 178.657C654.459 177.844 653.943 176.943 653.374 175.989C654.924 173.11 655.753 170.305 654.112 166.92C653.496 165.648 651.802 164.71 650.407 164.794C648.882 164.884 647.343 164.953 645.796 165.011C642.905 161.518 639.628 158.383 636.117 156.578C632.56 153.562 628.955 150.603 625.448 147.581C624.455 146.722 623.455 145.862 622.462 145.003C622.455 144.982 622.448 144.953 622.441 144.932C621.708 142.262 620.884 139.627 620.06 136.978C619.546 135.337 619.391 133.618 617.793 132.723C614.455 130.856 609.321 130.56 605.49 130.243C605.11 129.905 604.729 129.574 604.349 129.236C606.089 124.6 605.779 119.676 603.589 115.033C602.842 113.455 600.251 112.744 598.828 113.786C595.546 116.196 591.652 117.048 587.8 116.696C582.138 112.342 559.3 92.6541 555.771 90.5758C555.727 90.5011 555.692 90.4264 555.646 90.3525C553.662 87.1836 551.253 84.639 548.544 82.5987C548.158 82.195 547.771 81.7907 547.384 81.3863C547.724 78.9705 548.62 76.6379 550.06 74.6865C550.215 74.461 550.391 74.2426 550.567 74.0313C553.089 71.0301 550.011 67.1695 546.49 68.7405C546.236 68.8532 545.983 68.9659 545.729 69.0857C543.022 70.2932 540.027 71.6057 536.908 72.7132C535.767 72.2855 534.603 71.8981 533.542 71.4711L522.179 66.901C520.308 66.1486 518.331 65.5111 516.522 64.6269C515.891 60.4288 511.685 57.6756 507.317 57.8193C507.57 57.0134 507.946 56.2307 508.476 55.4888C508.631 55.2704 508.8 55.0591 508.976 54.8548C511.222 52.2411 508.222 47.3941 505.011 49.719C504.786 49.881 504.553 50.043 504.328 50.2051C503.436 50.8314 502.522 51.4189 501.599 51.9882C500.121 51.3428 498.456 51.1956 496.714 51.8783C492.856 53.3894 489.3 54.9259 485.903 57.2945C485.765 57.391 485.622 57.472 485.483 57.5629C483.797 55.5255 481.12 54.163 478.71 54.1778C478.66 54.1778 478.622 54.177 478.579 54.1763C476.777 51.4295 473.473 49.8331 470.283 50.2213C470.498 46.2796 466.554 42.762 462.963 42.3344C458.767 41.8356 454.986 44.2725 453.727 48.367C453.376 49.5069 453.026 50.6475 452.675 51.7881C449.417 50.1431 445.979 48.8827 442.388 48.2536C434.21 46.8206 426.213 48.3466 418.332 50.6179C417.545 50.8448 416.758 51.0779 415.972 51.3104C414.848 50.0078 413.793 48.6742 412.786 47.4293C411.046 45.2806 406.87 46.9996 407.152 49.7612C407.348 51.6669 406.574 53.0379 405.328 54.0122C403.96 54.2123 402.637 54.2729 400.643 54.2327C398.007 54.1792 396.808 54.0967 394.051 53.0217C392.767 52.5215 391.167 51.2062 390.419 50.0254C387.549 45.4976 380.26 44.2781 376.788 48.5953C373.134 46.9954 368.522 49.2019 366.493 52.3129C365.432 53.9396 363.218 54.8491 360.431 55.6311C358.339 56.2173 356.199 56.6611 354.05 57.0493C353.092 55.7495 351.075 54.878 349.596 55.9679C348.593 56.7083 347.62 57.4685 346.66 58.2477C339.259 59.2678 331.896 59.3044 324.839 56.4174C318.865 53.9727 313.379 60.6493 314.365 66.2543C312.634 67.1554 310.757 67.7549 309.048 68.6989C305.319 70.7603 302.257 74.0186 300.391 77.8469C300.056 78.5323 299.754 79.2284 299.466 79.928C298.072 81.0629 296.694 82.2282 295.349 83.4575C293.11 82.3092 290.877 81.1608 288.638 80.0125C286.962 79.153 284.138 79.7518 283.807 81.9781C283.265 85.6415 281.948 88.6779 280.067 91.2211C273.955 94.4336 268.074 98.0407 262.448 102.049C255.976 104.078 249.096 105.262 243.441 106.593C241.504 107.051 240.448 109.58 241.539 111.264C242.694 113.047 243.849 114.829 244.997 116.611C241.779 119.753 238.758 123.036 235.905 126.432C227.969 135.872 221.328 146.221 215.384 157.184C213.032 158.135 210.68 159.079 208.328 160.03C206.06 160.946 205.039 163.58 206.877 165.518C207.751 166.441 208.532 167.413 209.201 168.434C205.87 173.951 201.948 178.981 196.462 182.278C194.793 183.278 193.539 184.849 192.87 186.632C192.3 187.012 191.736 187.421 191.18 187.836C189.631 189.006 188.694 191.556 190.511 193.071C191.786 194.142 192.983 195.41 193.997 196.812C194.215 197.608 194.441 198.411 194.666 199.207C189.567 203.899 185.328 209.352 182.145 215.467C181.391 215.347 180.617 215.425 179.99 215.89C174.3 220.095 174.131 226.795 176.42 232.784C175.039 241.808 175.927 251.058 178.589 259.801C175.089 263.295 172.983 268.34 172.124 273.201C170.61 281.739 170.504 294.871 170.11 303.586C166.293 307.27 163.574 312.04 162.06 317.169C160.786 317.803 159.511 318.437 158.236 319.071C157.103 319.634 156.272 321.121 156.342 322.375C156.666 328.441 159.166 333.231 162.483 337.571C163.659 340.917 165.398 344.003 167.68 346.962C169.258 348.991 170.8 350.935 172.159 353.126C172.3 353.345 172.384 353.549 172.448 353.69C171.912 354.268 171.469 355.226 171.081 355.909C167.828 361.644 167.779 368.365 172.398 373.36C170.659 374.783 170.603 377.657 172.138 379.418C182.131 390.838 190.462 404.724 204.328 410.79C204.391 410.895 204.448 411.001 204.497 411.107C201.687 417.87 201.307 421.385 203.603 428.374C203.617 428.438 203.638 428.494 203.659 428.557C204.884 432.221 207.138 438.089 211.201 439.23C212.483 439.59 213.743 439.752 214.99 439.745C218.215 442.852 221.434 445.965 224.652 449.079C224.934 450.622 225.11 452.179 225.166 453.75C225.258 456.378 227.729 458.506 230.391 457.731C231.328 457.456 236.511 452.419 237.462 452.447C237.941 452.926 238.405 453.405 238.87 453.891C240.581 455.688 242.955 458.52 243.152 460.401C243.532 463.944 245.856 468.002 249.61 468.721C251.018 470.151 253.272 470.581 254.997 468.714C255.11 468.594 255.222 468.474 255.342 468.369C255.525 468.347 255.701 468.326 255.884 468.305C256.715 470.785 257.546 473.265 258.384 475.738C260.025 480.613 266.293 483.748 270.743 480.902C271.462 481.331 272.166 481.789 272.87 482.247C273.941 482.931 275.025 483.628 276.138 484.283C276.201 484.466 276.265 484.65 276.321 484.826C277.039 487.017 280.025 488.193 281.863 486.932C282.434 487.115 283.018 487.263 283.61 487.383C286.715 487.996 289.842 487.827 292.842 486.791C294.99 486.059 297.039 484.657 299.349 484.466C299.493 484.454 299.642 484.464 299.789 484.46C301.673 488.322 305.979 491.65 309.373 492.781C313.818 494.263 318.367 493.733 322.415 491.919C323.508 494.103 324.879 496.172 326.518 498.084C327.427 499.141 329.067 498.916 330.004 498.084C331.783 496.507 333.551 494.922 335.315 493.335C336.593 492.842 337.882 492.251 339.227 491.702C343.434 489.983 348.046 489.27 351.937 486.786C353.784 485.607 355.522 484.102 356.953 482.359C359.648 480.802 362.125 478.862 364.356 476.639C365.469 476.647 366.631 476.386 367.758 475.815C372.469 473.42 374.948 468.545 375.166 463.557C378.983 454.574 381.236 444.993 381.856 435.187C382.053 431.967 382.089 428.719 381.842 425.5C381.673 423.231 381.103 421.717 380.243 419.666C379.955 418.997 379.694 418.384 379.49 417.708C379.539 415.538 379.567 413.368 379.596 411.205C380.18 409.381 381.222 407.683 382.673 406.253C384.92 404.041 385.948 399.447 383.905 396.714C382.574 394.946 381.25 393.177 379.92 391.409C380.293 383.821 382.11 371.746 378.081 370.478C378.243 369.351 378.589 368.238 378.786 367.118C379.729 361.735 379.166 356.924 376.307 352.218C375.708 351.238 375.201 350.372 374.786 349.526C374.525 347.976 374.265 346.427 374.004 344.877C373.603 342.488 373.208 340.079 372.87 337.656C372.694 334.57 372.532 331.484 372.356 328.391C372.194 325.545 372.011 322.699 371.821 319.846C371.898 318.571 372.011 317.295 372.173 316.02C373.138 308.419 376.243 305.608 381.624 300.324C382.469 300.19 383.307 300.042 384.131 299.873C387.969 299.077 391.983 297.844 395.934 298.288C400.222 298.767 404.06 300.62 408.229 298.253C409.455 297.548 412.152 295.604 412.384 294.061C412.398 293.962 412.42 293.878 412.448 293.814C412.736 293.772 413.11 293.737 413.342 293.73C416.652 293.617 419.814 294.921 423.152 294.561C427.103 294.139 430.638 292.384 432.962 289.785C435.941 290.517 438.983 290.848 442.074 290.44C444.666 290.102 446.99 289.256 449.286 288.002C450.955 287.101 450.427 286.84 452.243 287.573C456.377 289.249 460.117 291.461 464.772 290.313C467.187 289.721 469.272 288.418 471.025 286.664C471.441 286.255 472.145 285.642 472.617 285.065C474.828 286.185 480.391 288.714 481.307 288.939C483.898 289.573 486.645 289.475 489.166 288.629C491.018 288.009 493.286 286.319 494.912 285.973C497.018 285.522 501.694 288.453 504.208 289.461C508.617 291.229 513.286 291.666 517.751 289.841C519.286 289.214 522.272 286.713 523.42 286.734C525.286 289.038 530.497 301.641 532.06 306.242C538.391 324.841 540.032 382.913 537.11 397.728C536.997 398.165 536.877 398.595 536.758 399.032C533.166 411.917 529.427 425.021 523.42 437.025C517.751 448.34 509.912 458.527 498.666 464.705C487.004 471.116 473.314 472.8 460.201 471.933C451.758 471.384 443.455 469.686 435.286 467.558C431.018 466.452 426.786 465.22 422.574 463.937C420.736 463.381 418.87 462.859 417.067 462.211C413.884 461.063 412.215 460.971 409.166 462.444C406.391 463.782 405.68 467.735 407.124 470.221C409.476 474.279 413.786 474.561 417.948 475.745C422.187 476.949 426.441 478.105 430.722 479.14C438.927 481.113 447.265 482.628 455.673 483.325C470.729 484.586 486.243 482.642 499.948 476.069C501.497 475.322 502.99 474.526 504.434 473.666C503.898 474.413 503.356 475.16 502.807 475.9C501.286 477.95 502.412 481.437 504.546 482.557C505.222 482.91 505.898 483.248 506.581 483.579C506.673 483.797 506.772 484.016 506.884 484.234C508.835 488.151 512.92 490.462 517.082 491.462C522.025 492.646 527.56 491.807 532.589 491.659C537.251 491.519 541.912 491.378 546.567 491.237C547.666 491.209 548.765 491.173 549.863 491.138C555.398 490.969 560.927 490.807 566.455 490.638C571.384 490.49 571.152 490.87 575.779 488.898C577.842 488.01 579.532 486.756 580.955 485.086C581.842 484.692 582.701 484.241 583.525 483.727C586.173 482.078 588.525 479.866 590.694 477.429C594.377 478.591 599.539 477.513 600.258 472.884C601.412 465.48 611.032 462.317 615.525 456.963C619.152 452.644 621.743 446.987 621.61 441.555C630.751 437.131 635.722 425.472 636.884 415.58C637.427 410.994 637.342 406.084 638.124 401.42C638.469 401.047 638.779 400.652 639.039 400.229C641.335 396.517 643.335 392.691 645.096 388.774C647.49 387.048 650.37 385.984 653.384 385.808C660.793 385.378 662.187 375.382 655.124 372.972C655.089 372.958 655.06 372.951 655.025 372.937C656.941 368.146 656.779 362.475 654.455 357.938C654.553 357.445 654.645 356.959 654.736 356.466C658.701 352.203 660.976 346.279 660.722 340.509C662.532 339.234 664.56 338.247 666.779 337.634C670.208 336.69 670.229 332.506 667.694 330.632C666.673 329.878 665.828 328.997 665.124 328.025C666.877 322.755 666.187 316.661 662.603 312.336C664.877 309.419 667.152 306.503 669.427 303.586C670.934 301.656 671.729 298.38 669.427 296.548C667.955 295.371 666.483 294.202 665.004 293.032Z" class="outlines"/>
    <path fill-rule="evenodd" clip-rule="evenodd" d="M467.388 406.489C475.748 406.489 479.288 407.849 484.726 411.046C490.165 414.243 495.979 418.364 497.355 424.536C498.638 430.288 496.113 435.892 490.525 438.086C487.4 439.314 451.386 442.188 445.736 442.564C440.087 442.939 434.695 442.475 431.067 438.712C421.693 428.986 434.711 416.377 443.029 411.721C450.457 407.561 459.028 406.489 467.388 406.489ZM465.454 413.048C459.166 413.048 448.865 417.649 448.865 419.889C448.865 422.13 478.889 419.906 479.533 417.989C480.177 416.073 471.742 413.048 465.454 413.048ZM470.292 361.707C475.61 364.94 483.712 372.481 477.992 380.497C471.258 387.566 461.562 379.461 456.785 375.796C452.355 372.955 447.377 380.261 451.487 383.578C486.011 409.148 500.022 362.552 472.981 357.905C470.004 357.393 468.899 360.706 470.292 361.707ZM410.24 332.399C419.298 325.709 432.848 330.858 435.08 341.325C436.631 342.142 437.476 343.44 437.66 345.341L437.705 345.816V345.816C437.924 348.074 435.916 350.212 433.908 350.807C431.648 351.476 429.86 351.13 427.762 350.17C425.751 349.249 425.051 346.637 425.416 344.65L425.449 344.485C425.986 342.019 423.872 339.629 421.745 338.652C419.344 337.55 416.65 338.24 414.563 339.701C412.245 341.322 410.318 344.095 409.666 346.858L409.601 347.145C409.087 349.53 408.7 354.005 411.014 355.376C411.424 355.617 411.131 356.172 410.708 356.099C405.681 355.239 402.688 352.214 402.657 346.803C402.625 341.072 405.702 335.751 410.24 332.399ZM493.648 330.495C502.694 327.285 514.006 335.908 510.522 345.867C508.234 352.405 499.384 349.784 500.209 343.23L500.237 343.03C500.761 339.621 498.18 338.012 495.015 339.131C490.324 340.79 487.794 348.163 489.992 352.465C490.262 352.993 489.508 353.441 489.194 352.931L488.892 352.447C486.438 348.537 484.199 345.651 485.006 340.656C485.748 336.052 489.27 332.048 493.648 330.495ZM475.302 306.791C475.278 306.351 475.742 306.054 476.138 306.154C479.353 306.963 482.264 309.302 485.192 310.82C488.388 312.475 491.661 313.813 495.131 314.794C498.513 315.749 501.93 316.225 505.445 316.196C509.249 316.164 512.971 314.736 516.702 314.854C522.31 315.03 525.24 323.188 519.717 325.992C511.675 330.074 499.747 327.108 491.925 323.715C485.628 320.984 475.712 314.53 475.302 306.791ZM434.451 308.656C437.385 304.878 443.321 304.651 445.926 309.103C448.617 313.704 445.383 318.316 440.81 319.268C432.466 322.999 423.92 325.855 414.805 327.04L413.571 327.195C405.639 328.161 395.628 328.687 388.46 325.027C387.758 324.668 387.971 323.598 388.674 323.397C392.715 322.241 397.24 322.243 401.396 321.485C405.348 320.764 409.269 319.967 413.118 318.798C420.723 316.488 427.929 313.186 434.451 308.656Z" class="outlines"/>
</svg>
