<svg width="800" height="1080" viewBox="0 0 800 1080" fill="none" xmlns="http://www.w3.org/2000/svg">
    <style>
        .outlines {
            fill: #232526;
        }

        .main_filling {
            fill: #f9fafb;
        }

        @media (prefers-color-scheme: dark) {
        .outlines {
            fill: #ff8000;
        }

        .main_filling {
            fill: #f9fafb;
            }
        }
    </style>

    <path fill-rule="evenodd" clip-rule="evenodd" d="M648.789 839.781C645.951 823.744 643.349 807.664 640.984 791.549C639.861 783.898 638.766 776.241 637.782 768.57C637.092 763.196 636.042 757.051 639.697 753.071C644.84 747.469 649.512 742.674 650.141 734.649C650.734 727.099 648.182 718.868 646.586 711.539C643.239 696.17 639.073 680.991 634.47 665.955C629.793 650.679 624.665 635.547 619.463 620.444C614.599 606.323 609.924 592.075 603.589 578.527C591.568 552.816 571.23 533.775 546.094 521.062C539.843 517.9 527.093 506.612 520.562 504.085C514.557 501.762 514.579 508.547 508.67 505.991C503.946 503.948 499.547 501.223 496.902 496.661C494.03 491.706 486.828 484.777 485.732 479.01C483.409 466.785 485.925 456.381 477.204 447.181C469.462 439.011 459.056 433.414 448.288 430.409C424.601 423.8 393.01 428.42 378.719 450.44C371.893 460.955 369.508 473.666 360.297 482.247C352.254 489.741 354.054 494.864 343.637 498.725C343.047 498.945 327.056 495.513 326.466 495.733C315.07 493.293 304.178 500.122 293.723 504.085C278.137 509.992 263.297 517.681 249.356 526.819C221.244 545.245 197.166 569.172 177.316 596.248C157.302 623.547 141.773 654.146 130.716 686.126C128.031 693.893 125.619 701.756 123.491 709.695C122.301 714.138 121.028 718.747 122.478 723.295C123.664 727.017 126.302 729.788 129.4 732.021C133.599 735.048 142.022 737.015 141.858 743.103C141.733 747.732 140.163 752.604 139.397 757.178C138.485 762.625 137.736 768.105 136.987 773.576C133.578 798.48 130.925 823.525 129.752 848.64C128.597 873.369 127.639 898.604 129.353 923.326C129.467 924.957 129.953 926.453 130.737 927.718C130.005 927.998 129.949 929.362 130.859 929.555C131.497 929.691 132.134 929.826 132.772 929.961C134.097 930.964 135.75 931.579 137.652 931.639C138.941 931.68 140.23 931.738 141.518 931.804C155.11 934.647 168.701 937.332 182.47 939.365C199.208 941.836 215.996 943.851 232.835 945.489C267.437 948.854 301.767 947.738 336.415 945.924C371.009 944.112 405.583 943.689 440.213 944.59C474.874 945.492 509.522 947.001 544.19 947.618C582.922 948.306 621.594 947.248 660.214 944.168C665.509 943.746 668.785 939.532 667.741 934.271C661.484 902.749 654.393 871.438 648.789 839.781Z" class="main_filling"/>
    <path fill-rule="evenodd" clip-rule="evenodd" d="M315.659 494.957C319.24 494.801 322.892 495.381 326.466 495.733C326.777 495.763 326.895 496.244 326.545 496.317C320.15 497.653 313.825 499.482 307.544 501.338L304.855 502.135C297.773 504.231 290.898 506.393 284.042 509.188C270.377 514.759 257.399 522.279 245.454 530.918C199.46 564.186 166.171 614.553 145.164 666.701C139.459 680.863 134.626 695.377 130.71 710.136C129.758 713.727 128.862 717.331 128.013 720.948C127.764 722.008 126.677 724.723 127.273 725.808C127.799 726.767 129.847 727.359 130.799 727.858L134.011 729.524C140.276 732.755 150.713 738.065 151.759 738.582L153.392 739.386C180.089 752.479 208.615 763.582 238.659 764.351L238.894 761.784V761.784C240.233 747.595 241.991 733.33 245.828 719.577C246.034 718.838 246.974 719.087 247.06 719.744C249.197 736.025 248.514 752.434 247.768 768.791C246.448 797.762 244.695 826.716 243.136 855.675C242.356 870.162 241.347 884.638 240.437 899.117C239.525 913.625 239.23 928.482 237.147 942.87C236.683 946.077 232.928 947.821 230.085 947.483C226.938 947.108 224.518 944.336 224.503 941.158C224.465 932.776 225.518 924.295 226.103 915.934C226.659 907.99 227.255 900.05 227.866 892.11C230.1 863.134 232.67 834.191 235.047 805.226C235.889 794.953 236.799 784.69 237.735 774.426C205.909 773.4 176.176 761.607 147.811 747.829C147.401 757.154 146.409 766.463 145.449 775.749C142.77 801.665 140.407 827.571 138.639 853.567C137.746 866.697 137.096 879.843 136.53 892.99C136.252 899.452 136.025 905.915 135.851 912.38C135.793 914.535 135.74 916.69 135.694 918.846L135.597 923.783C135.518 926.911 135.2 929.809 132.568 932.087C129.896 934.399 126.286 934.523 123.641 932.087C120.1 928.825 120.726 924.381 120.831 920C120.918 916.305 121.023 912.611 121.145 908.917C121.39 901.529 121.702 894.143 122.081 886.76C123.409 860.95 126.063 835.243 129.532 809.64L130.886 799.756C133.414 781.383 136.19 762.592 141.842 744.892C139.641 743.797 137.447 742.695 135.261 741.587C131.383 739.623 127.374 737.78 123.605 735.613C120.615 733.893 118.036 731.534 117.204 728.053C116.275 724.175 117.695 719.933 118.638 716.15L118.72 715.818C119.645 712.008 120.64 708.215 121.691 704.438C125.952 689.123 131.22 674.106 137.385 659.456C149.73 630.126 165.665 602.263 185.129 577.069C202.649 554.391 223.347 533.825 247.604 518.401C259.464 510.86 272.102 504.668 285.467 500.29C291.714 498.244 298.511 496.465 305.052 495.732C308.58 495.338 312.114 495.111 315.659 494.957ZM379.119 448.481C383.375 443.909 391.832 448.641 389.788 454.695C384.981 468.939 377.326 481.933 365.379 491.293C354.15 500.092 340.759 505.806 326.338 504.587C326.227 504.577 326.13 504.548 326.045 504.508L327.288 506.195C337.045 519.398 347.338 532.418 359.744 543.21C385.02 565.198 419.436 577.058 452.668 568.621C478.815 561.984 501.85 541.301 508.625 514.941C507.653 515.377 506.499 515.525 505.232 515.25C499.812 514.073 494.446 508.37 490.95 504.281C487.168 499.857 484.215 495.081 482.05 489.681C478.088 479.8 476.817 467.077 482.227 457.505C482.895 456.325 484.434 456.987 484.565 458.139L484.771 459.937C485.814 468.907 487.113 477.585 491.341 485.763C493.41 489.765 495.891 493.67 498.91 497.022C500.525 498.815 502.277 500.528 504.167 502.031C506.01 503.496 508.24 504.555 509.892 506.236L510.194 506.558L510.203 506.501C510.62 502.949 513.11 501.385 515.546 501.482C517.903 501.577 520.672 502.615 521.744 503.112L521.846 503.16C538.291 511.058 553.437 521.351 567.69 532.771C597.166 556.389 619.251 587.264 629.952 623.622C635.204 641.466 638.218 659.853 641.399 678.154L643.357 689.367C646.327 706.262 649.643 723.489 656.346 739.206C658.08 743.271 656.744 747.084 652.492 748.683C647.184 750.679 641.856 752.612 636.519 754.522C639.139 765.768 640.737 777.403 642.701 788.705C646.874 812.727 651.987 836.597 656.372 860.588C658.613 872.855 660.636 885.162 662.875 897.43C663.953 903.338 665.079 909.238 666.173 915.143C666.763 918.327 667.297 921.521 667.86 924.71L667.958 925.239C668.28 926.921 668.685 928.661 668.222 930.345C667.695 932.264 666.197 933.621 664.86 934.997C663.759 936.131 662.168 936.138 660.82 935.519L660.376 935.314C657.967 934.187 656.08 933.063 655.226 930.345C654.685 928.624 654.49 926.685 654.136 924.912C653.458 921.512 652.815 918.109 652.208 914.696C650.994 907.867 649.808 901.033 648.651 894.194L647.569 887.79C643.858 865.718 640.333 843.513 638.551 821.208C637.761 811.313 636.923 801.427 636.078 791.538L635.443 784.121C634.64 774.734 633.659 765.109 633.52 755.595L630.329 756.728V756.728L614.758 762.234V762.234C610.898 763.599 605.982 766.396 601.827 765.887C599.794 765.638 598.243 764.998 597.046 763.834C598.479 784.076 600.42 804.283 603.007 824.388C605.36 842.681 607.97 860.949 611.051 879.134C612.577 888.139 614.146 897.136 615.849 906.108C616.701 910.595 617.579 915.076 618.485 919.552C618.936 921.786 619.474 924.021 619.826 926.273C620.229 928.851 619.519 930.438 618.079 932.559C616.896 934.301 614.531 935.196 612.613 933.993C610.074 932.399 608.749 931.018 608.002 928.115C607.323 925.478 606.91 922.725 606.385 920.054C605.415 915.124 604.478 910.188 603.573 905.245C601.681 894.909 599.936 884.547 598.379 874.154C592.889 837.542 589.406 800.623 587.647 763.645C586.779 745.4 586.51 727.14 586.665 708.876C586.744 699.515 587.049 690.127 587.711 680.789C588.382 671.336 589.776 662.073 591.021 652.711C591.065 652.382 591.529 652.363 591.549 652.711C592.139 663.207 593.063 673.691 593.515 684.214C593.948 694.255 594.137 704.312 594.481 714.357C594.932 727.56 595.558 740.772 596.387 753.974C597.888 752.332 600.15 751.385 602.413 751.755C605.692 751.067 609.222 749.346 612.348 748.301L624.132 744.363V744.363C630.327 742.293 636.522 740.237 642.739 738.243C637.181 719.537 633.373 700.551 630.122 681.289L628.672 672.626C625.802 655.574 622.707 638.514 617.508 622.001C612.043 604.641 603.864 588.501 593.014 573.885C582.319 559.48 569.307 546.796 555.91 534.932C544.44 524.776 532.17 515.606 520.472 505.729C520.594 506.384 520.62 507.104 520.513 507.896C518.025 526.108 508.529 543.067 495.294 555.681C468.706 581.023 429.349 586.28 395.32 574.397C362.402 562.902 333.298 535.679 323.016 501.992C322.84 501.416 323.612 501.187 323.922 501.61C324.492 502.392 325.065 503.174 325.639 503.956C325.601 503.645 325.762 503.307 326.145 503.159C338.142 498.525 349.923 491.953 358.916 482.655C363.299 478.123 367.125 472.989 370.144 467.452C371.591 464.799 372.89 462.052 373.927 459.214L374.19 458.479C375.446 454.924 376.496 451.298 379.119 448.481Z" class="outlines"/>
    <path fill-rule="evenodd" clip-rule="evenodd" d="M442.659 154.27C482.645 154.27 532.727 199.901 547.384 219.319C559.708 235.644 557.964 319.748 557.964 369.639C557.964 380.073 553.249 399.821 551.538 409.802C545.266 446.376 517.94 477.05 463.857 477.05C419.82 477.05 385.931 463.096 353.159 427.407C345.683 419.265 309.17 448.413 301.703 437.916C282.198 437.916 265.889 255.607 304.184 200.925C342.478 146.242 402.673 154.27 442.659 154.27Z" class="main_filling"/>
    <path fill-rule="evenodd" clip-rule="evenodd" d="M322.476 167.111C345.582 146.082 376.364 135.965 407.42 136.712C423.505 137.099 439.533 140.164 454.723 145.412C462.322 148.047 469.681 151.485 476.716 155.374C479.251 156.772 481.588 158.411 483.838 160.15L484.399 160.587H484.406C490.441 162.757 495.829 166.653 500.716 171.211C510.512 170.429 520.385 171.31 529.857 174.332C543.04 178.545 555.244 186.259 563.815 197.214C573.798 209.968 577.116 225.438 575.932 241.408L575.714 244.121C574.543 258.228 572.445 276.374 560.871 285.643C559.991 286.348 559.019 286.883 558.012 287.207C565.469 299.987 571.589 314.176 575.251 328.505C589.23 383.238 578.484 440.317 561.674 493.07C560.293 497.416 553.723 500.305 550.378 496.057C544.406 488.462 535.73 482.671 525.969 481.586C519.948 480.917 513.955 482.129 508.265 479.395C506.033 478.317 503.878 476.556 502.329 474.414C492.723 478.057 482.378 479.776 472.117 479.353C455.279 478.662 437.279 472.829 425.695 460.035C423.836 457.982 423.365 455.676 423.793 453.598C425.246 453.079 426.737 452.693 428.274 452.452C442.964 461.113 459.157 466.9 476.56 467.264C486.615 467.474 496.424 466.067 504.577 459.785C506.341 458.426 507.964 456.92 509.464 455.303C526.511 444.332 538.53 425.699 544.244 405.74C549.568 387.127 548.913 367.746 547.082 348.654L546.116 338.579C544.708 323.792 543.402 308.961 543.036 294.111L543.146 294.106V294.106C546.746 293.873 546.772 288.235 543.146 288.47C533.767 289.077 524.458 287.538 515.107 288.208C515.029 283.786 514.711 279.384 513.412 275.119C512.67 272.682 508.429 272.201 507.979 275.119C507.378 279.022 507.158 282.903 507.093 286.823C493.099 286.637 479.119 285.459 465.123 285.943C462.541 283.189 461.719 278.305 460.512 274.907C460.336 274.407 460.16 273.913 459.976 273.413C458.915 278.269 457.411 283.018 455.432 287.667L452 287.678C432.524 287.77 412.653 288.352 393.636 292.398C392.314 291.383 391.527 289.612 391.315 288.003C389.935 277.538 387.966 267.35 384.477 257.376L383.978 255.969C383.937 255.852 383.894 255.728 383.849 255.598C381.278 259.749 378.21 263.619 374.865 267.223C372.893 269.347 370.825 271.378 368.703 273.351C366.642 275.641 364.512 277.896 362.447 280.193C362.528 280.61 362.598 281.034 362.655 281.466C363.287 286.232 363.353 291.066 362.89 295.85C362.053 304.499 359.612 312.834 355.691 320.544L355.567 321.316C354.972 324.929 354.125 328.663 352.146 331.384C354.615 334.151 356.517 337.457 357.62 341.129C358.602 344.399 354.08 347.232 351.735 344.557C349.872 342.431 347.803 340.672 345.529 339.269C345.386 339.464 345.126 339.559 344.836 339.397C338.505 335.881 327.751 336.945 321.427 340.256C313.561 344.371 310.491 352.817 311.364 361.377C312.202 369.556 315.779 379.117 322.716 383.308C325.899 385.232 328.378 385.394 331.758 384.471C332.839 384.177 334.179 383.276 334.754 382.829L335.32 382.375C337.536 380.623 339.6 379.423 342.216 379.377C344.891 378.542 347.58 379.7 348.604 382.507L348.667 382.688C349.146 384.118 350.019 385.915 349.829 388.099C349.631 390.438 348.561 392.565 346.962 394.277C346.688 394.573 346.392 394.869 346.089 395.144C373.624 424.965 377.16 471.434 363.04 508.688C362.427 510.323 361.772 511.936 361.089 513.535C358.73 519.016 349.646 517.318 348.491 511.887C348.146 510.259 347.765 508.639 347.35 507.033C346.586 504.064 345.711 501.124 344.725 498.226L344.35 497.142C343.512 494.746 342.73 492.33 341.885 489.935L341.8 489.661C341.769 489.552 341.734 489.427 341.695 489.286L340.265 492.407V492.407L335.92 501.826C333.887 506.222 327.427 503.833 327.186 499.597L327.181 499.452C327.16 498.67 327.131 497.895 327.082 497.127C326.772 491.372 325.779 485.778 324.202 480.304L323.633 481.012C315.158 491.493 305.212 501.317 291.568 503.736C288.146 504.342 284.272 500.763 286.624 497.304C287.596 495.873 288.533 494.408 289.42 492.922C288.653 492.562 287.927 492.189 287.258 491.808C282.082 488.899 277.772 484.756 274.209 480.057C266.653 470.096 263.948 457.556 263.286 445.283C262.582 432.313 263.723 418.639 267.265 406.127C268.8 400.717 270.878 395.524 273.279 390.487C273.11 390.036 272.948 389.585 272.786 389.135C270.195 381.906 268.068 374.516 266.3 367.041C262.737 351.951 260.822 336.381 260.589 320.875C260.167 293.097 264.955 264.875 275.047 238.97C285.469 212.255 301.146 186.52 322.476 167.111ZM309.498 409.981C307.584 406.966 302.795 409.683 304.572 412.718L304.638 412.827C307.674 417.61 309.096 423.049 310.843 428.382C311.962 431.813 317.406 430.348 316.272 426.882L315.897 425.724C314.159 420.316 312.574 414.82 309.498 409.981ZM326.167 352.437L327.438 351.821C331.449 349.907 334.963 348.603 339.702 350.274C346.047 352.507 352.843 359.616 348.554 366.513C346.976 369.056 344.174 370.071 341.286 369.472C336.419 368.462 335.163 364.077 332.692 360.477L332.267 359.868C330.761 357.69 328.857 354.679 326.35 353.825C325.779 353.628 325.54 352.74 326.167 352.437ZM329.743 206L330.153 205.633C332.878 203.224 328.878 199.25 326.167 201.646C313.758 212.615 309.448 229.783 303.012 244.416C301.568 247.706 306.42 250.58 307.878 247.262C314.018 233.299 318.093 216.597 329.743 206V206ZM478.857 201.202C475.615 199.74 472.778 204.46 475.895 206.015L476.012 206.07C486.969 211.023 491.631 222.238 496.096 232.651C497.519 235.976 502.371 233.109 500.962 229.812L500.157 227.943C495.498 217.213 490.064 206.275 478.857 201.202ZM496.033 194.425C492.596 193.234 491.124 198.673 494.533 199.863C503.822 203.097 510.195 210.072 515.568 218.046C517.582 221.034 522.462 218.216 520.427 215.2C514.188 205.943 506.779 198.173 496.033 194.425Z" class="outlines"/>
    <path fill-rule="evenodd" clip-rule="evenodd" d="M477.174 427.58C472.44 425.648 468.216 422.426 465.128 418.309C464.054 416.878 463.776 415.367 464.001 413.984C464.255 412.43 465.174 411.021 466.427 410.077C467.685 409.129 469.257 408.661 470.778 408.9C472.099 409.107 473.415 409.83 474.456 411.331L474.673 411.632C476.509 414.116 478.902 416.155 481.628 417.469C484.255 418.736 487.193 419.327 490.234 418.983C496.026 418.328 500.017 415.195 504.26 410.94C504.786 410.403 505.312 409.849 505.841 409.286C506.175 408.776 506.638 408.448 507.153 408.276C507.724 408.085 508.371 408.095 508.962 408.302C509.533 408.501 510.044 408.879 510.386 409.382C510.711 409.86 510.896 410.45 510.836 411.129C510.447 415.538 508.143 419.474 504.87 422.564C501.234 425.996 496.415 428.37 491.878 429.203C486.879 430.12 481.786 429.463 477.174 427.58V427.58ZM494.236 359.554C499.554 362.788 507.657 370.328 501.936 378.345C495.202 385.414 485.506 377.309 480.729 373.644C476.299 370.803 471.321 378.109 475.431 381.426C509.955 406.996 523.966 360.4 496.926 355.752C493.948 355.24 492.843 358.554 494.236 359.554ZM432.369 329.81C432.956 322.514 444.064 320.857 445.169 328.077C446.158 334.544 444.994 340.485 442.082 346.308C439.299 351.87 432.306 349.275 431.777 344.21C431.068 337.42 432.003 334.348 432.369 329.81ZM516.921 326.58C518.469 324.551 520.705 323.166 523.384 323.948C531.754 326.395 529.287 338.282 526.348 344.068C524.75 347.21 519.588 348.007 517.255 345.24C513.452 340.729 511.631 331.719 516.465 327.275C516.596 327.045 516.742 326.814 516.921 326.58ZM441.964 297.885L443.286 297.653C447.376 296.945 452.461 296.266 455.355 299.555C456.889 301.299 457.417 304.541 455.355 306.211C451.726 309.149 447.715 308.01 443.367 308.259C439.784 308.465 436.34 309.058 432.889 310.045C425.317 312.21 419.148 316.162 412.681 320.502C411.832 321.071 410.966 319.985 411.371 319.192C415.104 311.877 422.338 305.868 429.585 302.205C433.452 300.25 437.685 298.629 441.964 297.885ZM509.291 294.608L510.303 294.815C521.315 297.118 535.623 301.718 540.837 312.538C541.036 314.069 540.826 314.396 540.655 314.611L540.599 314.682C540.458 314.865 540.346 315.117 539.683 315.325C539.499 315.282 539.313 315.235 539.125 315.186C536.735 314.559 534.844 313.696 533.013 312.8L531.027 311.822C528.724 310.692 526.401 309.603 523.938 308.8C518.683 307.085 513.278 305.877 507.789 305.232C506.599 305.092 505.454 304.691 504.55 304.002C503.692 303.349 503.037 302.444 502.738 301.242C502.351 299.685 502.462 298.507 503.297 297.103C503.924 296.049 504.822 295.318 505.853 294.898C506.905 294.47 508.102 294.369 509.291 294.608Z" class="outlines"/>
</svg>
