<svg width="1651" height="1665" viewBox="0 0 1651 1665" fill="none" xmlns="http://www.w3.org/2000/svg">
    <style>
    .outlines {
        fill: #232526;
    }

    .main_filling {
        fill: #f9fafb;
    }

    @media (prefers-color-scheme: dark) {
    .outlines {
        fill: #ff8000;
    }

    .main_filling {
        fill: #f9fafb;
        }
    }
    </style>
    <path fill-rule="evenodd" clip-rule="evenodd" d="M1610.53 1356.74C1585.58 1676.76 1150.07 1722.71 1063.13 1414.36L1063.08 1414.38C1062.77 1413.18 1062.12 1410.78 1061.77 1409.59L1061.82 1409.58C1054.11 1379.37 1051.23 1346.68 1053.42 1315.03L1053.43 1315.03C1057.6 1249.71 1085.41 1184.41 1130.04 1136.7L1130.05 1136.71C1142.48 1123.22 1156.16 1111.08 1170.75 1100.33C1198.33 1183.58 1238.32 1258.02 1289 1319.93L1287.03 1322.36C1289.48 1323.71 1291.9 1325.06 1294.33 1326.42C1295.17 1327.44 1296.08 1328.58 1296.91 1329.63C1293.53 1338.27 1300.71 1346.66 1309.2 1348.32C1306.62 1354.4 1312.95 1356.81 1316.75 1357.9C1329.28 1360.77 1344 1361.39 1353.49 1354.37C1365.74 1343.15 1361.44 1321.02 1348.2 1312.61C1348.25 1312.47 1348.3 1312.32 1348.35 1312.18C1346.57 1311.99 1344.97 1311.33 1343.65 1310.26C1337.03 1307.69 1329.3 1307.72 1322.81 1310.59C1278.77 1238.97 1234.61 1161.13 1210.17 1076.28C1220.49 1071.12 1231.22 1066.55 1242.12 1062.72L1242.12 1062.71C1242.41 1062.61 1243.29 1062.31 1243.57 1062.21L1243.57 1062.21C1253.68 1058.73 1264.1 1055.81 1274.57 1053.55L1274.57 1053.55C1275.5 1053.36 1277.42 1052.95 1278.35 1052.75L1278.35 1052.77C1297.03 1049 1316.49 1047.22 1335.86 1047.5L1335.87 1047.5C1336.59 1047.51 1339.35 1047.57 1340.24 1047.58L1340.24 1047.6C1346.83 1047.78 1353.6 1048.27 1360.21 1048.91C1360.15 1049.15 1360.04 1049.47 1359.92 1049.84C1360.46 1049.86 1360.98 1049.95 1361.5 1050.07C1361.57 1049.74 1361.65 1049.41 1361.73 1049.08C1366.95 1049.67 1372.22 1050.38 1377.4 1051.26L1377.4 1051.26L1381.11 1051.9L1381.11 1051.92C1447.65 1063.67 1510.34 1103.18 1551.17 1157.3L1551.17 1157.3C1568.41 1179.78 1582.26 1204.82 1592.38 1231.79L1592.38 1231.79L1594.01 1236.2L1594 1236.2C1607.6 1274.13 1613.29 1315.76 1610.46 1356.74L1610.53 1356.74ZM1134.8 936.621C1034.76 1031.94 923.804 1120.61 839.112 1230.75L823.275 1221.18L824.874 1220.88C819.58 1220.35 814.687 1215.4 810.767 1212.18C819.21 1212.77 821.898 1214.34 826.928 1204.69C844.553 1173 859.753 1140.66 878.758 1109.37C894.307 1081.79 909.868 1054.47 925.408 1026.6C933.618 1014.6 947.339 982.644 924.726 966.576C983.972 939.527 1052.23 907.034 1115.51 867.619C1120.63 890.789 1128.61 913.201 1135.96 935.538L1134.8 936.621ZM794.867 768.99C786.388 761.19 777.054 753.661 772.797 742.35C785.895 744.507 798.853 745.751 813.318 745.988C814.144 745.988 814.905 745.213 814.915 744.349C815.21 727.666 815.186 709.302 813.677 691.473C820.788 695 826.5 690.975 832.939 687.52C839.683 692.561 846.648 691.067 854.891 687.521C854.969 687.497 888.196 675.182 888.271 675.17C895.68 672.85 898.86 670.641 900.725 665.928C901.684 666.184 903.617 666.69 904.575 666.936C912.531 678.744 1028 715.407 1038.26 701.81C1049 706.37 1061.84 702.68 1073.21 701.866C1082.09 702.613 1091.12 704.612 1099.99 703.487C1101.75 712.688 1103.52 721.892 1105.3 731.086C1081.46 765.849 1077.91 781.594 1084.7 823.361C1086.17 832.003 1089.02 834.905 1099.65 836.162C1036.47 870.77 972.939 903.936 910.552 940.943C919.378 920.024 928.151 898.704 936.457 877.797C939.405 871.377 943.35 861.943 943.665 853.157C946.106 820.533 844.34 790.615 804.473 779.816C803.345 775.173 798.227 772.436 794.867 768.99V768.99ZM1119.41 828.792C1119.87 827.998 1121.67 824.211 1122.11 823.335C1123.13 825.262 1125.13 828.832 1126.4 830.57C1123.91 831.463 1117.82 834.797 1115.41 836.072L1119.41 828.792ZM765.012 994.901C763.939 999.248 762.964 1003.38 762.023 1007.35C738.453 1019.64 715.012 1030.87 691.363 1042.92L692.111 1044.3C678.729 1052.14 664.168 1056.88 651.023 1065.01C640.747 1020.67 632.913 975.744 627.09 930.467C632.516 930.267 637.91 929.758 643.393 928.639C648.865 928.775 653.992 928.17 658.348 926.731C688.762 949.189 720.946 969.976 754.022 988.563C757.698 991.012 761.529 991.808 765.682 992.187L765.012 994.901ZM761.192 1331.15C757.503 1330.78 754.161 1334.65 750.608 1335.92C739.581 1341.63 728.81 1347.44 718.207 1353.35C714.535 1332 705.351 1312.23 704.723 1290.15L704.37 1290.82C703.036 1288.23 700.323 1283.6 698.762 1281.12C701.373 1281.73 706.311 1282.86 708.886 1283.44L708.597 1283.84C711.934 1283.27 716.486 1285.39 719.643 1285.8C731.09 1287.96 742.784 1290.18 754.393 1291.87C751.408 1296.53 751.568 1296.78 757.097 1296.79C753.935 1303.14 753.201 1310.82 753.504 1317.5C753.593 1318.72 754.084 1318.47 754.702 1318.95C755.927 1322.44 758.328 1324.84 762.408 1326.37L761.192 1331.15ZM660.341 1088.4L659.306 1085.16L660.592 1084.72C660.388 1084.22 659.583 1083.93 658.953 1084.06L658.836 1083.69C690.562 1070.14 721.613 1054.9 752.906 1040.46C734.53 1093.54 698.012 1139.42 688.843 1195.71L684.007 1196.03C673.235 1159.63 664.426 1122.36 655.906 1086.31L657.422 1085.8C657.213 1087.38 658.787 1088.77 660.341 1088.4V1088.4ZM683.179 1351.24C679.735 1352.41 675.569 1352.83 671.733 1352.44C655.051 1349.22 638.055 1346.6 621.476 1344C630.906 1253.49 600.743 1161.28 539.25 1094.87C562.117 1074.06 586.377 1052.14 612.296 1028.86C636.516 1146.46 664.047 1262.55 685.335 1350.52L683.179 1351.24ZM580.547 1315.59C580.397 1322.8 579.944 1330.09 579.286 1337.28C510.579 1326.54 436.742 1315.37 362.549 1306.48L365.855 1302.92C370.014 1297.8 363.018 1289.4 358.88 1287.06C351.111 1282.43 342.406 1284.17 333.81 1288.27L330.962 1284.28C346.832 1269.9 362.73 1255.65 378.531 1241.2C396.89 1249.03 415.475 1255.79 433.996 1262.97L433.271 1267.42C437.41 1267.44 441.578 1266.9 445.539 1267.3C491.296 1284.38 539.581 1300.81 580.588 1313.72L580.547 1315.59ZM576.033 1360.86C573.237 1376.5 569.087 1391.93 563.791 1406.83L563.753 1406.81C505.964 1589.83 255.334 1652.07 125.26 1506.55C-20.8394 1363.4 50.4474 1079.19 255.13 1036.15C266.847 1057.24 276.689 1078.5 287.199 1099.86C292.253 1112.2 301.376 1123.17 303.445 1136.69C304.809 1141.66 306.086 1146.62 307.315 1151.59C307.515 1151.68 307.716 1151.77 307.919 1151.86C307.904 1151.8 307.889 1151.73 307.874 1151.67L312.399 1149.79C321.445 1165.36 333.011 1192.64 343.311 1209.24C356.652 1229.33 356.007 1227.87 365.94 1229.02C354.134 1240.75 342.146 1252.66 330.34 1264.37C319.868 1274.55 309.976 1287.5 294.218 1290.4C289.094 1290.87 284.746 1292.51 281.701 1295.97C280.989 1298.12 279.925 1300.14 278.717 1302.06C273.311 1322.41 301.152 1338.23 315.68 1321C403.142 1334.41 488.979 1344.54 576.481 1358.36L576.033 1360.86ZM388.667 999.476C423.692 998.986 466.058 1003.25 512.403 1000.66C515.163 999.921 518.331 999.374 520.447 997.836C532.8 1004.12 545.353 1010.6 558.054 1016.47C557.076 1021.98 563.035 1025.27 564.932 1030.09C549.435 1044.68 533.487 1058.95 518.781 1074.56C481.654 1040.86 436.378 1016.52 388.012 1004.37L388.667 999.476ZM1646.92 1290.82C1629.24 1146.04 1501.68 1017.34 1355.02 1009.79L1354.28 1005C1361.27 1002.27 1367.41 996.664 1372.53 988.319C1326.17 983.673 1278.31 989.147 1235.66 1004.86C1227.74 1007.93 1219.15 1010.98 1210.37 1009.83C1209.1 1007.31 1207.56 1004.68 1205.86 1002.03C1205.79 1002.01 1205.72 1002 1205.64 1001.97C1203.05 1001.06 1200.57 999.795 1199.3 997.221C1198.14 994.842 1198.18 991.979 1197.69 989.419C1197.6 988.955 1197.72 988.557 1197.94 988.25C1193.87 981.253 1190.09 974.176 1181.38 973.392L1184.24 970.328C1185.45 968.932 1184.73 966.458 1182.67 966.033C1171.01 923.886 1156.76 883.507 1145.69 841.094L1142.14 842.117C1141.68 840.962 1138.87 833.962 1138.36 832.667L1144.64 837.033L1143.89 834.126C1198.97 855.53 1252.44 864.962 1303.81 855.994L1303.84 855.844C1309.91 854.003 1315.61 851.383 1320.32 848.042C1323.3 848.262 1324.09 846.487 1325.54 841.617C1328.57 831.627 1331.97 821.56 1335.2 811.813C1353.71 751.301 1379.2 693.184 1395.98 632.991C1396.42 632.629 1397.95 631.165 1397.64 631.085C1331.55 592.504 1172.48 604.219 1086.23 617.156C1087.72 640.443 1092.18 663.242 1096.49 685.403C1065.17 663.163 1035.24 636.992 997.635 625.829L1006.49 624.025C1007.93 623.786 1008.86 620.983 1007.34 620.393L1005.6 619.769C1008.84 594.625 980.526 591.669 964.68 604.045C961.214 606.913 957.347 616.792 963.766 618.962L963.481 623.779C958.203 624.574 951.437 627.552 945.792 630.442C947.06 622.76 944.227 612.24 935.269 619.482C806.866 560.708 862.57 500.337 852.142 405.044C851.476 376.432 848.033 374.633 820.831 361.813C805.136 352.228 788.263 345.516 772.01 337.088L773.165 335.934C771.665 332.936 768.418 326.447 766.629 322.873L765.964 323.07C763.489 317.092 761.583 311.033 760.46 304.74C759.807 297.43 756.389 292.998 748.245 291.601C727.767 287.289 707.284 290.591 699.077 312.228L698.975 312.245C696.983 317.962 693.141 323.799 688.355 326.585L691.317 329.234C691.194 329.462 691.07 329.689 690.945 329.916L686.296 328.529C686.307 328.277 686.335 327.927 686.357 327.673C683.745 328.861 680.65 329.754 677.484 329.751C578.321 312.911 548.627 390.506 563.368 476.083C557.527 498.166 552.366 520.287 547.039 542.267C531.493 615.635 484.814 661.236 468.915 732.158C464.722 749.394 447.317 781.091 462.598 792.145C459.978 812.402 468.479 834.164 483.641 849.396C460.733 850.038 428.812 887.405 455.829 905.789C465.659 910.099 477.467 909.602 488.19 911.461L487.363 914.215C487.803 916.66 491.914 916.502 493.897 916.261C493.892 922.125 493.147 928.525 495.541 933.718C495.805 936.681 497.02 937.648 497.624 937.445C501.581 937.573 505.594 937.082 509.592 937.315C515.642 947.065 524.697 953.222 534.061 948.243C539.758 945.276 539.66 937.349 545.051 933.333C559.164 924.47 575.198 925.927 590.114 926.164C596.295 946.913 599.081 967.972 603.943 988.917C597.569 996.923 590.275 1005.05 581.905 1013.55L580.813 1013.3L579.706 1013.64C573.345 1007.95 566.283 998.238 557.256 1001.78C481.896 933.542 360.636 944.033 267.463 944.701C225.32 945.2 181.805 945.66 139.068 947.605C126.876 947.888 119.011 948.79 118.591 957.961C110.532 958.312 104.547 960.293 96.9661 960.881C92.231 961.132 89.7638 961.511 89.6019 962.86C90.518 975.95 91.0332 989.646 95.5959 1001.87C100.372 1013.97 114.942 1013.96 126.066 1009.49C130.239 1007.7 126.641 1002.53 126.519 999.369C123.981 989.006 122.397 978.402 121.919 967.507C127.178 967.918 131.779 968.165 137.838 968.246L137.94 971.054C148.596 971.47 193.883 972.268 204.926 970.726C200.396 976.205 198.642 981.83 202.992 988C214.481 1000.8 235.664 994.975 250.752 996.905L250.985 1001.81C13.3364 1046.05 -77.1449 1368.59 95.2283 1534.64C263.791 1717.85 586.074 1608.76 618.653 1364.95C632.678 1367.3 646.772 1369.17 660.761 1372.14C652.5 1379.66 640.639 1383.47 632.532 1390.67C618.469 1404.36 614.301 1413.36 620.747 1420.43L620.867 1420.33C626.031 1423.2 632.331 1422.96 638.091 1421C641.74 1421.5 645.527 1422.07 649.155 1422.07C655.054 1421.95 660.63 1420.47 662.189 1415.81C662.361 1414.04 658.968 1411.02 657.315 1409.54C666.41 1403.19 675.554 1395.89 685.991 1389.01C688.547 1387.73 689.75 1386.47 690.644 1384.22C735.523 1400.28 782.509 1365.95 811.121 1340.45C811.087 1340.6 811.055 1340.75 811.021 1340.9C814.496 1337.48 818.149 1334.15 822.111 1333.56C823.264 1332.39 824.551 1331.29 826.001 1330.27L847.152 1331.02C852.853 1331.22 860.449 1332.47 865.627 1330.55C877.618 1324.78 872.49 1307.09 866.393 1298.94C876.001 1298.37 885.754 1298.53 895.299 1297.24C919.758 1294.37 912.806 1269.88 893.195 1264.34C887.76 1257.33 863.614 1249.91 862.952 1241.1C954.007 1144.33 1052.39 1052.12 1143.58 960.681C1146.58 970.534 1147.21 981.05 1147.31 991.005C1147.32 1014.95 1153.67 1038.65 1159.44 1061.52C948.705 1194.68 976.578 1542.8 1208.36 1637.44C1435.45 1741.5 1682.14 1528.42 1646.92 1290.82V1290.82Z" class="main_filling"/>
    <path d="M695.023 308.141C695.307 307.501 696.295 307.975 696.131 308.601C694.746 315.033 692.62 322.348 686.797 326.145C683.899 360.107 738.88 371.451 762.088 354.609C769.183 350.191 771.036 346.279 771.2 338.243C766.317 332.258 767.62 324.116 765.606 317.129L774.187 334.275C789.442 342.019 805.3 348.458 819.892 357.421C847.501 370.481 851.9 372.759 852.614 402.676C861.992 507.999 810.011 555.976 933.027 614.471C941.261 608.708 946.947 616.039 946.501 624.212C951.156 621.944 955.832 620.126 961.038 619.187C952.593 616.606 955.889 604.369 961.122 599.96C978.228 586.954 1007.62 589.336 1006.17 615.907C1010.11 617.317 1008.9 623.509 1004.98 624.309C1037.24 635.553 1063.55 658.056 1090.86 677.605C1086.77 656.487 1082.92 635.227 1081.66 613.821C1081.34 613.708 1081.28 613.215 1081.62 613.068C1081.05 609.526 1082.48 608.97 1083.4 612.633C1147.93 600.988 1214.18 600.552 1279.61 601.427C1314.88 601.87 1350.38 606.571 1383.18 619.881C1387.31 622.02 1403.54 625.776 1396.29 632.119C1394.92 640.732 1391.8 649.065 1389 657.353C1371.16 707.036 1353.25 756.684 1336.76 806.822C1333.23 817.449 1329.66 828.069 1326.34 838.763C1325.14 842.643 1324.14 848.331 1319.1 848.37C1314.49 851.52 1309.35 853.884 1304.03 855.599C1293.86 914.023 1246.33 957.257 1204.18 995.866C1206.26 998.91 1208.22 1002.06 1209.94 1005.33C1221.86 1006.38 1232.64 999.527 1243.74 996.678C1284.33 983.492 1328.35 979.488 1370.79 983.701C1372.46 983.868 1373.86 985.574 1372.82 987.182C1368.18 994.833 1361.86 1001.78 1353.18 1005.16C1473.28 1012.96 1580.7 1095.96 1624.46 1205.78C1734.08 1464.38 1478.26 1754.65 1205.38 1637.58C970.322 1536.79 943.284 1198.46 1154.6 1058.28C1149.96 1040.02 1145.26 1021.45 1143.43 1002.68C1142.26 989.56 1143.61 976.21 1140.26 963.321C1049.48 1052.75 958.701 1142.21 869.012 1232.69L865.954 1235.8C865.113 1236.66 863.487 1237.84 863.431 1239.07C865.205 1245.91 888.166 1254.28 892.691 1260.08C914.307 1267.29 920.93 1293.63 893.65 1297.55C885.404 1298.69 877.029 1298.67 868.725 1299.07C874.439 1308.29 876.617 1325.55 864.542 1330.71C858.6 1332.88 851.227 1331.57 845.062 1331.35C838.305 1331.12 831.549 1330.88 824.792 1330.64C809.542 1342.14 814.098 1363.85 809.931 1380.34C804.974 1417.43 779.271 1441.93 740.711 1441.94C698.26 1444.92 654.364 1442.64 613.214 1431.46C613.073 1431.68 612.789 1431.87 612.515 1431.77C607.262 1428.57 612.946 1421.77 616.04 1418.89C607.465 1408.42 621.203 1394 628.814 1386.72C635.6 1380.3 645.451 1377.13 652.929 1371.36C641.597 1369.09 630.107 1367.56 618.703 1365.66C578.765 1611.75 269.184 1718.64 91.4688 1534.25C-80.9619 1362.59 4.54128 1047.49 248.482 997.226C232.598 995.501 210.432 1000.91 199.034 987.387C195.76 982.924 194.717 976.224 197.867 971.596C191.959 972.205 92.8458 972.355 135.8 968.58C131.378 968.516 126.966 968.365 122.569 968.042C122.838 972.431 123.26 976.815 123.876 981.17C124.934 988.696 126.862 995.959 128.422 1003.38C129.008 1006.16 127.602 1008.91 124.756 1009.73C112.254 1014.42 97.313 1014.63 91.2891 1000.65C86.5535 988.011 86.0464 974.055 85.1094 960.716C85.3305 954.866 96.2202 957.086 100.451 955.521C105.103 954.54 109.727 953.93 114.422 953.513C116.29 941.049 133.805 943.65 143.386 942.672C194.734 940.575 246.149 940.375 297.537 939.676C385.803 938.365 485.676 935.498 555.871 996.868C565.233 994.194 572.359 1003.11 578.346 1008.69C578.601 1008.62 578.858 1008.61 579.106 1008.67C586.147 1001.47 592.928 994.022 599.251 986.15C594.701 966.305 591.907 946.007 586.232 926.446C572.617 926.059 556.374 925.497 544.608 933.117C539.424 937.294 539.597 945.29 533.117 948.341C522.297 954.119 511.92 946.485 506.206 937.606C502.615 937.49 499.091 937.918 495.524 937.777C492.467 937.608 491.524 935.015 491.128 932.254C488.989 927.332 489.283 921.934 489.367 916.753C486.508 916.926 482.017 914.568 482.982 911.353C472.84 909.871 462.15 910.074 452.667 905.843C425.27 889.046 451.924 849.579 476.738 845.531C463.424 830.808 455.972 810.818 457.987 791.084C442.761 778.803 460.666 745.291 464.497 729.427C470.738 700.719 483.813 674.221 496.669 647.924C518.441 605.845 532.418 585.597 542.611 539.582C547.932 517.628 553.069 495.615 558.837 473.773C556.169 453.745 554.887 448.242 555.827 428.049C558.001 356.504 592.915 313.552 675.826 325.143C686.329 324.438 691.935 317.428 695.023 308.141ZM1605.56 1454.59C1710.1 1208 1461.79 932.255 1204.38 1052.84C1205.64 1057.22 1206.91 1061.59 1208.22 1065.94C1353.19 992.225 1537.57 1070.67 1594.11 1218.83C1692.47 1450.82 1463.25 1711.57 1218.26 1606.54C1011.69 1519 983.161 1220.81 1164.31 1092.35C1162.91 1087.88 1161.55 1083.38 1160.25 1078.88C1006.84 1184.21 987.381 1422.83 1118.53 1553.01C1265.63 1709.9 1529.55 1651.24 1605.56 1454.59ZM1127.91 1138.38C1083.9 1186.66 1057.57 1250.35 1053.76 1315.38C1131.92 1325.29 1212.4 1316.37 1289.32 1335.53C1291.49 1336.26 1290.57 1339.17 1288.39 1338.85C1286.25 1338.52 1284.12 1338.14 1281.99 1337.73C1275.37 1340.5 1268.4 1342.48 1261.58 1344.74C1202.8 1364.14 1144.07 1383.74 1085.08 1402.54C1077.75 1404.89 1070.37 1407.54 1062.87 1409.27C1150.81 1717.8 1576.1 1673.4 1605.78 1357.21C1530.54 1361.07 1454.98 1359.04 1380.07 1350.77C1436.85 1394.26 1495.88 1434.87 1553.93 1476.6C1554.97 1477.54 1553.64 1479.01 1552.49 1478.44C1491.69 1439.11 1433.54 1395.31 1376.85 1350.38C1370.56 1349.6 1364.29 1348.74 1358.04 1347.78C1357.02 1349.7 1355.76 1351.48 1354.25 1353.03C1379.23 1435.26 1396.95 1520.03 1405.67 1605.44C1405.76 1606.75 1403.57 1607.04 1403.34 1605.75C1391.14 1521.08 1375.04 1436.98 1352.95 1354.23C1342.12 1362.12 1326.73 1360.96 1314.21 1358.18C1321.82 1443.81 1328.44 1529.65 1333.55 1615.44C1333.43 1617.33 1330.45 1617.94 1330.03 1615.91C1322.83 1530.05 1317.82 1443.89 1313.09 1357.84C1308.33 1356.36 1303.05 1353.11 1304.26 1347.86C1299.89 1346.51 1296.07 1343.57 1293.83 1339.86C1286.69 1350.42 1279.47 1360.92 1272.41 1371.53C1281.78 1364.09 1291.12 1356.59 1300.77 1349.53C1301.78 1348.79 1302.98 1349.69 1303.21 1350.7C1293.26 1361.95 1278.06 1370.02 1266.61 1380.32C1229.95 1436.23 1198.2 1495.25 1172.17 1556.67C1171.09 1559.24 1166.78 1558.14 1167.86 1555.5C1191.56 1496.65 1221.59 1440.36 1256.96 1387.49C1209.06 1424.01 1160.41 1462.6 1112.5 1497.61C1150.66 1467.11 1189.06 1436.89 1227.5 1406.74C1239.14 1397.63 1250.77 1388.52 1262.41 1379.42C1271.08 1366.76 1280.16 1354.36 1289.79 1342.43C1229.03 1380.78 1168.65 1420.57 1106.49 1456.38C1105.3 1456.64 1104.69 1455.37 1105.38 1454.5C1166.2 1413.75 1231.25 1377.62 1293.06 1338.43C1291.56 1335.29 1291.12 1331.7 1292.17 1328.02C1291.68 1327.41 1291.19 1326.8 1290.7 1326.21C1222.86 1288.2 1149.71 1253.91 1078.71 1225.8C1144.86 1248.92 1208.84 1277.84 1270.24 1311.31C1222.76 1253.71 1174.42 1196.67 1127.91 1138.38ZM245.779 1018.89C22.2703 1070.91 -52.4284 1361.85 106.507 1520.03C249.149 1670.72 505.489 1615.2 579.817 1425.29C588.219 1404.96 594.32 1383.93 598.101 1362.39C592.536 1361.52 586.972 1360.65 581.402 1359.79C544.875 1578.18 276.352 1675.95 117.815 1509.38C-30.3841 1359.64 36.9318 1078.96 248.04 1027.74C247.037 1024.85 246.256 1021.91 245.779 1018.89ZM235.173 1041.55C41.8815 1101.31 -13.3693 1362.64 125.053 1502.69C259.516 1646.57 495.274 1587.48 558.544 1406.31C509.979 1401.94 461.206 1397.13 412.347 1395.57C407.09 1395.34 401.635 1395.39 396.438 1394.55C390.385 1390.98 401.533 1385.66 404.785 1389.09C404.934 1389.2 404.979 1389.35 404.949 1389.48C446.352 1389.43 487.685 1392.14 528.855 1396.34C534.25 1396.89 539.635 1397.53 545.016 1398.21C550.094 1399.21 555.769 1398.68 560.392 1401.13C565.241 1387.15 568.972 1372.84 571.585 1358.27C486.089 1344.82 400.118 1334.6 314.568 1321.5C296.991 1339.6 266.963 1320.72 274.918 1297.52C265.151 1288.34 273.136 1273.23 283.468 1268.07C288.54 1265.2 294.135 1263.76 299.818 1262.69C278.013 1189.08 255.332 1115.62 235.173 1041.55ZM805.014 1345.06C773.896 1371.52 732.721 1398.45 689.906 1385.07C688.6 1387.65 685.192 1388.79 682.887 1390.46C675.01 1396.19 667.117 1401.93 659.219 1407.63C662.047 1410.26 664.284 1413.9 661.146 1417.22C654.811 1424.09 644.861 1422.56 636.306 1421.39C630.869 1423.11 624.556 1423.59 619.24 1421.1C616.411 1423.45 613.398 1426.45 613.32 1430.24C613.743 1429.85 613.845 1430.17 613.695 1430.57C657.974 1433.8 702.641 1437.08 746.959 1432.88C785.489 1431.02 798.861 1400.99 802.013 1367.33C802.902 1360.36 803.315 1352.43 805.014 1345.06ZM683.354 1382.61C677.079 1380.59 663.439 1371.8 657.784 1373.73C649.907 1378.55 642.448 1384.04 633.819 1387.57C627.112 1393.92 620.356 1401.76 618.51 1410.96C617.967 1415.55 622.066 1416.71 625.815 1416.38C626.449 1415.5 628.197 1415.18 629.237 1415.73C631.512 1415.06 633.69 1413.99 635.784 1412.95C652.783 1404.68 668.868 1394.66 683.354 1382.61ZM1053.73 1315.78C1051.83 1347.09 1054.88 1379 1062.79 1408.97C1133.44 1383.34 1205.23 1360.67 1276.44 1336.58C1203.23 1321.11 1127.43 1328.04 1053.73 1315.78ZM322.671 1295.99C321.218 1304.48 322.299 1314.27 315.328 1320.72C430.898 1331.04 545.967 1347.83 660.257 1367.33C668.285 1369.39 675.558 1373.08 683.055 1376.46C729.065 1397.27 774.745 1364.05 808.332 1335.41C809.251 1333.54 810.344 1331.78 811.646 1330.17C794.489 1328.86 777.586 1330.64 760.559 1326.9C766.441 1333.1 753.772 1335.05 749.877 1336.9C739.384 1341.04 728.825 1345.02 718.213 1348.85C721.983 1383.3 688.863 1377.46 681.263 1350.87C678.928 1351.45 676.557 1351.63 674.144 1351.52C673.688 1352.1 672.96 1352.48 672.056 1352.35C659.362 1350.53 646.733 1348.15 634.079 1346.06C614.257 1343.03 594.534 1338.97 574.606 1336.82C574.62 1336.69 574.636 1336.54 574.646 1336.41C492.44 1324.19 410.332 1309.99 327.664 1301.57C324.728 1301.29 322.253 1299.1 322.701 1295.97C322.691 1295.98 322.681 1295.98 322.671 1295.99ZM594.558 924.174C608.848 998.764 628.824 1072.11 642.799 1146.77C656.313 1214.07 669.672 1281.56 689.613 1347.37C691.561 1353.58 692.933 1360.29 697.852 1365.04C702.915 1368.87 709.178 1369.49 712.191 1363.47C713.381 1359.32 712.243 1355.19 711.444 1350.95C706.694 1328.06 703.997 1304.41 698.341 1281.9C676.859 1277.8 673.302 1274.43 674.614 1252.61C675.137 1243.82 675.654 1234.94 677.357 1226.29C678.445 1221.13 680.304 1216.08 682.644 1211.23C682.743 1208.22 682.941 1205.22 683.234 1202.23C676.518 1202.31 676.769 1192.53 674.699 1187.88C673.254 1183.02 671.802 1178.16 670.382 1173.3C646.573 1092.8 628.63 1010.44 620.105 927.086C611.584 926.177 603.068 925.185 594.558 924.174ZM1377.52 1052.01C1367.22 1129.73 1356.84 1207.47 1351.08 1285.68C1385.17 1218.95 1422.77 1150.97 1467.85 1091.96C1428.22 1157.2 1388.65 1222.56 1354.78 1290.93C1353.13 1294.19 1351.58 1297.61 1349.9 1300.96C1349.6 1303.76 1349.74 1306.75 1349.02 1309.47C1357.44 1315.73 1361.93 1326.52 1361.14 1336.76C1366.21 1340.49 1371.28 1344.24 1376.34 1348.01C1385.46 1348.87 1394.57 1349.74 1403.7 1350.51C1470.95 1356.26 1538.59 1357.21 1606 1354.1C1608.8 1312.86 1602.98 1271.06 1588.86 1232.69C1512.21 1255.68 1436.41 1281.46 1361.67 1309.86C1359.7 1310.49 1358.37 1307.4 1360.26 1306.55C1434.8 1277.38 1511.23 1252.75 1588.73 1232.35C1578.52 1204.57 1564.07 1178.36 1546.08 1155.22C1486.68 1207.67 1424.97 1258.41 1359.73 1303.58C1352.88 1303.59 1366.46 1294.85 1368.01 1293.5C1428.74 1249.14 1487.54 1202.29 1545.73 1154.76C1504.62 1101.61 1444.02 1063.71 1377.52 1052.01ZM686.14 1348.87C686.328 1349.64 686.558 1350.41 686.818 1351.15C686.586 1350.39 686.36 1349.63 686.14 1348.87ZM1322.59 1345.29C1320.59 1347.01 1318.17 1348.1 1315.57 1348.63C1316.23 1348.84 1316.91 1349.02 1317.58 1349.2C1318.31 1347.64 1320.67 1346.95 1322.39 1346.42C1322.39 1346.04 1322.46 1345.65 1322.59 1345.29ZM608.737 1031.45C586.018 1051.87 563.349 1072.34 540.753 1092.9C565.41 1120.1 585.029 1151.13 599.148 1185.31C619.254 1233.69 627.1 1287.26 622.166 1339.76C638.209 1342.27 654.276 1344.78 670.201 1347.85C673.633 1348.12 677.111 1347.84 680.384 1346.74C655.072 1242.07 630.548 1136.98 608.737 1031.45ZM1361.08 1337.44C1360.78 1340.51 1360.01 1343.52 1358.72 1346.35C1363.69 1346.8 1368.64 1347.27 1373.6 1347.74C1369.41 1344.33 1365.24 1340.9 1361.08 1337.44ZM717.703 1286.13C714.609 1286.21 704.574 1281.1 705.183 1286.75C705.401 1307.67 714.081 1327.1 717.995 1347.37C727.776 1341.94 737.631 1336.66 747.571 1331.52C751.56 1329.94 755.01 1325.92 759.53 1326.54C755.635 1325.07 752.381 1322.64 750.717 1318.52C749.748 1317.96 749.048 1316.92 749.018 1315.4C748.908 1309.24 749.099 1302.76 751.441 1297.02C748.84 1296.94 747.052 1293.81 748.366 1291.62C738.102 1290.03 727.873 1288.2 717.703 1286.13ZM1350.36 1343.99C1350.01 1344.51 1349.64 1345.02 1349.25 1345.52C1349.35 1345.53 1349.45 1345.54 1349.56 1345.55C1349.87 1345.15 1350.17 1344.72 1350.43 1344.28C1350.41 1344.18 1350.38 1344.09 1350.36 1343.99ZM1351.59 1342C1351.41 1342.34 1351.21 1342.67 1351 1343C1351.02 1343.06 1351.03 1343.11 1351.05 1343.17C1351.25 1342.79 1351.42 1342.4 1351.59 1342ZM1312.75 1342.82C1326.6 1341.02 1324.27 1318.36 1301.53 1321.28C1301.38 1321.4 1301.23 1321.54 1301.09 1321.68C1302.44 1324.52 1304.34 1326.95 1305.96 1329.58C1309 1334.77 1301.22 1339.3 1297.7 1334.36C1297.9 1335.01 1298.16 1335.62 1298.47 1336.19C1298.71 1336 1298.9 1336.36 1298.63 1336.48C1301.31 1341.11 1307.08 1342.93 1312.38 1342.84C1312.1 1339.18 1312.52 1339.13 1312.75 1342.82ZM1334.08 1338.7C1334.05 1339.15 1334.08 1339.3 1334.13 1339.3C1334.2 1339.3 1334.34 1338.77 1334.24 1338.75C1334.25 1338.75 1334.19 1338.74 1334.08 1338.7ZM585.923 1316.45C585.739 1322.27 585.387 1328.06 584.875 1333.82C590.424 1334.7 595.974 1335.58 601.523 1336.48C601.966 1331.44 602.289 1326.37 602.482 1321.29C596.938 1319.76 591.423 1318.13 585.923 1316.45ZM1345.53 1329.09C1346.21 1319.6 1334.65 1312.9 1326.16 1315.88C1326.07 1315.97 1325.78 1316.48 1325.87 1316.65C1327.47 1321.01 1332.99 1324.69 1334.26 1330.07C1334.72 1332.02 1334.57 1333.83 1334.37 1335.74C1337.78 1333.05 1340.22 1326.8 1345.53 1329.09ZM442.667 1267.48C438.151 1267.56 433.63 1267.68 429.114 1267.83C399.943 1268.42 370.959 1272.26 341.868 1273.89C338.217 1277.18 334.252 1280.38 330.71 1283.89C339.186 1279.72 349.623 1277.54 358.065 1282.72C363.815 1285.85 371.208 1296.49 365.676 1302.46C435.671 1310.93 505.394 1321.39 575.038 1332.26C575.58 1326.01 575.922 1319.72 576.062 1313.38C538.902 1301.67 502.033 1289.03 465.376 1275.85C457.795 1273.1 450.223 1270.31 442.667 1267.48ZM600.892 994.024C597.898 997.486 594.187 1000.48 590.848 1003.61C521.703 1070.77 454.287 1139.66 385.738 1207.41C358.233 1233.12 334.142 1263.06 304.101 1285.85C301.413 1287.36 298.517 1288.58 295.522 1289.35C290.264 1290.49 283.892 1290.55 280.775 1295.62C270.485 1312.98 291.923 1332.66 308.746 1320.57C308.498 1320.59 307.899 1320.38 308.363 1320.19C312.873 1319.01 315.823 1312.87 316.66 1308.54C308.62 1312.81 304.621 1301.73 300.801 1296.64C298.71 1296.5 296.575 1297.08 294.323 1297.43C286.075 1297.14 292.128 1289.85 300.115 1292.25C304.048 1291.72 308.031 1294.51 311.195 1296.76C313.229 1298.09 315.796 1298.61 317.445 1300.4C317.545 1299.14 317.668 1297.88 317.877 1296.62C314.384 1295.64 312.333 1291.46 313.619 1288.13C314.101 1285.81 316.421 1283.9 318.891 1283.86C318.752 1283.89 318.618 1283.91 318.483 1283.93C318.691 1283.91 319.917 1283.73 319.866 1283.7C321.108 1283.81 322.744 1284.18 323.362 1285.29C416.946 1197.76 513.456 1113.09 607.605 1026.08C605.352 1015.39 603.117 1004.71 600.892 994.024ZM780.224 1305.12C773.479 1294.81 762.062 1299.16 758.19 1309.41C753.934 1327.38 789.28 1324.31 780.224 1305.12ZM1182.54 970.877C1179.26 971.703 1175.75 971.258 1172.38 971.386C1165.22 971.495 1158.13 972.99 1151.06 973.805C1152.42 987.105 1151.76 1000.56 1154.28 1013.77C1174.87 1125.64 1226.02 1231.13 1298.14 1319.7C1298.15 1319.69 1298.17 1319.69 1298.19 1319.69C1296.75 1313.32 1307.47 1313.76 1311.5 1314.67C1309.81 1312.03 1315.24 1309.26 1316.92 1307.84C1255.65 1231.69 1188.47 1076.15 1184 979.234C1184 978.521 1185.13 978.345 1185.28 979.063C1189.26 997.23 1193.88 1015.28 1198.84 1033.24C1241.27 1013.49 1287.27 1003.68 1334.24 1004.34C1336.59 1003.24 1338.79 1002.16 1340.6 1000.43C1342.25 999.63 1343.66 999.465 1345.3 999.032C1352.14 995.018 1360.83 993.782 1366.31 987.89C1328.3 984.477 1289.65 987.803 1252.83 997.691C1239.49 1002.21 1226.12 1006.6 1212.54 1010.34C1213.84 1012.37 1214.2 1015.27 1216.14 1016.7C1218.72 1018.9 1216.61 1022.62 1213.86 1023.44C1209.26 1024.79 1207.45 1020.22 1206.49 1016.83C1204.36 1009.24 1201.86 1001.65 1198 994.713C1193.43 986.415 1190.69 976.582 1182.54 970.877ZM1167.49 1102.24C1153.42 1112.8 1140.06 1124.99 1128.1 1138.17C1174.55 1190.86 1219.37 1245.16 1264.77 1298.81C1269.62 1304.58 1274.76 1310.21 1279.26 1316.25C1281.19 1317.31 1283.12 1318.35 1285.07 1319.36C1232.51 1255.06 1193.77 1180.4 1167.49 1102.24ZM833.654 1305.41C834.062 1306.29 834.266 1307.25 834.216 1308.18C835.54 1309.39 836.285 1311.29 836.02 1313.12C836.98 1314.64 837.31 1316.49 836.824 1318.15C843.586 1318.3 850.353 1318.23 857.129 1317.94C857.124 1316.4 857.119 1314.87 857.139 1313.33C857.164 1311.77 857.467 1309.5 857.438 1307.6C849.518 1306.79 841.593 1306 833.654 1305.41ZM1317.68 1311.21C1316.13 1312 1312.79 1312.29 1312.82 1314.3C1313.4 1314.21 1312.9 1314.88 1312.62 1314.91C1313.86 1315.19 1315.08 1315.6 1316.26 1316.1C1316.29 1314.46 1316.88 1312.59 1317.68 1311.21ZM516.091 1115.35C562.345 1169.03 587.142 1239.56 586.053 1310.42C591.572 1312.08 597.107 1313.7 602.661 1315.24C604.419 1239.09 576.757 1163.33 525.432 1106.83C522.317 1109.67 519.201 1112.51 516.091 1115.35ZM1335.49 1047.86C1315.22 1047.46 1294.96 1049.29 1275.37 1053.35C1286.62 1128.95 1299.5 1204.31 1313.62 1279.42C1313.76 1280.81 1311.61 1280.97 1311.24 1279.74C1295.7 1204.99 1283.22 1129.41 1274.21 1053.6C1263.87 1055.78 1253.67 1058.58 1243.63 1061.99C1248.03 1070.66 1252.04 1079.42 1255.81 1088.36C1257.38 1091.47 1262.3 1105.21 1254.27 1101.42C1251.5 1098.48 1249.86 1094.58 1248.49 1090.85C1245.14 1081.8 1242.21 1072.66 1239.83 1063.31C1230.09 1066.78 1220.42 1070.86 1211.13 1075.44C1235.13 1157.63 1277.23 1232.73 1321.86 1305.41C1328.14 1303.1 1335.39 1303.19 1341.62 1305.5C1346.47 1296.64 1346.19 1292.16 1346.79 1282.46C1353.35 1205.26 1361.1 1127.87 1376.18 1051.77C1371.36 1050.93 1366.52 1050.23 1361.64 1049.66C1360.52 1054.5 1359.21 1059.58 1358.84 1064.6C1358.77 1065.36 1358.31 1066.26 1357.45 1066.4C1348.07 1066.95 1353.03 1053.79 1354.78 1048.94C1348.61 1048.38 1342.41 1048.02 1336.17 1047.88C1330.08 1130.54 1327.17 1213.35 1326.3 1296.19C1326.23 1297.61 1324.14 1297.6 1324.06 1296.19C1322.78 1213.37 1326.91 1130.26 1335.49 1047.86ZM689.427 1259.24C686.266 1259.22 682.1 1258.84 680.375 1261.42C680.331 1267.36 681.764 1272.21 688.456 1273.07C731.779 1283.75 776.063 1290.35 820.668 1292.19C843.714 1293.07 867.067 1293.32 890.072 1291.38C909.176 1290.66 910.626 1277.02 895.044 1267.8C892.572 1269.29 889.126 1269.09 886.515 1269.33C885.198 1273.42 866.542 1269.97 861.739 1270.44C804.137 1269.13 746.911 1260.44 689.427 1259.24ZM251.87 1036.87C246.544 1038.16 241.253 1039.63 236.012 1041.28C259.543 1114.48 280.736 1188.49 302.535 1262.2C309.078 1261.06 315.989 1259.92 321.271 1255.67C324.127 1253.37 328.201 1257.18 325.732 1259.59C312.147 1271.15 289.339 1264.47 278.669 1280.2C276.374 1283.89 275.529 1288.61 277.998 1292.08C281.283 1287.73 286.73 1286.49 291.879 1285.79C306.63 1283.12 316.514 1270.25 326.607 1260.44C337.21 1249.93 347.809 1239.39 358.407 1228.87C343.116 1227.48 317.929 1164.28 308.294 1148.97C315.877 1182.16 324.916 1215.12 330.675 1248.68C330.918 1250.75 330.745 1252.8 330.934 1254.85C330.957 1255.07 330.638 1255.08 330.565 1254.9C315.944 1216.26 309.96 1174.83 299.008 1135.06C297.088 1122.04 287.891 1110.94 282.896 1098.64C272.672 1077.91 263.068 1057.16 251.87 1036.87ZM701.939 1282.72C702.079 1282.95 702.208 1283.18 702.338 1283.42C702.437 1283.23 702.551 1283.05 702.676 1282.88C702.431 1282.82 702.184 1282.77 701.939 1282.72ZM343.722 1272.21C372.359 1265.99 401.904 1264.52 431.096 1263.13C413.057 1256.14 394.804 1249.49 377.023 1241.96C365.924 1252.04 354.82 1262.13 343.722 1272.21ZM813.901 1217.21C803.6 1211 792.087 1203.12 779.566 1204.25C777.862 1205.44 775.791 1205.36 773.868 1204.78C766.448 1206.33 759.741 1210.11 753.604 1214.39C741.515 1221.72 733.001 1235.61 718.532 1238.47C706.249 1240.13 690.22 1227.58 687.357 1216.49C687.084 1216.45 686.811 1216.38 686.543 1216.3C682.725 1228.62 682.846 1241.51 683.199 1254.2C737.781 1257.65 792.267 1263.36 846.954 1265.62C857.142 1266.12 867.328 1266.57 877.519 1266.97C882.313 1267.2 887.009 1267.13 891.514 1265.44C890.449 1264.65 889.048 1264 888.831 1262.63C873.404 1253.29 857.982 1243.94 842.562 1234.59C836.156 1235.98 827.598 1233.64 823.455 1239.71C823.569 1240.41 823.311 1241.17 822.641 1241.5C821.283 1242.97 818.102 1242.46 818.005 1239.75C818.214 1233.41 827.931 1230.11 833.197 1228.91C829.108 1226.43 825.021 1223.95 820.934 1221.47C815.942 1222.58 811.039 1224.07 806.24 1225.82C804.196 1226.56 801.605 1228.32 799.392 1227.84C799.252 1228 799.132 1228.16 799.032 1228.33C799.476 1228.51 799.912 1228.72 800.149 1228.78C802.152 1229.34 801.65 1232.15 799.673 1232.24C796.593 1232.4 791.615 1231.56 792.648 1227.29C795.412 1221.09 807.593 1218.6 813.901 1217.21ZM683.061 1255.46C683.011 1255.82 682.948 1256.19 682.88 1256.56C684.251 1256.31 685.662 1256.27 687.073 1256.28C685.674 1256.11 684.293 1255.87 683.061 1255.46ZM1131.55 934.139C1038.7 1034.82 928.405 1120.9 842.865 1227.76C842.677 1228 842.474 1228.23 842.255 1228.43C843.623 1228.41 855.028 1229.77 849.068 1230.02C850.78 1230.44 851.969 1232.61 850.222 1233.63C853.047 1235.34 855.871 1237.04 858.696 1238.75C859.564 1233.07 868.423 1227.62 872.125 1222.85C925.456 1170.74 977.246 1117.05 1030.06 1064.37C1065.99 1028.34 1102.21 992.567 1138.64 957.036C1136.39 949.368 1133.91 941.785 1131.55 934.139ZM837.56 1231.56C837.09 1231.67 836.622 1231.8 836.158 1231.93C836.717 1231.86 837.277 1231.79 837.836 1231.73C837.744 1231.67 837.652 1231.62 837.56 1231.56ZM772.388 1182.89C736.419 1182.87 713.223 1186.14 690.431 1215.92C690.879 1217.23 693.355 1217.24 692.575 1218.41C701.195 1229.4 717.42 1236.89 729.114 1225.94C741.671 1215.78 755.131 1205.7 770.788 1200.76C769.683 1194.8 770.082 1188.5 772.388 1182.89ZM1111.87 869.406C1053.09 905.761 990.188 936.3 927.19 965.115C945.48 981.634 936.78 1007.67 925.575 1025.66C910.144 1053.34 894.461 1080.87 878.9 1108.48C860.786 1138.55 845.377 1170 828.836 1200.89C825.788 1205.48 822.76 1213.42 816.196 1213C820.432 1216.53 825.362 1217.1 830.699 1216.01C832.815 1215.77 833.211 1219.18 831.196 1219.62C830.164 1219.85 829.13 1220.06 828.095 1220.25C830.567 1221.75 833.04 1223.24 835.513 1224.74C835.602 1224.37 835.762 1224.03 835.995 1223.72C923.713 1117.14 1030.19 1026.83 1131.1 932.658C1124.2 911.714 1116.83 890.892 1111.87 869.406ZM746.483 1043.1C717.04 1056.76 687.477 1071.17 657.81 1083.82C657.862 1083.81 657.908 1083.88 657.882 1083.93C657.455 1084.75 656.63 1084.28 656.322 1083.59C664.994 1120.28 673.68 1156.99 684.387 1193.17C692.967 1139.03 727.735 1093.78 746.483 1043.1ZM311.96 1011.15C290.135 1011.15 268.678 1013.59 247.762 1018.42C248.527 1021.39 249.59 1024.26 250.852 1027.05C336.986 1005.97 431.382 1032.33 494.982 1093.27C496.948 1091.32 498.921 1089.36 500.893 1087.41C501.077 1086.26 502.189 1085.32 502.795 1084.32C450.893 1037.69 382.28 1010.9 311.96 1011.15ZM756.853 1007.73C723.036 1027.96 687.719 1045.86 652.988 1064.45C652.66 1064.55 652.317 1064.57 651.984 1064.51C653.356 1070.71 654.762 1076.9 656.203 1083.08C656.278 1081.55 658.905 1080.65 659.948 1080.02C671.23 1073.59 682.93 1067.9 694.571 1062.14C712.776 1053.2 730.91 1044.13 749.206 1035.39C752.264 1026.32 754.609 1017.04 756.853 1007.73ZM518.544 998.524C516.874 999.527 514.25 1000.08 512.061 1000.65C511.565 1001.54 510.641 1002.2 509.274 1002.17C468.388 1001.4 427.503 1000.62 386.616 999.811C434.833 1011.94 479.652 1035.88 516.64 1068.96C530.397 1054.5 545.269 1041.12 559.832 1027.44C557.996 1024.07 554.45 1021.43 553.603 1017.59C553.513 1017.16 553.472 1016.55 553.5 1015.88C541.714 1010.39 530.135 1004.42 518.544 998.524ZM655.87 927.316C651.339 928.67 646.396 929.061 641.611 928.978C637.172 929.851 632.658 930.427 628.144 930.652C629.158 935.27 629.172 939.842 630.497 944.285C633.109 982.957 643.034 1020.96 650.763 1058.97C662.999 1051.8 676.592 1047.23 688.849 1040.01C676.96 1045.9 665.051 1051.75 652.998 1057.26C687.083 1038.19 723.087 1021.62 757.865 1003.52C758.765 999.727 759.665 995.939 760.599 992.156C756.987 991.707 753.782 990.476 750.688 988.51C717.764 970.015 686.223 949.663 655.87 927.316ZM554.033 1001.56C481.77 943.543 383.202 943.052 293.583 945.717C246.483 946.073 199.372 946.709 152.278 947.632C144.508 948.842 119.029 944.806 116.538 953.264C122.932 953.132 122.335 960.158 122.391 964.71C136.178 963.227 150.07 962.442 163.944 962.09C255.271 959.957 346.791 957.824 438.102 960.716C449.404 961.713 460.18 964.123 470.707 967.832C476.927 969.513 483.023 971.63 488.925 974.234C498.825 978.468 507.304 985.158 517.154 989.493C530.712 996.282 544.464 1002.8 557.799 1010C560.318 1011.36 559.966 1014.04 558.374 1015.52C559.575 1017.55 561.233 1019.27 562.759 1021.06C566.246 1018.2 569.974 1015.63 573.337 1012.61C569.104 1008.95 561.232 997.746 554.957 1001.52C554.639 1001.74 554.306 1001.72 554.033 1001.56ZM104.952 999.658C104.232 999.869 103.472 999.952 102.727 999.913C103.81 1001.02 105.136 1001.86 106.771 1002.27C107.397 1002.43 108.033 1002.53 108.679 1002.59C107.229 1002.16 105.843 1001.06 104.952 999.658ZM116.15 998.691C115.551 1000.59 114.267 1001.87 112.763 1002.47C114.149 1002.28 115.539 1001.95 116.891 1001.55C116.627 1000.61 116.384 999.654 116.15 998.691ZM441.982 969.702C361.203 966.352 280.116 971.261 199.263 971.571C197.524 974.944 198.135 979.044 200.182 982.305C208.094 994.781 232.204 989.72 245.422 991.076C267.671 991.875 289.698 991.468 311.96 990.626C377.735 994.229 443.487 994.284 509.358 995.624C509.547 995.343 509.79 995.089 510.084 994.871C489.21 982.714 466.658 971.054 441.982 969.702ZM1145.54 836.199C1156.45 878.528 1171.04 919.933 1182.75 962.1C1185.61 963.388 1186.08 967.714 1184.06 969.876C1192.32 971.988 1195.78 981.92 1200.24 988.437C1241.73 951.251 1281.64 909.706 1300.51 856.61C1254.62 865.071 1205.92 855.608 1161.84 842.237C1156.34 840.42 1150.88 838.436 1145.54 836.199ZM895.743 974.79C895.696 974.898 895.65 975.006 895.603 975.114C895.967 974.912 896.339 974.72 896.706 974.52C896.386 974.61 896.059 974.695 895.743 974.79ZM1107.07 835.785C1102.85 834.85 1098.68 834.32 1094.39 835.352C1058.21 860.43 1018.46 880.134 980.051 901.647C957.147 914.449 934.103 927.038 911.633 940.574C904.709 949.671 902.002 962.638 896.512 973.022C911.466 967.087 926.645 961.201 940.346 952.749C944.051 951.984 961.835 938.766 962.73 941.739C997.361 924.667 1031.45 906.58 1065.25 887.958C1072.29 884.087 1079.32 880.187 1086.33 876.247C1091.9 873.843 1105.52 863.025 1110.63 864.479C1109.2 859.182 1108.54 853.798 1107.45 848.438C1106.62 844.379 1105.86 839.867 1107.07 835.785ZM97.004 961.508C95.8364 961.957 94.6734 962.423 93.5059 962.901C94.2163 965.897 94.7629 968.932 95.2647 971.973C95.3293 970.995 95.4191 970.017 95.5284 969.044C95.7867 966.781 95.8862 963.614 97.004 961.508ZM1140.28 833.884C1134.89 831.035 1131.03 828.827 1124.68 830.493C1121.01 831.233 1117.93 832.944 1117.28 836.697C1117.18 837.255 1116.82 837.55 1116.39 837.649C1123.83 861.878 1131.22 886.21 1135.61 911.231C1138.04 927.202 1143.76 942.311 1148.08 957.818C1149.13 961.797 1149.94 965.789 1150.54 969.797C1158.26 964.661 1167.61 962.344 1176.81 961.566C1165.41 919.175 1150.82 876.926 1140.25 834.67C1140.23 834.411 1140.25 834.147 1140.28 833.884ZM494.017 914.057C495.138 918.81 495.602 923.906 498.116 928.26C506.749 925.627 512.19 929.866 516.781 936.621C520.244 940.614 527.805 943.889 530.802 937.614C533.24 931.148 537.302 925.286 543.987 922.517C544.623 922.219 545.269 921.94 545.915 921.676C528.389 920.545 511.125 918.029 494.017 914.057ZM954.112 645.726C959.48 654.803 948.873 656.603 941.931 656.653C928.253 658.171 914.638 660.074 900.958 661.536C901.69 669.614 893.648 673.416 886.978 675.401C875.929 679.492 864.879 683.583 853.825 687.673C846.512 690.918 837.912 693.087 830.769 688.255C825.778 690.842 820.277 694.638 814.428 692.796C815.672 709.252 815.664 725.753 815.397 742.241C815.372 744.421 813.509 746.361 811.248 746.322C799.139 746.112 787.027 745.214 775.056 743.37C779.334 752.353 787.704 758.372 794.615 765.079C797.901 768.446 802.72 771.063 804.357 775.583C849.357 786.936 894.236 802.897 932.887 828.654C950.391 840.578 944.113 860.606 936.764 876.565C929.273 895.402 921.597 914.162 913.741 932.853C971.696 898.707 1031.37 867.408 1090.41 835.141C1084.07 833.914 1081.07 827.371 1080.25 821.642C1073.23 781.645 1077.3 761.703 1100.66 728.376C1099.09 720.254 1097.52 712.135 1095.97 704.008C1087.87 704.716 1079.25 702.876 1071.19 702.208C1059.89 703.039 1047.88 706.509 1036.88 702.525C1027.18 711.948 971.232 694.991 957.237 690.586C938.219 684.272 918.405 679.568 901.717 668.001C899.051 666.282 901.543 662.052 904.225 663.781C910.183 667.621 916.424 671.02 922.912 673.892C954.171 685.502 987.158 691.152 1019.68 698.207C1024.22 698.58 1029.64 702.003 1033.61 698.738C1037.12 695.725 1040.54 692.589 1044 689.512C1020.41 663.953 989.443 648.009 954.112 645.726ZM1142.45 839.054C1142.35 838.557 1142.27 838.057 1142.19 837.557C1142.03 837.473 1141.88 837.383 1141.74 837.286C1141.98 837.875 1142.21 838.465 1142.45 839.054ZM1120.24 826.588C1120.04 827.011 1119.82 827.427 1119.59 827.84C1119.95 827.65 1120.32 827.475 1120.69 827.315C1120.53 827.077 1120.38 826.835 1120.24 826.588ZM1101.66 733.562C1093.9 749.396 1084.6 764.874 1084.79 783.017C1084.48 793.783 1085.86 804.58 1087.38 815.22C1087.86 818.582 1087.95 823.733 1090.51 826.363C1094.08 828.927 1099.06 825.425 1103.22 826.749C1105.09 827.067 1107.44 828.381 1109.28 827.438C1114.14 823.808 1114.53 816.944 1116.85 811.765C1114.98 802.076 1113.09 792.386 1111.21 782.704C1108.03 766.322 1104.83 749.944 1101.66 733.562ZM559.851 480.918C554.334 526.896 543.917 553.073 529.75 597.219C511.842 648.015 481.787 688.656 470.16 741.61C470.781 741.386 471.557 742.178 471.164 742.838C468.914 746.625 467.13 750.633 465.809 754.777C463.111 763.238 462.331 772.259 463.379 781.101C526.602 741.553 604.603 731.648 677.441 745.447C695.744 748.057 714.369 749.416 732.762 746.914C729.267 727.242 732.009 706.921 733.462 687.132C734.219 675.925 735.482 663.821 743.329 655.026C702.967 647.84 662.67 634.897 628.211 612.629C576.28 578.52 570.994 536.249 559.851 480.918ZM1313.33 636.151C1313.93 634.356 1311.06 633.587 1310.45 635.371C1297.23 678.873 1286.02 723.117 1276.29 767.498C1274.44 773.616 1279.36 773.29 1278.93 770.189C1288.15 725.075 1300.37 680.372 1313.33 636.151ZM749.41 657.182C744.43 667.658 744.851 679.555 744.398 690.86C743.806 704.582 742.703 718.313 743.379 732.056C743.037 737.613 747.099 747.21 741.099 750.501C740.24 754.995 724.669 755.247 720.445 755.916C742.891 757.878 764.137 765.788 785.896 771.019C778.311 763.753 771.031 753.977 772.775 743.019C756.678 740.844 752.793 739.105 752.802 722.252C751.785 701.557 752.694 679.677 760.787 660.334C756.95 659.233 753.312 658.238 749.41 657.182ZM776.317 655.412C774.012 658.506 771.031 660.882 766.699 661.072C765.626 661.121 764.558 661.042 763.5 660.886C762.372 684.329 759.425 708.228 763.912 731.484C778.205 734.593 792.698 736.851 807.304 737.892C807.905 720.649 807.173 703.38 805.844 686.187C801.638 681.128 798.63 672.685 806.181 668.931C797.259 662.442 786.901 658.404 776.317 655.412ZM1047.73 692.766C1045.59 694.672 1043.47 696.777 1041.29 698.786C1047.2 700.077 1053.35 699.291 1059.34 698.657C1055.29 697.077 1051.47 695.074 1047.93 692.572C1047.87 692.638 1047.81 692.703 1047.73 692.766ZM1075.47 677.44C1041.97 652.406 1005.55 624.069 961.137 625.897C956.397 625.824 951.454 625.819 946.705 626.347C947.276 632.295 949.456 638.091 952.592 643.198C991.413 636.868 1025.71 659.05 1051.48 685.333C1063.67 694.46 1079.67 695.613 1094.44 696.046C1093.85 692.938 1093.24 689.824 1092.63 686.706C1085.61 687.196 1081.01 680.761 1075.47 677.44ZM794.011 614.401C789.098 627.575 784.758 641.144 777.703 653.359C797.15 650.264 814.027 664.977 827.901 676.403C828.07 676.329 828.24 676.259 828.409 676.189C830.077 678.064 832.38 679.064 834.516 680.178C834.546 681.757 836.873 681.824 837.97 682.511C837.894 682.635 837.824 682.764 837.743 682.885C841.579 683.964 845.181 682.546 848.962 681.203C863.296 675.711 878.33 671.575 892.298 665.353C897.73 660.968 888.66 654.122 892.89 650.441C884.664 642.099 879.22 627.598 865.68 627.329C865.964 627.478 866.243 627.631 866.517 627.792C858.267 624.95 849.748 628.516 841.504 628.179C824.591 626.805 810.445 617.117 794.011 614.401ZM810.567 672.181C810.328 676.26 814.184 679.061 817.101 681.335C817.289 681.458 817.483 681.574 817.682 681.687C818.611 681.334 819.55 680.885 820.499 680.382C817.215 677.606 813.956 674.811 810.567 672.181ZM939.104 622.691C938.766 623.777 937.963 624.768 937.052 625.364C938.421 628.278 940.456 632.038 936.336 633.571C922.713 638.572 907.847 637.627 893.779 640.809C895.978 643.8 904.472 649.582 898.43 652.597C898.658 653.09 898.876 653.594 899.09 654.107C915.265 652.058 931.553 650.649 947.768 648.814C942.337 641.157 939.459 631.998 939.104 622.691ZM684.601 327.538C680.413 329.864 675.469 330.887 670.457 331.274C618.138 327.564 584.455 334.295 572.151 382.663C555.12 452.212 571.563 517.477 604.096 581.014C634.86 624.67 693.238 635.174 743.617 645.353C747.408 642.305 761.297 650.439 766.59 650.051C766.893 649.714 767.196 649.298 767.528 649.01C766.262 650.119 767.494 649.039 767.882 648.473C770.915 644.037 773.111 639.002 775.23 634.099C775.234 634.088 775.243 634.061 775.254 634.045C775.255 634.029 775.264 634.012 775.274 633.996C780.107 622.644 783.924 616.291 788.758 604.94C691.382 583.99 615.419 514.426 642.272 416.972C642.406 416.586 643.002 416.64 643.007 417.07C643.062 428.199 642.515 439.312 643.222 450.44C646.473 521.019 689.238 554.606 755.818 583.191C738.529 477.162 671.372 437.975 684.601 327.538ZM779.822 340.143C791.302 442.918 780.294 487.534 773.947 590.244C781.869 592.876 789.975 595.003 798.202 596.578C802.773 597.458 802.837 603.704 799.712 605.859C799.146 606.881 798.567 602.686 798.133 603.758C798.143 603.724 798.168 603.67 798.197 603.587C797.328 605.636 796.532 607.713 795.736 609.789C809.64 612.87 822.795 619.26 836.725 621.621C831.352 617.292 825.962 612.821 821.642 607.438C818.913 603.637 816.846 605.095 812.937 602.278C812.709 607.32 812.439 606.989 812.625 612.008C812.719 614.593 808.889 614.471 808.621 612.008C805.708 593.373 802.943 580.038 803.178 561.11C803.32 495.023 801.631 461.359 817.11 396.749C817.23 396.451 817.617 396.514 817.657 396.821C818.278 401.586 817.931 406.381 817.763 411.171C813.69 474.717 809.083 504.154 812.524 567.851C814.008 577.525 810.084 593.305 817.663 600.144C827.853 611.339 841.143 613.924 854.352 621.533C856.124 622.908 858.368 621.809 860.423 621.641C864.084 621.01 867.657 620.625 871.318 621.499C880.184 623.643 886.321 631.018 891.504 637.92C903.255 631.007 918.034 632.866 930.683 628.355C930.211 627.202 929.823 626.015 929.574 624.817C832.954 576.322 834.789 546.644 842.499 452.411C843.127 422.123 844.262 411.05 841.37 380.889C838.68 367.523 824.245 367.536 814.339 360.074C805.076 353.174 795.151 347.086 784.462 342.531C782.94 341.764 781.375 340.977 779.822 340.143ZM993.778 608.01C989.965 599.748 976.736 603.79 970.224 606.578C968.813 607.389 967.68 608.289 966.851 609.495C968.758 610.141 970.085 612.081 970.065 613.978C978.181 615.251 986.445 615.883 994.667 615.727C994.935 613.262 994.86 611.157 994.165 609.09C994.156 609.067 993.749 608.01 993.778 608.01ZM688.004 346.756C691.543 447.67 744.028 478.749 763.301 576.335C771.677 481.149 776.361 444.52 777.376 348.97C760.882 376.771 714.297 374.54 693.002 353.183C691.129 351.233 689.435 349.063 688.004 346.756Z" class="outlines"/>
    <path fill-rule="evenodd" clip-rule="evenodd" d="M826.656 205.776C825.502 190.847 827.29 175.199 821.532 161.009C811.493 137.464 783.342 129.614 761.518 120.65C752.775 118.068 723.355 117.707 713.117 114.288C689.948 106.552 684.412 97.334 666.002 112.065C662.894 114.581 660.95 117.316 659.531 121.053L659.59 121.069C659.184 122.626 659.619 124.181 660.531 125.368C652.549 133.525 649.208 145.755 653.304 156.613C666.67 184.87 666.041 200.148 661.735 230.525C656.111 258.884 668.962 269.244 690.245 284.674C689.378 286.354 689.199 288.586 690.329 290.068C714.939 324.642 761.342 341.15 801.101 323.601C817.24 316.42 824.444 299.238 828.556 283.734C833.346 266.375 834.818 248.082 830.918 230.398C829.345 222.22 827.297 214.101 826.656 205.776Z" class="main_filling"/>
    <path fill-rule="evenodd" clip-rule="evenodd" d="M684.697 40.3714C687.685 39.9229 689.941 41.7758 691.014 44.3875L691.07 44.5281C691.415 45.4167 691.799 46.2811 692.212 47.1309C699.687 43.4646 710.354 44.4067 715.085 51.8315C718.461 57.1343 716.401 63.4277 715.129 69.0509L714.293 72.756C715.908 73.7834 717.126 75.6233 717.069 77.5285L717.062 77.6752L716.722 82.8419C717.8 81.7493 718.786 80.5596 719.665 79.2922C720.272 78.1802 720.928 77.0876 721.633 76.029C725.776 69.7987 735.078 75.2132 731.658 81.8853C731.002 83.1721 730.264 84.391 729.472 85.5662C728.578 87.2998 727.845 89.0819 727.282 90.9126C728.899 91.6167 730.143 93.1804 730.274 95.5404C730.58 101.052 727.685 105.651 723.08 108.54C721.725 109.39 720.326 109.555 719.058 109.239C718.835 109.54 718.611 109.841 718.398 110.147C720.234 111.638 721.89 113.338 723.313 115.222C727.597 114.581 731.906 114.28 736.214 114.27C741.48 111.691 747.784 111.745 753.443 112.711C757.086 113.333 760.583 114.542 764.168 115.411C767.947 116.324 771.784 116.358 775.607 116.98C780.425 117.761 784.651 119.985 787.308 123.535C790.228 123.623 793.297 124.817 795.843 126.439C801.769 130.217 807.66 134.048 813.572 137.851C815.84 139.31 816.689 141.641 816.272 144.24L816.243 144.406L816.044 145.484L816.512 146.148C818.321 148.702 820.289 151.377 821.46 154.196C823.626 157.318 825.584 160.591 827.318 163.966C829.654 168.502 831.583 173.309 832.889 178.243C833.215 179.491 833.54 180.749 833.754 182.021C834.06 183.818 833.589 185.211 833.331 186.935C833.011 189.12 832.894 191.335 832.554 193.525C832.326 194.977 831.092 195.691 829.8 195.729C830.286 199.425 830.636 203.144 830.971 206.835C831.442 212.109 831.762 217.397 832.039 222.685C833.467 224.759 836.387 226.4 838.495 226.968C841.414 227.75 844.474 226.9 847.233 225.905C848.967 225.278 850.39 227.458 849.545 228.915C846.888 233.49 841.205 233.47 836.902 231.445C835.08 230.591 833.482 229.352 832.297 227.74C832.37 229.275 832.447 230.809 832.525 232.348L832.597 233.743C833.473 250.026 835.362 266.869 832.302 282.992C827.002 310.919 803.885 332.183 775.646 333.834C760.827 334.701 748.487 330.325 742.351 327.884C736.214 325.443 738.599 320.466 742.859 321.889C750.197 324.339 763.679 327.991 775.743 326.414C804.178 322.698 828.29 308.49 825.812 247.295C825.461 238.617 824.379 229.935 824.146 221.257C823.923 212.774 824.005 204.286 823.631 195.807L823.507 192.914C823.361 189.534 823.204 186.138 822.951 182.754C822.645 181.443 822.393 180.112 822.019 178.826C821.004 175.324 819.677 171.92 818.031 168.672C817.667 168.949 817.259 169.148 816.817 169.225C813.46 169.827 810.313 169.658 807.17 168.259C805.703 167.613 804.411 166.754 803.206 165.69C802.633 165.19 802.249 164.704 801.948 164.199C800.428 164.224 798.908 163.767 797.956 162.675C796.87 161.429 796.689 160.143 797.114 158.952L797.159 158.833L797.052 158.795C795.77 162.111 793.215 165.03 790.412 167.001C785.982 170.129 780.44 171.032 775.126 171.114C769.259 171.202 763.07 170.299 757.28 169.376C755.75 169.133 754.23 168.856 752.739 168.482C752.681 168.541 752.622 168.609 752.559 168.667C747.59 173.421 740.6 174.645 734.296 171.93C730.653 170.362 727.597 167.837 724.897 164.942C724.858 166.457 724.78 167.972 724.649 169.473L724.595 170.069C724.326 172.863 723.808 175.828 721.696 177.845C718.281 181.113 713.327 179.802 709.387 177.675C709.392 177.777 709.392 177.884 709.392 177.99C710.456 181.603 711.524 185.221 712.593 188.839L712.823 189.609C713.6 192.178 714.453 194.75 714.687 197.439C715.133 202.576 711.714 207.651 706.002 205.927C703.005 205.026 700.605 202.507 698.302 200.49L696.85 199.235C700.605 211.507 703.209 224.215 703.452 237.02C703.466 237.714 702.869 238.239 702.208 238.263C700.663 238.326 699.002 238.02 697.448 237.404C697.361 237.399 697.273 237.394 697.181 237.379C694.529 236.996 692.066 236.039 689.895 234.626C690.395 236.214 690.619 237.918 690.487 239.7C690.453 240.133 689.778 240.283 689.681 239.807C688.428 233.645 681.215 228.988 674.997 230.168C668.323 231.436 663.408 237.175 662.203 243.707C660.911 250.724 663.384 258.838 667.964 264.252C670.072 266.748 672.846 268.832 676.139 269.356C677.645 269.594 679.209 269.511 680.671 269.084C681.293 268.9 681.875 268.642 682.468 268.399C683.333 268.05 684.343 267.996 685.159 267.627C687.01 266.797 688.87 268.501 687.932 270.4C687.116 272.056 686.383 273.173 685.028 274.028C686.126 275.368 687.121 277.232 687.49 277.733C689.375 280.277 691.289 282.681 693.436 285.007C695.622 287.367 698.007 289.523 700.527 291.519L701.587 292.356C704.015 294.281 706.13 296.065 707.843 298.827C709.193 301.007 707.444 303.965 704.914 303.931C696.996 303.819 691.24 296.865 687.141 290.79C686.558 289.921 686.009 289.003 685.499 288.061C685.314 288.358 685.11 288.634 684.882 288.887L685.334 290.101C686.674 293.675 680.899 296.011 679.223 292.675C678.004 290.256 676.591 287.955 675.017 285.779C674.089 285.648 673.181 285.085 672.676 284.356C671.398 282.506 669.965 280.637 668.756 278.665C668.085 278.029 667.396 277.417 666.691 276.82C666.487 276.999 666.279 277.179 666.079 277.368C665.195 279.384 664.102 281.224 662.747 282.958L662.457 283.328C659.861 286.599 656.479 289.947 652.294 290.747C651.017 290.99 649.788 289.402 650.92 288.387C653.849 285.755 657.312 283.963 660.013 281.025C661.343 279.578 662.565 277.984 663.615 276.313L663.855 275.926C664.03 275.64 664.209 275.353 664.394 275.062C663.175 274.231 661.956 273.396 660.736 272.561C657.38 275.428 653.009 276.739 649.297 279.113L648.928 279.355C645.572 281.598 642.036 276.635 644.727 273.911C647.693 270.919 650.169 267.352 652.797 264.026C651.561 261.751 650.977 259.06 650.757 256.341C650.671 255.571 650.604 254.801 650.536 254.031C648.651 254.06 646.757 253.414 645.154 252.302L644.547 251.87C642.599 252.491 640.554 252.792 638.597 252.739C633.992 252.603 632.107 247.344 634.988 244.017C637.926 240.618 643.07 239.875 647.146 241.526C647.277 241.458 647.413 241.385 647.544 241.313C647.35 240.419 647.393 239.609 647.614 238.897L647.55 238.463C646.654 237.088 646.064 235.518 645.841 233.86C645.664 232.547 645.7 231.245 646.004 229.948C646.105 229.516 646.315 229.069 646.476 228.619C646.145 227.782 645.95 226.918 645.89 226.049C645.797 225.939 645.705 225.825 645.617 225.703C643.595 222.865 644.004 219.445 645.928 217.148C645.937 217.002 645.951 216.855 645.971 216.71C645.858 216.457 645.754 216.201 645.66 215.942C643.78 214.046 642.399 211.764 642.657 208.936C642.808 207.273 643.492 205.775 644.527 204.656C644.343 204.113 644.326 203.484 644.548 202.959C642.896 198.566 643.105 193.276 644.294 188.363C644.032 187.615 643.896 186.804 643.925 185.945C644.061 182.298 647.218 178.947 650.959 178.991C651.409 178.995 651.83 179.053 652.236 179.139L652.241 179.052C652.384 177.958 652.685 176.946 653.125 176.039C652.909 175.961 652.709 175.848 652.533 175.699C650.137 176.977 647.601 177.954 644.942 178.62C642.987 179.11 640.984 176.888 642.199 175.053C642.763 174.202 643.386 173.438 644.056 172.74C643.103 172.745 642.135 172.81 641.157 172.935C639.398 173.164 637.436 171.964 636.294 170.342C634.876 171.721 633.453 173.096 632.03 174.47C628.425 177.961 622.98 175.392 622.412 170.789C621.339 170.502 620.338 170.017 619.459 169.322C613.776 171.789 607.66 173.144 601.409 173.401C596.921 173.586 594.298 168.361 596.396 164.67C597.805 162.194 599.554 159.97 601.569 158.037C598.441 158.994 595.211 159.683 591.913 160.125C590.13 160.363 587.609 158.887 586.895 157.25C584.166 150.957 584.399 144.397 587.541 138.273C587.663 138.03 587.799 137.797 587.93 137.564C588.255 136.753 588.61 135.952 588.994 135.165C585.127 131.135 584.792 125.143 586.876 120.126C586.041 118.771 585.72 117.14 586.288 115.664C587.906 111.415 590.237 107.491 593.181 104.121C592.899 103.577 592.651 102.999 592.442 102.378C590.786 97.3517 592.705 91.2865 596.576 87.7854C599.01 85.5807 601.807 84.2599 604.795 83.4149C606.053 81.1909 607.67 79.1854 609.555 77.4955C609.628 77.3352 609.701 77.175 609.783 77.0147C612.717 71.4886 618.06 68.5265 623.787 67.8418C624.01 65.6808 625.467 63.617 627.585 62.9469C628.168 61.0773 629.038 59.2903 630.232 57.6684C632.112 55.1142 635.235 53.9099 638.179 55.5852C639.792 56.503 641.336 57.5567 642.784 58.7222C643.434 58.4174 644.171 58.2202 645.002 58.1572L645.212 58.1443L650.002 57.9015C652.008 57.0129 654.009 56.0805 656.015 55.1725C657.22 54.177 658.565 53.3466 660.032 52.7299C661.693 52.0355 663.393 51.6421 665.098 51.511C666.483 51.0594 667.877 50.6612 669.295 50.3504C672.627 49.622 676.115 49.2141 679.573 49.2481C679.644 48.3532 679.679 47.4476 679.672 46.5313L679.665 46.0723C679.588 43.1344 681.934 40.789 684.697 40.3714ZM681.341 275.426C680.865 275.528 680.384 275.611 679.903 275.669C680.049 276.028 680.195 276.388 680.336 276.747C680.724 276.965 681.118 277.174 681.511 277.368C681.395 276.708 681.327 276.043 681.341 275.426ZM656.386 268.012L656.063 268.607C656.01 268.704 655.959 268.8 655.908 268.895C656.593 268.841 657.283 268.856 657.963 268.934L657.961 268.861C657.873 268.832 657.786 268.804 657.702 268.764C657.233 268.538 656.797 268.286 656.386 268.012ZM669.873 240.89C674.17 241.14 677.811 241.799 681.719 243.679L682.055 243.843C685.509 245.557 691.221 248.723 690.74 253.263C690.604 254.555 689.667 255.915 688.19 255.813C684.144 255.536 681.832 251.457 679.092 248.912C676.328 246.348 672.933 243.712 669.586 241.949C669.113 241.701 669.3 240.915 669.814 240.89L669.873 240.89ZM650.385 181.069C649.356 181.103 649.701 182.103 650.23 181.268C650.274 181.2 650.327 181.132 650.385 181.069ZM705.971 114.288C696.218 114.545 686.403 120.302 679.097 126.121C672.741 131.183 667.253 137.204 662.393 143.694C661.143 146.927 660.069 150.226 659.163 153.55C658.565 155.745 658.191 157.964 657.691 160.179L657.535 160.857C657.142 161.592 656.85 162.382 656.638 163.198C657.523 164.086 658.672 164.721 659.937 165.023C660.344 165.12 660.683 165.33 660.951 165.609C661.969 163.91 662.859 162.118 663.376 160.217L663.395 160.129C665.352 156.925 667.478 153.82 669.756 150.821C676.042 142.542 682.963 134.995 691.284 128.717C697.594 123.958 704.646 120.228 712.146 117.805C710.311 116.325 708.226 115.153 705.971 114.288Z" class="outlines"/>
    <path fill-rule="evenodd" clip-rule="evenodd" d="M756.15 268.283C764.477 267.272 772.548 269.821 780.688 271.105C784.986 271.783 789.289 272.289 793.638 272.478C794.513 272.516 795.388 272.538 796.263 272.556C796.345 271.786 796.776 271.078 797.71 270.654C799.626 269.786 801.159 269.395 803.262 269.479C805.187 269.555 807.119 269.753 809.015 270.099C812.457 270.73 815.915 272.162 818.433 274.65C824.26 280.405 823.373 289.651 818.871 295.92C809.568 308.875 792.589 309.476 778.047 309.307L776.705 309.289C763.464 309.1 744.521 311.074 738.505 296.014C736.293 290.475 736.601 284.056 739.309 278.744C742.539 272.409 749.34 269.109 756.15 268.283ZM797.51 289.852L797.391 289.857C791.286 290.092 785.183 290.258 779.075 290.366C779.257 291.934 779.444 293.502 779.657 295.067C779.825 296.299 780.004 297.528 780.19 298.757C780.269 299.277 780.559 300.085 780.477 300.6L780.448 300.804V300.804C780.761 300.945 781.046 301.174 781.258 301.505C781.331 301.62 781.385 301.736 781.438 301.851C786.18 301.888 791.284 301.796 796.118 300.934L796.128 300.829V300.829C796.215 300.212 796.472 299.796 796.813 299.511C797.153 297.543 797.122 295.445 797.253 293.491C797.335 292.278 797.424 291.065 797.51 289.852ZM774.41 290.449C770.01 290.524 765.608 290.581 761.208 290.528L759.211 290.497V290.497C759.633 292.759 760.092 295.013 760.473 297.29C760.871 299.663 758.782 301.172 756.973 301.111C757.177 301.144 757.379 301.179 757.582 301.207C763.232 302.006 769.099 301.794 774.833 301.788C774.524 299.988 774.649 297.957 774.603 296.454L774.594 296.222C774.507 294.296 774.445 292.373 774.41 290.449ZM744.522 290.034C744.675 291.21 744.972 292.361 745.416 293.433C747.294 297.961 751.6 300.074 756.156 300.963C755.366 300.69 754.738 300.035 754.58 298.912C754.185 296.119 754.043 293.281 754.032 290.445C750.857 290.416 747.66 290.348 744.522 290.034ZM814.068 289.067C811.808 289.6 809.181 289.356 806.963 289.456C804.885 289.551 802.806 289.633 800.728 289.717C800.826 291.135 800.922 292.553 801.025 293.97C801.159 295.802 801.172 297.738 801.523 299.562C805.704 298.135 809.452 295.847 812.263 292.188C812.963 291.277 813.59 290.207 814.068 289.067ZM755.195 275.712C751.432 276.602 747.871 278.484 745.957 281.927C744.82 283.97 744.321 286.391 744.417 288.777C747.597 288.406 750.832 288.266 754.052 288.15C754.063 287.57 754.077 286.991 754.094 286.414L754.144 284.933C754.231 282.108 754.275 278.561 755.195 275.712ZM774.673 276.056L773.016 275.87C768.415 275.346 763.816 274.796 759.215 275.111C758.549 275.157 757.873 275.23 757.195 275.329C758.008 278.263 757.94 281.709 758.28 284.614C758.411 285.737 758.577 286.85 758.761 287.96L759.559 287.923V287.923C764.496 287.655 769.439 287.49 774.38 287.295C774.38 286.367 774.385 285.439 774.4 284.51L774.418 283.582C774.474 281.211 774.321 278.539 774.673 276.056ZM797.779 275.68C792.96 276.457 787.979 276.623 783.245 276.629C781.354 276.631 779.464 276.515 777.576 276.347C777.699 277.353 777.763 278.37 777.855 279.361C778.042 281.365 778.255 283.365 778.487 285.364L778.693 287.113V287.113C784.767 286.837 790.84 286.54 796.912 286.232L797.769 286.186V286.186L798.009 282.825C798.173 280.584 798.353 278.343 798.607 276.112L798.416 276.044V276.044C798.192 275.952 797.98 275.825 797.779 275.68ZM799.872 276.514C800.137 279.683 800.284 282.864 800.48 286.038L804.483 285.825C805.15 285.788 805.817 285.751 806.484 285.713C809.078 285.563 812.411 284.778 814.976 285.511C815.171 283.18 814.505 280.909 812.401 279.343C808.707 276.593 804.004 277.573 799.872 276.514ZM786.195 248.187C792.156 244.774 807.112 241.286 808.059 252.011C808.495 256.946 804.825 261.035 800.539 262.86L800.378 262.927C796.359 264.579 789.235 266.445 785.756 262.862C782.861 259.881 786.701 254.535 790.298 256.977C792.147 258.232 796.038 257.308 798.101 256.711L798.23 256.673C800.457 256.019 803.424 253.925 802.504 251.185C801.689 248.761 798.223 248.318 796.052 248.24C792.812 248.123 789.659 248.876 786.448 249.12C785.94 249.159 785.783 248.423 786.195 248.187ZM810.887 230.942C818.978 230.563 824.01 239.394 822.15 246.63C821.828 247.879 820.431 249.105 819.083 248.964L818.743 248.933C818.571 248.916 818.397 248.895 818.238 248.851C816.957 248.496 815.81 247.165 815.903 245.784L815.928 245.382C816.116 241.964 815.746 238.026 811.682 237.198C808.236 236.496 806.312 239.812 806.271 242.865C806.264 243.406 805.654 243.785 805.175 243.493C802.684 241.978 802.252 238.963 803.204 236.366C804.41 233.076 807.428 231.104 810.887 230.942ZM750.849 232.836C756.737 230.872 763.089 234.01 765.94 239.214C766.94 239.503 767.938 240.274 767.799 241.454C767.599 243.151 767.297 244.222 766.119 245.509C764.278 247.523 760.829 246.493 760.063 244.014L760.031 243.902C759.161 240.698 755.633 238.583 752.419 239.705C748.664 241.015 748.773 244.98 746.139 247.289C745.83 247.561 745.459 247.604 745.088 247.425C742.29 246.073 742.793 242.006 743.79 239.678C745.098 236.623 747.641 233.906 750.849 232.836ZM742.831 214.963C747.602 210.096 760.042 205.386 763.306 214.373C763.928 216.085 762.604 218.393 760.822 218.748C757.902 219.329 755.312 218.062 752.413 218.289C750.065 218.474 747.617 219.259 745.74 220.713C740.541 224.739 739.398 231.55 735.776 236.675C735.6 236.924 735.257 236.819 735.225 236.525C734.4 229.064 737.606 220.292 742.831 214.963ZM805.051 210.172C808.217 209.054 811.802 209.149 814.985 210.141C818.19 211.14 821.134 213.038 823.401 215.518C824.43 216.643 825.382 217.885 826.145 219.208C826.551 219.908 826.977 221.356 827.438 222.218C829.932 223.657 830.998 226.938 828.765 229.271L828.665 229.374L828.366 229.67C827.166 230.858 825.356 231.372 823.718 230.898C820.051 229.837 819.606 226.951 818.337 223.886C817.498 221.862 816.062 220.072 814.321 218.756C810.205 215.648 803.457 214.658 798.502 216.123C798.238 216.201 797.928 215.865 798.116 215.621C799.055 214.405 799.596 213.407 800.853 212.426C802.129 211.431 803.522 210.712 805.051 210.172Z" class="outlines"/>
</svg>
