<svg width="800" height="1080" viewBox="0 0 800 1080" fill="none" xmlns="http://www.w3.org/2000/svg">
    <style>
        .outlines {
            fill: #f9fafb;
        }

        .main_filling {
            fill: #232526;
        }

        @media (prefers-color-scheme: dark) {
        .outlines {
            fill: #f9fafb;
        }

        .main_filling {
            fill: #ff8000;
            }
        }
    </style>
    <path fill-rule="evenodd" clip-rule="evenodd" d="M171.672 949.605C214.793 950.813 255.528 952.145 298.566 949.605C367.436 945.344 569.548 953.026 613.973 949.605C617.326 949.347 628.856 953.026 629.096 949.605C631.049 925.788 632.315 684.823 626.513 668.243C620.711 651.662 592.072 571.96 555.579 534.794C545.404 524.754 529.92 520.865 521.366 509.261C513.991 496.609 514.564 489.183 507.281 482.526C504.12 479.637 496.666 478.466 491.128 474.457C485.559 468.92 490.831 456.732 488.545 449.022C483.834 429.771 466.477 417.42 447.506 414.51C421.138 408.198 393.302 414.166 380.672 434.886C375.971 442.598 378.473 451.973 372.691 464.332C373.103 473.671 362.204 475.928 355.689 479.628L342.751 492.709C302.892 515.145 256.003 527.26 221.078 557.402C191.385 587.536 161.851 622.365 148.676 663.135C145.949 674.244 145.059 685.726 143.929 697.078C140.702 730.251 131.717 762.449 123.984 794.762C115.167 835.475 106.949 878.692 118.832 919.79C122.258 928.489 163.873 949.199 171.672 949.605Z" class="outlines"/>
    <path fill-rule="evenodd" clip-rule="evenodd" d="M378.388 438.203C378.733 437.075 380.219 437.392 380.332 438.464C381.452 449.088 380.043 460.191 378.691 470.744C378.043 475.838 377.669 481.135 376.683 486.158C376.557 486.694 376.437 487.236 376.324 487.772C376.648 488.349 377.607 488.997 378.064 489.441L380.052 491.374L384.035 495.232C391.832 502.785 399.627 510.343 407.423 517.896L418.866 528.992C422.79 532.796 427.247 536.439 430.69 540.68C432.557 542.983 432.979 545.808 431.141 548.274C430.233 549.492 428.6 550.38 426.944 550.563C427.592 551.465 428.092 552.487 428.409 553.622C429.057 555.932 426.719 558.771 424.233 557.806C421.409 556.721 419.078 554.776 416.204 553.846C413.303 552.902 410.149 552.72 407.141 553.226C405.761 553.459 404.409 553.805 403.092 554.241C417.184 560.73 432.43 564.457 447.979 564.991C451.148 565.098 454.311 565.055 457.458 564.844C462.754 564.498 468.014 563.696 473.183 562.4C477.247 561.378 481.269 560.095 485.17 558.545C487.085 557.784 488.979 556.947 490.811 555.996L490.971 555.901C491.385 555.642 499.037 551.301 499.17 550.649C499.303 549.996 499.303 549.769 499.054 549.201C498.806 548.633 498.115 548.242 498.115 548.242C495.751 547.231 493.302 546.29 490.719 546.273C484.775 546.238 478.289 550.634 473.374 553.629C467.973 556.919 463.007 560.764 457.81 564.33C457.69 564.414 457.557 564.45 457.43 564.45C456.881 564.45 456.373 563.773 456.726 563.244C460.451 557.758 465.478 553.19 470.737 549.201L472.856 547.612C477.673 544.019 483.307 540.039 489.163 539.172C496.338 538.115 503.832 542.589 510.233 545.209L521.571 549.852C523.592 550.676 525.79 551.38 527.824 552.317L523.073 537.446C520.699 530.01 518.332 522.571 515.987 515.128L515.532 513.669C513.196 506.113 511.052 498.253 507.162 491.351C506.233 489.695 505.169 488.138 504.12 486.566C503.028 484.94 502.62 483.143 501.247 481.691C498.529 478.81 494.634 477.119 490.916 476.014C490.007 475.746 490.276 474.548 491.128 474.457C494.943 474.054 498.582 474.945 502.03 476.555L503.463 477.239C506.724 478.782 509.903 480.217 512.324 482.988C517.845 489.314 520.712 497.28 523.346 505.141L524.05 507.251C525.035 506.927 531.733 508.97 532.571 509.456C557.677 520.073 577.015 539.841 591.156 563.005C606.649 588.388 615.085 617.392 622.05 646.094C624.199 654.952 626.255 663.837 628.229 672.742C619.431 676.129 610.081 677.9 601.845 682.671C598.707 684.488 601.541 689.361 604.688 687.538C612.402 683.07 621.188 681.419 629.445 678.282C633.922 698.897 637.904 719.626 641.24 740.441C651.487 804.325 657.958 869.251 657.55 934.009C657.543 935.44 657.121 937.038 656.338 938.412C656.797 938.187 657.156 937.919 657.36 937.596C659.958 933.516 666.472 937.3 663.859 941.4L663.478 941.994C661.517 945.018 659.687 947.329 656.24 949.036C652.768 950.756 649.007 951.045 645.177 951.143C632.156 951.486 619.126 951.71 606.091 951.87C604.304 937.923 603.577 923.842 601.114 909.976C600.481 906.41 595.051 907.921 595.682 911.474C598.06 924.864 598.821 938.457 600.481 951.938C572.615 952.238 544.733 952.242 516.888 952.32C479.152 952.431 441.421 952.352 403.687 952.331L387.515 952.326C343.923 952.326 300.331 952.185 256.74 951.896L246.373 951.823C242.25 927.503 239.442 902.975 239.39 878.261C239.383 874.635 233.749 874.628 233.757 878.261C233.809 902.948 236.585 927.478 240.671 951.791C230.35 951.746 220.033 951.784 209.711 952.15L204.458 952.337C193.947 952.697 183.414 952.919 172.923 952.08C161.275 951.143 149.494 949.002 139.05 943.514C134.347 941.037 130.205 937.872 126.666 934.15C130.264 932.056 133.913 930.048 137.398 927.767C140.42 925.788 137.601 920.907 134.554 922.9C130.799 925.359 126.851 927.5 122.984 929.774C120.184 926.036 117.886 921.887 116.141 917.412C113.388 910.345 112.324 902.743 111.402 895.262C110.311 886.449 109.859 877.564 109.859 868.688C109.859 850.019 111.824 831.406 114.564 812.962C117.185 795.293 120.648 777.766 124.31 760.294L124.81 757.912C128.423 740.736 131.866 723.511 136.007 706.455C139.836 690.684 144.261 674.986 149.534 659.592C154.228 662.495 159.14 665.035 163.76 668.059C166.803 670.052 169.629 665.174 166.604 663.193C161.674 659.966 156.416 657.284 151.442 654.131C157.338 637.647 164.259 621.547 172.557 606.128C189.176 575.25 211.571 547.626 240.254 527.238C254.613 517.036 270.366 508.688 286.909 502.615C303.776 496.416 321.254 493.02 339.127 491.625C339.637 491.585 339.924 492.058 339.903 492.494L339.895 492.576L340.6 492.689C340.86 490.921 341.395 489.208 342.416 487.638C344.74 484.059 349.148 481.762 352.669 479.564L353.504 479.045C357.693 476.447 362.115 473.888 366.987 472.977C367.156 472.948 367.261 473.125 367.148 473.259C363.935 476.944 359.826 479.76 356.061 482.878L355.195 483.6C352.075 486.169 347.722 489.085 347.606 493.379C347.473 498.438 348.507 503.7 348.881 508.745C349.254 513.774 349.514 518.797 349.648 523.842C350.135 541.913 349.55 559.99 347.951 577.99L355.021 573.255C366.024 565.887 377.063 558.539 388.331 551.641C395.149 547.464 402.811 543.892 410.979 544.054C413.268 544.096 415.852 544.428 418.332 545.132C415.663 542.603 413.107 539.912 410.494 537.369C406.19 533.176 401.888 528.985 397.585 524.8L385.179 512.711L372.768 500.621C368.923 496.866 364.416 493.408 364.824 487.49C365.156 482.77 367.557 478.071 369.197 473.52C369.43 472.865 369.641 472.216 369.838 471.575C373.149 460.571 375.028 449.164 378.388 438.203ZM538.733 910.355C536.167 907.787 532.183 911.771 534.75 914.34L536.108 915.693C538.375 917.956 540.623 920.288 542.193 923.086L542.423 923.509C544.114 926.719 548.978 923.874 547.287 920.664C545.196 916.697 541.87 913.495 538.733 910.355ZM428.781 909.63C420.611 908.07 412.738 908.07 404.568 909.63C401.011 910.31 402.517 915.743 406.066 915.066C413.211 913.7 420.138 913.7 427.283 915.066C430.826 915.742 432.344 910.312 428.781 909.63ZM318.449 852.82C314.933 851.928 313.433 857.363 316.952 858.254L318.684 858.689C324.572 860.144 330.18 861.229 336.297 859.878C339.789 859.106 338.377 853.803 334.937 854.415L334.799 854.443C329.139 855.693 323.925 854.207 318.449 852.82ZM514.396 816.212C511.795 813.682 507.807 817.663 510.412 820.196C513.664 823.359 517.495 825.763 522.139 825.891C525.712 825.991 525.762 820.523 522.299 820.264L522.139 820.255C519.027 820.169 516.547 818.305 514.396 816.212ZM182.829 801.159C186.073 799.537 183.223 794.674 179.986 796.293L160.516 806.032V806.032C157.272 807.654 160.122 812.518 163.359 810.898L182.829 801.159V801.159ZM567.57 802.401C563.943 802.299 563.946 807.935 567.57 808.037C570.978 808.132 574.47 809.424 577.506 810.898C580.754 812.476 583.614 807.618 580.35 806.031C576.381 804.104 572.023 802.525 567.57 802.401ZM385.646 775.189C388.628 773.162 385.812 768.276 382.802 770.322C378.695 773.114 374.974 776.413 370.933 779.288L369.822 780.061C366.84 782.088 369.656 786.973 372.666 784.928C377.145 781.883 381.166 778.233 385.646 775.189ZM595.153 734.227C591.528 734.226 591.522 739.862 595.153 739.863L595.84 739.861C598.833 739.844 601.987 739.762 604.77 740.958L605.089 741.102C608.351 742.639 611.214 737.782 607.933 736.236C603.853 734.314 599.588 734.229 595.153 734.227ZM282.28 730.201L282.753 730.024C286.14 728.807 284.68 723.358 281.255 724.59C276.095 726.445 272.08 729.948 267.603 732.989C264.62 735.016 267.435 739.901 270.446 737.856C274.303 735.235 277.892 731.917 282.28 730.201V730.201ZM493.596 715.539L494.355 715.132C497.58 713.471 494.733 708.607 491.512 710.265C488.955 711.581 486.667 713.332 484.158 714.728L483.399 715.135C480.174 716.795 483.021 721.659 486.242 720.001C488.799 718.685 491.088 716.933 493.596 715.539V715.539ZM407.889 660.948L407.309 660.388C404.716 657.848 400.729 661.831 403.325 664.373C409.808 670.721 417.472 675.54 425.204 680.2L426.611 681.045C429.727 682.916 432.563 678.045 429.454 676.179L427.391 674.937C420.516 670.79 413.722 666.509 407.889 660.948V660.948ZM251.986 655.687C254.171 652.849 249.42 650.072 247.2 652.744L247.121 652.842C244.847 655.795 242.149 658.469 239.329 660.909L238.799 661.364C237.12 662.792 234.064 665.853 231.706 666.055C228.12 666.36 228.088 671.999 231.706 671.691C235.355 671.38 238.495 668.811 241.252 666.609C245.265 663.406 248.854 659.753 251.986 655.687ZM551.714 635.156C554.331 632.695 550.465 628.78 547.823 631.087L547.73 631.171C542.838 635.768 535.801 637.002 529.503 638.561C525.985 639.433 527.476 644.869 531.001 643.996L533.87 643.288C540.306 641.681 546.764 639.81 551.714 635.156ZM440.139 599.606C436.623 598.712 435.123 604.146 438.642 605.04C444.617 606.559 450.277 608.523 455.816 611.249C459.058 612.844 461.916 607.986 458.659 606.382C452.7 603.449 446.573 601.242 440.139 599.606ZM497.69 480.797C497.606 480.543 497.874 480.255 498.134 480.346C504.456 482.704 501.095 490.987 499.131 495.946L498.775 496.853C495.697 504.799 491.395 512.535 486.705 519.65C481.797 527.097 476.346 534.226 470.445 540.919C467.884 543.825 465.229 546.647 462.484 549.385L461.451 550.408C458.677 553.135 455.099 557.926 450.796 557.397C446.162 556.84 443.578 551.888 446.958 548.126C449.346 545.463 452.656 543.342 455.324 540.919C457.973 538.523 460.536 536.051 463.035 533.508C468.149 528.288 472.994 522.771 477.423 516.959C481.707 511.339 485.807 505.563 489.535 499.557L490.275 498.353C493.113 493.682 499.663 486.814 497.69 480.797ZM273.691 539.833C270.69 537.78 267.869 542.662 270.847 544.699C276.325 548.444 281.144 552.981 287.073 556.061C290.247 557.711 293.07 552.983 290.029 551.256L289.916 551.195C283.992 548.116 279.166 543.575 273.691 539.833Z" class="main_filling"/>
    <path fill-rule="evenodd" clip-rule="evenodd" d="M464.371 485.731C448.74 485.824 435.455 481.387 425.319 474.047C412.67 469.534 397.412 462.574 388.144 455.268C384.529 456.191 380.204 452.349 377.438 450.322C360.237 437.472 346.736 418.664 342.735 399.825C336.559 407.623 327.77 407.947 319.351 404.071C301.703 394.059 302.363 372.977 308.717 357.225C295.36 327.244 286.103 248.096 306.492 216.153C310.663 211.374 316.783 208.515 321.189 203.614C325.11 199.333 328.84 194.955 333.402 191.568C347.322 180.969 371.296 175.326 386.308 172.672C448.971 159.119 497.117 183.479 553.879 204.028C550.613 212.2 546.094 219.653 540.915 226.602C555.006 231.864 548.534 243.694 537.601 249.692L531.093 246.527C541.239 282.841 564.588 373.146 554.513 402.145C546.479 447.388 511.222 486.06 464.371 485.731" class="outlines"/>
    <path fill-rule="evenodd" clip-rule="evenodd" d="M473.426 489.627C453.13 491.712 429.018 486.912 415.488 470.418C415.084 469.925 414.907 469.366 414.896 468.826C414.884 468.226 415.086 467.646 415.434 467.195C415.799 466.72 416.32 466.39 416.917 466.283C417.419 466.192 417.992 466.25 418.583 466.582L419.827 467.275C429.067 472.38 438.664 476.735 449.136 478.598C459.918 480.516 470.897 480.302 481.584 477.865C501.049 473.429 516.802 462.111 528.398 447.187C541.337 430.533 549.107 409.392 551.088 388.25C553.488 362.629 547.921 337.163 542.16 312.355C536.108 286.287 529.492 260.353 521.807 234.72C521.576 233.948 521.514 233.226 521.58 232.561C519.314 231.672 516.901 231.919 514.5 232.73C510.113 234.212 505.743 237.553 502.098 240.311C500.778 241.31 499.55 242.239 498.446 242.994C493.926 246.088 488.986 248.314 483.461 248.665C477.715 249.028 472.082 247.241 466.864 245.006C464.213 243.87 461.604 242.692 459.006 241.518C451.608 238.177 444.298 234.868 436.309 232.718C425.604 229.836 414.552 228.416 403.466 228.518C383.68 228.699 363.834 233.794 351.707 250.534C346.795 257.315 343.593 265.109 346.09 273.478C347.449 278.031 350.013 282.164 352.812 285.965L353.772 287.26C355.307 289.347 356.641 291.425 357.043 293.637C357.38 295.491 357.117 297.452 355.794 299.601C354.961 300.954 353.901 302.167 352.836 303.376C352.067 304.249 351.296 305.119 350.633 306.057C349.296 307.947 348.113 309.982 347.185 312.105C345.367 316.261 344.596 320.731 344.435 325.24C344.24 330.679 345.004 336.001 345.763 341.329C346.3 345.108 346.837 348.89 347.053 352.718C347.091 353.386 346.887 353.884 346.601 354.252C346.251 354.703 345.741 354.987 345.159 355.065C344.983 355.089 344.8 355.093 344.617 355.077C344.707 355.445 344.787 355.815 344.856 356.186C344.488 355.714 344.098 355.255 343.685 354.812C343.659 354.799 343.633 354.785 343.607 354.771C343.182 354.537 342.821 354.181 342.594 353.723C342.01 353.18 341.392 352.665 340.743 352.18C337.367 349.661 333.425 348.167 329.47 348.117C325.658 348.07 321.836 349.368 318.897 352.111C313.057 357.562 311.346 366.46 311.285 374.1C311.223 381.899 313.028 391.259 319.825 396.101C322.551 398.043 325.881 399.21 329.236 399.244C332.017 399.272 334.678 398.288 337.298 397.35C338.106 397.061 338.91 396.773 339.712 396.512C340.623 396.215 341.454 396.234 342.178 396.451C342.994 396.695 343.687 397.2 344.204 397.874C344.719 398.545 345.057 399.384 345.162 400.264C345.263 401.115 345.147 401.999 344.786 402.797C344.696 402.997 344.6 403.192 344.501 403.383L345.996 405.842C351.72 415.234 357.545 424.454 365.183 432.527C369.567 437.16 374.214 441.533 379.311 445.36L380.046 445.906C380.486 446.229 380.974 446.628 381.494 447.054C382.981 448.27 384.763 449.902 386.427 449.966C386.92 449.985 387.351 449.924 387.743 449.872C388.691 449.748 389.485 449.711 390.266 450.03C390.894 450.286 391.546 450.765 392.216 451.754C392.668 452.423 392.901 453.262 392.901 454.113C392.901 454.969 392.666 455.825 392.247 456.501C391.381 457.901 390.333 458.768 389.197 459.261C387.93 459.81 386.529 459.893 385.073 459.622C381.487 458.953 377.517 455.981 374.991 454.042L374.502 453.667C368.904 449.396 363.599 444.67 358.936 439.384C350.993 430.383 343.86 419.776 340.196 408.186C337.614 409.883 334.423 410.689 331.088 410.816C326.228 411.001 321.084 409.75 317.294 407.952C308.94 403.989 303.867 396.493 301.489 387.874C298.727 377.864 299.625 366.357 303.121 357.365C303.222 357.103 303.328 356.843 303.436 356.578C292.675 329.302 289.366 299.014 290.287 269.905C290.719 256.28 291.646 241.985 294.859 228.696C296.299 222.74 298.802 217.068 302.797 212.379C305.075 209.705 307.87 207.624 310.678 205.548C313.11 203.75 315.551 201.956 317.605 199.711L318.576 198.645C318.787 198.413 318.997 198.181 319.206 197.95C322.754 194.039 326.207 190.244 330.512 187.036C335.504 183.317 341.013 180.406 346.737 177.989C359.069 172.782 372.341 169.66 385.471 167.245C413.876 162.021 443.036 161.764 471.093 169.107C484.138 172.52 496.798 177.193 509.436 181.86C510.61 182.293 511.783 182.727 512.956 183.159C522.778 186.776 532.605 190.379 542.432 193.981C546.999 195.655 551.566 197.329 556.132 199.005C557.123 199.369 558.093 200.152 558.646 201.126C559.185 202.076 559.345 203.183 558.91 204.286C556.108 211.388 552.573 218.051 548.269 224.274C549.765 225.291 551.037 226.645 552 228.229C553.217 230.232 553.939 232.604 553.988 235.12C554.152 243.546 546.486 249.259 540.127 253.39C539.534 253.776 538.947 254.003 538.38 254.108C544.542 277.678 550.441 301.329 555.453 325.167L555.798 326.819C560.962 351.767 564.293 377.226 559.41 402.505C555.205 424.273 545.437 445.282 530.173 461.498C515.215 477.392 495.143 487.397 473.426 489.627ZM339.785 346.113C337.127 337.676 335.719 328.496 336.736 319.944C337.376 314.568 338.992 309.393 341.622 304.655C343.129 301.941 344.965 299.429 346.969 297.062L347.661 296.268C348.011 295.862 348.359 295.489 348.467 295.021C348.529 294.749 348.466 294.452 348.301 294.097C347.935 293.31 347.255 292.552 346.618 291.813C346.214 291.342 345.819 290.881 345.487 290.432C339.662 282.544 335.319 273.154 336.731 263.152C338.108 253.394 344.501 244.297 351.307 237.442C366.293 222.348 389.528 218.879 409.881 219.711C421.73 220.196 433.559 222.285 444.842 225.934C450.406 227.734 455.847 229.926 461.134 232.438L462.304 233C462.936 233.306 463.567 233.616 464.198 233.926C468.331 235.953 472.479 238 476.965 239.102C485.725 241.254 491.668 236.722 497.914 232.151C500.055 230.584 502.228 228.996 504.538 227.602L505.014 227.321C509.181 224.904 514.166 223.278 518.954 223.351C523.114 223.414 527.127 224.742 530.394 227.882C531.064 228.527 531.451 229.231 531.632 229.931C531.993 230.438 532.285 231.043 532.475 231.757C533.645 236.15 534.81 240.547 535.972 244.944L536.921 244.332C539.734 242.504 542.792 240.416 544.173 237.358C544.704 236.182 544.629 234.221 543.959 232.78C543.725 232.276 543.416 231.828 542.988 231.549C542.676 231.345 542.301 231.25 541.865 231.285C540.805 231.421 539.832 231.266 539.007 230.917C538.055 230.515 537.296 229.853 536.803 229.055C536.299 228.238 536.069 227.277 536.193 226.281C536.299 225.425 536.667 224.53 537.396 223.69C542.194 218.157 546.235 212.053 549.306 205.428L528.992 197.91C521.749 195.23 514.504 192.554 507.256 189.888L503.288 188.43C490.109 183.594 476.854 178.868 463.149 175.755C435.911 169.568 407.508 171.022 380.345 176.846L378.705 177.2C367.306 179.687 355.755 182.695 345.293 187.924C340.158 190.49 335.276 193.611 331.085 197.554C329.233 199.296 327.56 201.202 325.885 203.106C323.539 205.774 321.19 208.435 318.4 210.683L315.81 212.757C311.958 215.863 308.483 218.888 306.31 223.704C304.037 228.739 302.952 234.301 302.067 239.721C299.834 253.373 298.953 267.244 299.037 281.072C299.179 304.291 302.706 327.037 307.16 349.703C310.735 344.586 315.755 340.619 322.199 339.773C326.4 339.222 330.565 340.006 334.177 341.864C336.265 342.938 338.167 344.371 339.785 346.113V346.113ZM333.034 373.684C328.328 371.86 323.387 371.263 318.409 372.135C317.887 372.226 317.39 372.117 316.972 371.874C316.548 371.628 316.214 371.238 316.032 370.808C315.823 370.31 315.812 369.772 315.997 369.294C316.157 368.879 316.463 368.476 317.026 368.207C322.417 365.633 328.409 364.498 334.356 365.306L334.944 365.389C337.984 365.84 342.259 366.79 345.466 368.658C347.985 370.127 349.828 372.151 350.287 374.795C350.526 376.172 350.184 377.611 349.391 378.653C348.623 379.661 347.45 380.333 345.931 380.29C343.252 380.214 341.666 379.081 339.758 377.614C339.526 377.436 339.289 377.254 339.042 377.069C337.198 375.689 335.183 374.517 333.034 373.684Z" class="main_filling"/>
    <path fill-rule="evenodd" clip-rule="evenodd" d="M477.174 427.58C472.44 425.648 468.216 422.426 465.128 418.309C464.054 416.878 463.776 415.367 464.001 413.984C464.254 412.43 465.173 411.021 466.427 410.077C467.684 409.129 469.257 408.661 470.778 408.9C472.099 409.107 473.414 409.83 474.455 411.331L474.673 411.632C476.509 414.116 478.901 416.155 481.627 417.469C484.254 418.736 487.193 419.327 490.234 418.983C496.025 418.328 500.017 415.195 504.26 410.94C504.786 410.403 505.312 409.849 505.841 409.286C506.175 408.776 506.638 408.448 507.152 408.276C507.724 408.085 508.37 408.095 508.962 408.302C509.533 408.501 510.043 408.879 510.386 409.382C510.711 409.86 510.895 410.45 510.835 411.129C510.447 415.538 508.143 419.474 504.869 422.564C501.234 425.996 496.414 428.37 491.877 429.203C486.879 430.12 481.786 429.463 477.174 427.58V427.58ZM494.235 359.554C499.553 362.788 507.656 370.328 501.935 378.345C495.201 385.414 485.506 377.309 480.728 373.644C476.298 370.803 471.321 378.109 475.431 381.426C509.955 406.996 523.965 360.4 496.925 355.752C493.948 355.24 492.842 358.554 494.235 359.554ZM432.368 329.81C432.956 322.514 444.064 320.857 445.168 328.077C446.158 334.544 444.993 340.485 442.081 346.308C439.299 351.87 432.305 349.275 431.777 344.21C431.068 337.42 432.003 334.348 432.368 329.81ZM516.92 326.58C518.469 324.551 520.705 323.166 523.384 323.948C531.753 326.395 529.287 338.282 526.347 344.068C524.75 347.21 519.587 348.007 517.254 345.24C513.451 340.729 511.63 331.719 516.465 327.275C516.596 327.045 516.741 326.814 516.92 326.58ZM441.963 297.885L443.285 297.653C447.375 296.945 452.461 296.266 455.354 299.555C456.889 301.299 457.417 304.541 455.354 306.211C451.726 309.149 447.715 308.01 443.367 308.259C439.784 308.465 436.34 309.058 432.889 310.045C425.317 312.21 419.147 316.162 412.68 320.502C411.832 321.071 410.965 319.985 411.37 319.192C415.103 311.877 422.338 305.868 429.584 302.205C433.452 300.25 437.684 298.629 441.963 297.885ZM509.291 294.608L510.303 294.815C521.315 297.118 535.622 301.718 540.837 312.538C541.036 314.069 540.826 314.396 540.655 314.611L540.598 314.682C540.457 314.865 540.345 315.117 539.682 315.325C539.498 315.282 539.312 315.235 539.125 315.186C536.734 314.559 534.843 313.696 533.012 312.8L531.027 311.822C528.724 310.692 526.4 309.603 523.938 308.8C518.683 307.085 513.277 305.877 507.789 305.232C506.599 305.092 505.453 304.691 504.549 304.002C503.692 303.349 503.036 302.444 502.737 301.242C502.35 299.685 502.461 298.507 503.296 297.103C503.924 296.049 504.822 295.318 505.853 294.898C506.904 294.47 508.101 294.369 509.291 294.608Z" class="main_filling"/>
    <path fill-rule="evenodd" clip-rule="evenodd" d="M340.443 353.487C345.42 353.487 347.459 365.079 347.459 365.079C360.118 386.916 372.303 408.691 394.045 423.715C418.18 433.39 441.919 449.868 469.419 451.675C481.817 450.372 485.453 439.021 500.764 443.015C510.532 445.389 521.5 450.072 530.531 443.308C538.165 438.316 543.536 430.754 550.12 424.64C550.456 423.537 552.643 435.178 551.982 439.113L551.472 441.348C547.395 459.363 543.272 480.564 525.028 490.467C519.47 493.396 511.672 496.223 505.505 494.572C472.915 499.771 437.565 495.967 409.013 479.704C398.961 477.091 391.484 469.072 383.569 463.015C364.209 446.051 342.022 424.562 339.954 398.79C337.887 373.019 338.808 353.487 340.443 353.487ZM438.912 404.373C450.005 386.554 472.043 389.448 489.191 397.566C498.664 391.132 511.162 392.316 521.44 396.849L521.439 396.855C530.906 402.037 538.076 410.545 544.667 418.682C546.271 420.844 546.909 423.748 544.654 424.814C534.029 433.574 511.956 428.433 501.939 421.92C494.711 421.337 496.296 411.072 487.953 418.257C482.387 423.491 475.394 426.737 467.798 428.661C450.814 434.494 435.178 433.525 420.387 424.432C418.484 424.248 410.69 419.837 413.459 418.268C416.472 419.082 433.161 409.499 438.912 404.373Z" class="outlines"/>
    <path fill-rule="evenodd" clip-rule="evenodd" d="M337.849 372.644C337.962 371.707 339.417 371.661 339.449 372.644C340.123 393.262 346.835 415.866 358.185 433.519C385.463 478.077 441.14 500.398 494.728 492.729C533.889 492.198 538.073 469.999 547.807 439.002C552.859 434.852 555.341 436.339 553.772 441.203C541.706 478.607 537.574 500.061 489.832 499.653C413.172 510.6 330.038 447.896 337.849 372.644ZM446.152 389.27C458.659 383.684 473.541 384.473 483.988 392.196L484.725 392.364C486.554 392.773 488.31 393.085 490.366 392.875C518.01 378.317 536.465 403.707 550.639 422.717C551.708 422.754 552.579 423.593 552.29 424.576L552.743 425.061C550.958 429.852 547.732 434.476 543.321 437.381C528.858 456.646 518.058 450.624 499.215 442.692C479.839 439.79 479.055 462.639 452.024 452.172L451.004 451.839C442.112 448.901 431.904 444.445 425.438 438.005C425.227 437.794 425.434 437.387 425.757 437.492C440.757 442.016 460.043 456.787 475.311 446.836C479.171 444.245 482.638 441.099 486.952 439.148C511.584 430.903 520.24 463.465 541.794 429.659C524.243 432.719 504.461 429.677 491.342 417.722C471.731 441.351 433.561 437.565 409.293 422.889C405.973 423.367 401.062 420.083 404.119 416.956C407.462 414.298 412.752 415.34 416.862 413.898C429.982 409.229 433.08 394.346 446.152 389.27ZM489.997 399.151C476.136 389.286 455.404 387.625 442.138 399.262C433.853 407.586 428.479 419.531 415.123 421.733C438.06 434.94 471.016 435.162 488.677 414.148C489.232 412.331 492.106 413.115 492.453 414.694C505.099 423.521 521.274 428.211 537.025 425.505C539.564 425.088 542.071 424.495 544.516 423.733L542.191 420.537C529.831 403.617 513.928 383.915 490.352 397.83C489.818 398.1 489.594 397.41 489.527 397.055L489.237 397.267C489.446 397.704 491.183 399.144 489.997 399.151ZM546.76 428.531C546.875 428.634 546.971 428.748 547.052 428.865C547.44 428.664 547.842 428.458 548.256 428.262L548.144 428.179C547.699 428.306 547.236 428.422 546.76 428.531ZM339.634 347.06L339.629 346.383C339.629 339.578 341.457 348.158 342.278 349.846C345.808 356.202 348.758 362.492 352.497 368.689C367.489 395.67 369.81 407.365 400.018 422.735C402.262 424.658 399.905 428.108 397.117 427.399C392.947 426.338 389.014 423.681 385.382 421.537C364.812 410.924 357.139 389.273 347.91 370.43C345.199 362.958 338.948 354.986 339.634 347.06Z" class="main_filling"/>
    <path fill-rule="evenodd" clip-rule="evenodd" d="M569.077 341.177C562.363 386.61 515.494 391.634 507.167 346.531C508.503 345.945 509.465 344.793 509.264 342.555C509.217 332.726 512.267 322.338 521.13 316.871C530.289 311.231 541.008 310.672 551.608 310.814C571.834 310.332 571.409 327.245 569.077 341.177M499.829 321.418C493.482 321.151 485.451 321.375 479.764 325.244C478.201 321.032 474.139 316.535 470.034 314.131C485.289 314.578 500.992 313.076 516.361 311.91C512.682 314.418 509.26 318.187 507.035 322.545C504.971 321.444 502.015 321.546 499.829 321.418M471.849 345.994C454.247 406.607 410.31 380.188 405.52 372.42C396.879 359.566 395.254 328.318 402.78 319.963C413.553 312.408 428.805 314.353 441.532 314.168C464.913 314.483 481.518 321.48 471.849 345.994M589.861 318.116C585.079 317.491 579.968 317.365 575.522 319.471C574.153 313.65 569.855 308.783 565.002 306.641C564.415 305.904 564.503 305.509 562.496 305.619C550.176 301.915 536.389 303.875 524.55 307.673C505.851 309.249 486.234 310.491 467.378 312.661C449.715 304.726 396.41 303.563 393.097 323.122C388.93 322.498 381.834 319.217 378.332 323.668C352.648 319.312 326.11 325.366 300.315 328.062C293.822 329.258 290.477 342.149 297.848 341.973C301.991 340.848 297.72 333.946 303.3 333.426C328.188 330.707 352.532 326.849 377.675 326.398C376.8 330.741 394.304 331.023 394.563 328.487C394.6 328.506 394.639 328.519 394.677 328.536C390.352 344.662 394.256 367.87 402.073 377.869C413.025 390.963 440.522 394.719 452.714 386.295C468.441 378.519 484.803 339.489 480.207 326.522C488.548 323.877 496.794 324.671 505.45 326.018C503.468 331.618 500.047 345.404 504.969 346.599C504.065 373.969 528.965 391.047 551.918 379.819C571.785 370.49 578.733 340.958 576.302 323.034C578.775 327.814 599.541 322.61 589.861 318.116" class="main_filling"/>
</svg>
