<svg width="800" height="1080" viewBox="0 0 800 1080" fill="none" xmlns="http://www.w3.org/2000/svg">
    <style>
        .outlines {
            fill: #f9fafb;
        }

        .main_filling {
            fill: #232526;
        }


        @media (prefers-color-scheme: dark) {
            .outlines {
                fill: #f9fafb;
            }

            .main_filling {
                fill: #ff8000;
            }
        }
    </style>
    <path fill-rule="evenodd" clip-rule="evenodd" d="M568.262 603.741C562.147 601.56 556.253 599.041 550.882 595.335C535.401 583.808 525.307 566.459 515.769 550.022C502.334 526.117 492.763 500.643 486.146 474.07C483.303 462.652 482.338 449.415 475.879 439.293C461.236 418.098 418.301 420.844 395.501 424.564C380.234 427.267 377.078 444.359 373.61 457.007C370.723 467.516 368.833 478.144 367.246 488.915C363.472 491.397 359.21 493.414 355.148 495.17C310.882 508.749 303.101 533.924 286.194 572.811C257.636 629.332 180.147 651.463 168.442 718.355C160.901 762.516 182.346 804.063 204.457 840.776C225.048 880.877 253.796 900.124 299.577 890.649C342.517 881.013 383.784 864.894 425.969 852.437C446.401 847.412 466.8 834.341 488.292 838.898C532.577 848.848 578.078 853.526 623.463 852.234C687.184 854.812 687.174 793.63 680.634 746.25C676.053 672.516 638.877 625.171 568.262 603.741V603.741Z" class="outlines"/>
    <path fill-rule="evenodd" clip-rule="evenodd" d="M572.523 710.434C577.848 713.957 582.326 719.298 585.921 724.918C570.912 723.356 555.93 721.556 540.981 719.506C542.938 718.254 544.913 717.031 546.934 715.875C554.305 711.72 564.292 704.99 572.523 710.434ZM323.167 754.817C320.417 753.739 319.353 749.545 318.281 747.14C314.921 739.6 311.854 731.932 308.663 724.318C320.779 720.863 332.56 717.03 345.111 715.188C358.606 713.21 372.301 712.731 385.92 713.176C413.508 714.076 440.839 718.586 467.961 723.423C495.052 728.253 522.141 732.895 549.422 736.537C576.149 740.105 602.961 742.717 629.823 745.009C635.042 745.455 643.744 747.333 647.941 743.224C651.265 739.97 651.372 733.968 647.214 731.323C644.624 729.674 640.871 729.65 637.912 729.269C634.185 728.789 630.443 728.47 626.694 728.222C625.167 728.121 623.639 728.028 622.111 727.935C634.377 723.308 647.187 720.786 660.484 721.489C661.236 726.059 664.624 730.761 666.479 734.53C669.717 741.11 672.241 747.769 673.898 754.924C677.361 769.88 677.512 785.401 676.534 800.654C675.635 813.372 673.705 827.439 663.733 836.446C656.183 843.266 645.531 845.791 635.648 846.585C624.162 847.508 612.499 846.522 601.11 844.982C585.135 842.821 569.086 839.964 553.425 836.134C523.093 828.717 494.02 816.916 467.197 800.915C454.116 793.113 441.634 784.334 428.374 776.829C414.862 769.179 400.484 763.245 385.387 759.561C368.492 755.437 350.83 753.677 333.465 754.695C330.452 754.871 326.098 755.964 323.167 754.817ZM303.589 747.16C305.364 752.924 306.722 759.504 310.512 764.347C314.265 769.146 319.928 770.84 325.794 771.267C332.867 771.78 340.024 771.451 347.112 771.715C361.651 772.255 375.991 774.617 389.889 778.951C402.841 782.99 414.865 789.289 426.446 796.278C437.156 802.741 447.552 809.68 458.265 816.123C455.414 817.431 452.595 818.845 449.76 820.077C443.815 822.659 437.834 825.151 431.825 827.581C419.977 832.372 408.078 837.046 396.058 841.388C371.82 850.145 347.183 857.795 322.25 864.312C310.358 867.42 298.298 871.05 285.943 871.567C274.989 872.025 264.841 868.927 256.006 862.411C237.681 848.896 223.101 829.389 211.315 810.147C204.313 798.715 198.203 786.703 193.148 774.283C190.592 768.003 188.274 761.626 186.187 755.174C185.208 752.144 184.28 749.098 183.401 746.038C183.015 744.692 182.644 743.342 182.277 741.991C201.016 736.271 219.977 731.107 239.384 728.24C249.745 726.709 260.244 725.934 270.719 726.047C275.918 726.103 281.115 726.384 286.286 726.92C289.07 727.209 291.843 727.581 294.603 728.042C295.744 728.232 296.917 728.512 298.093 728.718C299.889 734.876 301.701 741.029 303.589 747.16ZM690.942 722.676C691.952 720.632 692.378 718.621 692.74 716.397C693.016 714.699 693.748 712.31 693.107 710.107C692.389 707.639 690.432 705.432 689.027 703.327C687.475 701 685.925 698.673 684.377 696.344C681.281 691.686 678.191 687.025 675.107 682.359C662.51 663.309 650 644.204 637.47 625.11C626.35 608.166 615.417 591.07 603.959 574.354C594.161 560.059 583.482 546.001 570.07 534.884C553.113 520.828 532.922 514.206 511.831 509.039C509.527 506.648 506.451 505.341 503.162 505.606C498.515 500.335 494.822 496.652 493.148 489.948C492.346 486.737 492.598 477.714 489.472 475.814C485.758 473.557 483.819 476.545 482.795 479.912C479.369 491.177 483.301 506.322 492.351 517.606C488.538 530.788 483.483 549.522 474.465 560.083C464.809 571.391 451.455 574.91 437.046 575.142C409.569 575.584 382.12 565.368 361.162 547.663C354.791 542.282 348.875 536.272 343.522 529.88C339.508 525.084 334.758 517.684 331.617 512.09C331.617 509.91 329.045 507.63 355.237 505.869C381.43 504.108 383.416 468.23 383.998 463.347C384.472 459.382 386.484 453.227 383.691 449.994C382.506 448.621 380.074 448.4 378.571 449.333C375.737 451.093 374.806 455.595 373.915 458.652C372.667 462.935 368.588 489.513 360.858 492.591C357.239 494.031 353.088 494.058 349.26 494.324C344.532 494.655 339.795 494.897 335.086 495.447C333.35 495.65 331.455 496.212 329.742 496.228C328.627 496.239 327.477 495.697 326.4 495.316C322.763 494.031 319.129 494.995 315.383 495.499C282.259 499.952 248.153 510.116 219.899 528.404C194.996 544.523 177.452 567.705 165.875 594.808C154.063 622.468 147.293 652.379 141.619 681.825C139.718 691.69 138.058 701.602 136.632 711.547C135.254 721.158 133.53 730.983 133.117 740.69C132.954 744.531 133.872 748.099 135.284 751.608C136.874 755.556 140.632 757.113 144.237 758.957C152.151 763.006 160.498 766.147 169.099 768.371C174.353 777.933 178.775 787.869 182.329 798.181C181.01 800.794 180.983 804.696 180.729 807.236C180.101 813.56 179.832 819.917 179.775 826.271C179.662 839.004 180.427 851.726 181.027 864.44C181.636 877.335 183.658 928.213 183.988 934.426C184.244 939.253 183.899 946.004 186.441 950.289C190.346 956.875 199.986 956.653 204.451 951.313C315.383 975.17 523.905 967.984 607.886 955.981C618.813 954.419 615.382 956.152 618.161 953.39C620.246 951.316 622.021 947.765 622.598 944.911C623.368 941.101 622.125 937.653 619.944 934.57C617.652 931.329 617.234 926.081 616.383 922.227C614.37 913.117 613.369 873.109 612.428 868.675C612.135 867.294 611.851 865.833 611.509 864.372C626.914 865.832 642.965 865.832 657.621 860.678C665.932 857.755 673.682 853.163 679.648 846.608C686.872 838.67 690.891 828.678 692.958 818.248C695.625 804.798 696.191 790.867 695.667 777.194C694.939 761.036 692.26 744.65 685.611 729.814C687.799 727.781 689.633 725.329 690.942 722.676Z" class="main_filling"/>
    <path fill-rule="evenodd" clip-rule="evenodd" d="M346.783 145.493C391.159 143.07 430.475 130.597 461.712 158.512C461.712 158.512 512.245 120.76 520.677 135.139C526.327 144.773 518.492 157.707 520.593 169.596C534.291 192.957 533.517 232.5 534.291 241.766C536.243 265.123 548.539 353.014 548.539 373.885C548.539 384.539 539.759 412.44 534.291 427.968C522.121 462.528 498.889 480.141 460.789 480.141C422.69 480.141 360.505 448.285 340.561 420.002C338.813 417.523 327.51 424.755 315.687 412.21C302.88 398.621 295.775 372.701 295.775 357.25C295.775 337.643 283.108 324.046 284.582 298.949C287.872 242.9 299.298 148.087 346.783 145.493Z" class="outlines"/>
    <path fill-rule="evenodd" clip-rule="evenodd" d="M341.825 80.3285C342.403 80.2933 342.987 80.3215 343.572 80.3785C344.212 80.4067 344.853 80.4694 345.494 80.5969C348.755 81.2232 351.663 82.9492 353.917 85.3798C353.98 85.4432 354.029 85.5143 354.086 85.577C355.142 86.3731 356.121 87.2756 357.001 88.233C357.156 88.0851 357.304 87.9378 357.466 87.7899C357.931 87.3806 358.417 86.9931 358.924 86.6274C361.046 84.8073 363.535 83.4842 366.212 82.7313L366.579 82.6322C366.649 82.6111 366.719 82.597 366.79 82.5829C368.691 81.9496 370.691 81.6255 372.705 81.6318C375.114 81.5543 377.529 81.9496 379.783 82.8788C382.452 83.9856 384.776 85.732 386.727 87.8321C388.008 88.8748 389.128 90.0224 390.311 91.2842C392.755 93.8972 394.684 96.9547 395.903 100.323C396.072 100.795 396.219 101.28 396.353 101.766C399.332 101.422 402.325 101.175 405.318 101.055C408.677 100.851 412.036 100.78 415.403 100.894C424.677 101.196 433.748 102.831 442.529 105.825C444.29 106.346 446.001 107.008 447.649 107.825C450.234 108.854 452.677 110.164 454.98 111.749L456.942 112.913C457.927 113.499 458.912 114.092 459.867 114.701C462.142 116.16 464.297 117.794 466.339 119.555C468.494 121.296 470.529 123.191 472.466 125.177C472.992 125.715 473.5 126.259 474 126.807C478.465 129.217 482.43 132.303 486.129 135.983C489.062 134.295 492.099 132.765 495.234 131.405C498.466 130.003 502.572 128.559 505.959 127.608C509.001 126.756 512.008 126.171 515.057 125.741C516.445 125.501 517.839 125.311 519.241 125.149L519.184 125.171V125.171C520.17 125.064 521.149 124.973 522.142 124.888L522.114 124.881V124.881C522.536 124.847 522.966 124.811 523.388 124.783L524.417 124.699V124.699C524.727 124.671 525.177 125.395 525.205 125.649L525.241 125.91V125.91C525.473 126.171 525.684 126.46 525.832 126.636C526.015 126.621 526.198 126.608 526.381 126.6C526.931 126.552 527.565 127.53 527.888 127.903L528.181 128.248C528.515 128.649 528.848 129.111 528.903 129.615C529.262 132.54 529.6 135.47 529.91 138.401C530.029 140.62 529.91 142.818 529.543 144.995C529.269 147.108 528.987 149.222 528.705 151.328C528.255 152.808 527.811 154.288 527.367 155.766C527.191 156.331 526.994 156.887 526.804 157.443C525.678 161.16 524.357 164.778 522.785 168.285C523.932 169.554 525.002 170.87 525.997 172.229C526.235 172.474 526.474 172.717 526.698 172.97C526.762 172.872 526.853 172.781 526.952 172.731C527.29 172.583 527.536 172.759 527.748 173.049C529.966 175.168 531.579 177.642 532.579 180.466L533.201 181.939C533.305 182.186 533.407 182.432 533.508 182.678C534.304 184.821 534.917 187.019 535.424 189.244C535.877 190.996 536.203 192.771 536.412 194.565C537.934 199.675 539.136 204.903 540.271 210.06C540.45 210.871 540.365 211.595 540.105 212.213L540.769 212.859V212.859L541.902 213.988C543.806 215.888 545.749 217.884 547.163 220.144C548.628 222.49 549.705 224.998 550.903 227.485L551.16 228.014V228.014L551.688 229.073C552.258 230.23 552.531 230.87 553.036 232.268C553.874 234.601 554.325 236.946 554.536 239.42C554.846 243.019 554.804 246.943 553.227 250.289C553.219 250.318 553.205 250.339 553.191 250.36C552.473 253.594 550.698 256.595 548.001 258.511C547.424 259.054 546.804 259.54 546.142 259.927C544.553 260.86 543.094 260.944 541.36 260.512L541.142 260.455C540.924 260.399 540.727 260.35 540.536 260.307C540.818 260.54 540.959 260.815 540.536 261.012C540.128 261.209 539.762 261.322 539.417 261.364C539.565 261.554 539.579 261.759 539.269 261.928C538.593 262.287 538.043 262.4 537.48 262.301L537.598 263.281C538.522 270.692 539.349 272.158 540.072 280.119C540.55 288.269 541.311 296.399 542.36 304.494L542.722 307.436C543.88 316.759 545.183 326.15 547.177 335.323C548.184 339.331 549.05 343.368 549.783 347.433C550.818 350.526 551.543 353.689 551.945 356.916C552.529 360.199 552.931 363.51 553.163 366.849C553.973 368.984 554.367 371.154 554.346 373.366C554.452 376.339 554.353 379.305 554.036 382.257C553.86 385.328 553.438 388.372 552.769 391.387C552.17 395.523 551.079 399.517 549.515 403.392C548.262 407.717 546.727 411.959 544.98 416.108C542.269 422.533 538.994 428.5 535.269 434.383C531.776 439.899 528.029 445.211 523.748 450.15C518.212 456.532 511.903 462.379 504.987 467.311C501.043 470.228 496.881 472.848 492.529 475.089C487.205 477.836 481.797 480.309 476.029 481.979C472.431 483.021 468.769 483.74 465.065 484.29C457.79 485.367 450.255 485.205 442.938 483.944C438.219 483.31 433.579 482.211 429.191 480.64C425.586 479.344 422.149 477.857 418.712 476.181C416.945 475.328 415.241 474.342 413.607 473.236C410.86 471.453 408.29 469.439 405.896 467.212C405.114 466.543 404.353 465.86 403.607 465.141C403.248 464.824 403.445 464.352 403.86 464.24L403.987 464.225V464.225C403.825 464.077 403.656 463.929 403.494 463.774C403.459 463.746 403.431 463.712 403.403 463.676C403.325 463.605 403.241 463.536 403.17 463.465C402.896 463.225 403.17 462.689 403.41 462.563C403.501 462.513 403.621 462.507 403.755 462.52C403.727 462.492 403.705 462.471 403.677 462.451C403.649 462.429 403.642 462.372 403.649 462.316L403.543 462.232V462.232C403.184 461.914 403.367 461.45 403.79 461.33C403.996 461.267 404.337 461.299 404.692 461.376L404.825 461.407L404.586 461.182C404.163 460.815 404.297 460.407 404.818 460.281C405.207 460.303 405.591 460.357 405.971 460.45L406.255 460.527C406.396 460.562 406.529 460.604 406.67 460.647C406.431 460.428 406.191 460.217 405.959 459.998C405.727 459.795 405.973 459.209 406.184 459.09C406.473 458.928 407.036 459.153 407.297 459.343C407.938 459.414 408.783 459.695 409.093 459.963C409.945 460.78 410.825 461.562 411.719 462.323C412.262 462.492 412.776 462.718 413.17 463.056C414.184 464.028 415.241 464.945 416.318 465.831L417.137 466.396C417.274 466.489 417.412 466.581 417.55 466.67C419.1 467.579 420.649 468.48 422.191 469.389C427.846 471.305 433.501 473.222 439.149 475.132L439.896 475.356V475.356L445.381 476.033V476.033C448.987 476.413 452.6 476.393 456.205 475.976C458.91 476.012 461.593 475.744 464.234 475.194C468.719 474.433 473.121 473.314 477.403 471.749C482.332 469.953 487.029 467.586 491.614 465.036C493.262 464.112 494.881 463.133 496.473 462.098C496.987 461.732 497.501 461.358 498.015 460.977C501.403 458.434 504.642 455.722 507.762 452.855C509.227 451.509 510.635 450.108 511.994 448.656C512.191 448.444 512.381 448.241 512.572 448.029C513.874 446.606 515.135 445.134 516.339 443.611L517.487 442.316V442.316C522.121 436.546 526.241 430.339 529.945 423.949C533.621 417.615 536.649 410.951 539.057 404.054C539.832 401.595 540.508 399.102 541.072 396.58C542.114 393.55 542.797 390.444 543.114 387.273C543.219 386.653 543.304 386.033 543.388 385.413L543.437 384.435C543.444 384.272 543.45 384.109 543.452 383.947C543.593 382.962 543.712 381.975 543.804 380.988C543.86 379.996 543.896 379.002 543.903 378.008L543.825 371.914V371.914C543.804 371.724 543.783 371.528 543.769 371.33L543.614 369.985C543.276 367.208 543.015 364.426 542.677 361.651C542.677 361.636 542.677 361.615 542.67 361.593C542.543 360.558 542.41 359.515 542.255 358.473C542.177 357.853 542.079 357.233 541.987 356.613L541.811 355.528V355.528C541.484 353.642 541.088 351.771 540.607 349.917L540.396 349.124L539.17 342.959L537.79 336.894C536.896 332.829 536.149 328.736 535.557 324.607C534.487 318.028 533.572 311.44 532.776 304.825C532.734 304.508 532.691 304.184 532.656 303.867C531.846 297.731 531.262 291.573 530.881 285.395C530.367 279.308 530.072 273.207 529.994 267.099C529.987 266.824 530.17 266.599 530.388 266.472L530.369 265.298C530.343 264.259 530.324 265.505 530.315 264.321L530.302 261.063C530.303 260.792 530.305 260.603 530.311 260.589C526.548 260.849 524.018 260.636 520.385 260.445L519.769 260.413C516.438 260.259 513.128 259.892 509.839 259.342C509.825 259.512 509.712 259.631 509.522 259.666C509.184 259.68 508.867 259.68 508.543 259.688L508.663 260.145V260.145C508.67 260.379 508.565 260.526 508.339 260.589L507.4 260.631C506.146 260.684 504.887 260.709 503.642 260.54C502.522 260.393 501.431 260.131 500.346 259.821C499.677 259.709 498.994 259.554 498.297 259.356C496.508 258.842 494.734 258.152 492.938 257.603C491.107 257.215 489.248 257.089 487.304 257.553C485.248 258.039 483.508 258.92 481.353 258.384C480.924 258.279 480.508 258.117 480.093 257.947L479.708 257.92C479.643 257.915 479.576 257.908 479.508 257.898C477.262 257.575 475.262 256.152 473.121 255.39C472.373 255.208 471.632 255.254 470.907 255.556L470.727 255.637L470.015 256.166C469.729 256.503 469.446 256.844 469.165 257.187L468.748 257.701C467.98 258.652 467.163 259.504 466.17 260.124C464.973 261.23 463.55 261.878 461.853 261.921C460.888 261.949 459.931 261.745 459.001 261.449C455.494 262.534 451.741 262.753 448.241 261.696C446.853 261.484 445.494 261.111 444.191 260.526C443.579 260.251 442.966 259.927 442.374 259.568C439.903 260.611 437.565 261.998 435.177 263.197L434.64 263.467C432.2 264.682 429.501 265.868 426.741 265.69C423.262 265.464 419.846 265 416.438 264.415C416.41 264.415 416.374 264.408 416.346 264.401L415.877 264.322V264.322L414.172 264.023V264.023L412.797 263.767V263.767L412.094 264.037C406.45 266.173 400.265 267.84 394.593 266.345C392.121 266.043 389.804 265.211 387.712 263.795C387.642 263.745 387.572 263.696 387.501 263.64C387.17 263.471 386.86 263.281 386.586 263.077L386.527 263.031V263.031L386.473 262.984L386.445 262.97C383.353 261.548 381.579 258.518 381.888 255.123C381.698 254.044 381.705 252.988 381.917 251.861C380.91 253.051 379.881 254.228 378.839 255.397C375.027 259.989 371.293 264.673 367.836 269.55L367.043 270.678C365.142 273.362 363.374 276.138 361.741 278.998C360.086 281.823 358.388 284.62 356.635 287.382C354.355 289.903 352.151 292.484 350.026 295.128L349.121 296.265L346.065 300.288C343.903 302.853 342.107 305.657 340.691 308.7C339.529 310.863 338.459 313.068 337.494 315.33C337.184 316.012 336.888 316.703 336.6 317.393C335.607 320.091 334.769 322.84 334.114 325.678C333.588 327.732 333.21 329.815 332.986 331.927L332.917 332.632C332.832 333.463 332.769 334.294 332.734 335.125C332.938 335.246 333.107 335.365 333.234 335.485L333.748 335.669V335.669L334.163 335.792C334.811 335.993 335.93 336.409 335.663 336.922L334.304 339.515V339.515C334.445 339.663 334.508 339.817 334.417 339.987C333.508 341.727 332.593 343.467 331.677 345.208C331.649 345.271 331.6 345.32 331.55 345.355C332.332 345.714 333.093 346.109 333.818 346.538C335.234 347.384 336.276 348.363 337.241 349.504C338.255 350.111 339.212 350.773 340.114 351.533C341.227 352.703 342.198 353.986 343.022 355.373C343.783 356.683 344.403 358.05 344.881 359.48C345.093 360.234 345.191 361.016 345.184 361.812C344.332 367.829 337.452 363.707 337.318 363.179C336.374 359.543 335.29 357.247 332.853 354.542L332.79 354.499V354.499C331.381 353.879 329.987 353.266 328.529 352.787C328.311 352.83 328.086 352.858 327.86 352.893C328.114 353.253 327.987 353.605 327.473 353.668C325.255 354.105 323.015 354.224 320.762 354.034L317.339 353.549V353.549C315.919 354.093 314.563 354.793 313.284 355.626L312.86 355.908L312.783 355.965C309.48 358.621 306.931 362.15 305.184 365.997C305.029 366.339 304.881 366.685 304.738 367.035L304.529 367.561L304.515 367.589C302.234 376.558 304.269 386.406 308.438 394.543C310.712 398.185 313.086 401.757 315.565 405.258L317.973 408.408V408.408C319.396 409.747 320.79 411.12 322.149 412.529C322.36 412.741 322.586 412.952 322.811 413.156C323.529 413.628 324.262 414.044 325.008 414.397C325.297 414.494 325.593 414.586 325.888 414.664C327.325 415.354 328.832 415.721 330.417 415.763C332.51 415.902 334.54 415.656 336.504 415.033L336.896 414.903L337.184 414.797C338.255 414.114 339.248 413.262 340.191 412.261C340.403 412.043 340.797 412.043 341.248 412.163C341.494 411.909 341.741 411.641 341.973 411.352C342.135 411.176 342.388 411.17 342.586 411.303C343.255 411.226 345.065 412.255 344.593 412.797C344.515 412.923 344.417 413.036 344.332 413.156C344.649 413.318 344.966 413.501 345.248 413.692C346.727 414.102 348.911 415.579 348.734 416.023L348.712 416.058C348.37 416.706 347.925 417.249 347.378 417.68L347.191 417.82L346.776 418.109C347.36 418.476 347.853 418.898 347.607 419.194C347.494 419.412 347.374 419.624 347.234 419.814C348.431 421.294 349.621 422.786 350.804 424.28C351.987 426.845 353.452 429.24 355.198 431.459C356.656 433.868 358.41 436.032 360.459 437.961C360.628 438.131 360.804 438.293 360.973 438.455C362.483 439.571 364.062 440.616 365.708 441.62L366.417 442.048C366.79 442.273 367.417 442.555 367.121 443.097C367.086 443.168 367.043 443.225 366.994 443.266C368.029 443.943 369.1 444.584 370.205 445.176L370.31 445.241C370.728 445.508 371.294 445.992 370.698 446.387C370.191 446.725 368.846 445.81 368.212 445.387C368.093 445.387 367.952 445.352 367.811 445.31C368.022 445.422 368.23 445.544 368.442 445.663L368.762 445.838C369.008 445.986 370.219 446.789 369.374 447.128C368.959 447.162 368.579 447.056 368.227 446.817C367.811 446.613 367.403 446.395 367.001 446.169C367.142 446.387 367.142 446.606 366.79 446.747C366.67 446.754 366.55 446.747 366.431 446.733C367.262 447.262 368.114 447.754 368.994 448.219L369.136 448.308C369.508 448.549 370.102 449.008 369.67 449.403C369.184 449.839 367.846 448.909 367.501 448.699L366.473 448.085V448.085C366.396 448.12 366.311 448.134 366.219 448.142C366.529 448.332 366.818 448.537 367.135 448.719L367.566 448.954C368.106 449.253 368.869 449.743 368.593 450.234C368.316 450.719 367.495 450.32 366.965 450.005L366.394 449.651C366.369 449.636 366.344 449.621 366.318 449.607L366.296 449.692C366.291 449.706 366.285 449.72 366.276 449.734C366.012 450.193 365.348 449.892 364.889 449.627L364.522 449.403C363.898 449.027 363.28 448.654 362.666 448.279L361.748 447.712H361.734C358.558 445.803 355.621 443.901 352.853 441.449C351.198 439.983 349.656 438.433 348.191 436.778C345.248 433.46 343.058 429.663 340.945 425.788C340.91 425.724 340.959 425.562 341.043 425.386C340.811 424.908 340.586 424.421 340.36 423.921C338.191 424.527 335.769 424.703 333.536 424.555C332.339 424.477 331.156 424.266 329.98 423.949C326.227 423.428 322.607 421.716 319.48 419.666C319.283 419.539 319.107 419.398 318.924 419.272C317.635 418.545 316.41 417.701 315.248 416.735C312.98 414.861 310.818 412.775 308.853 410.599C307.431 408.908 306.086 407.154 304.825 405.336C303.543 403.539 302.248 401.744 300.952 399.947C297.353 394.311 295.05 387.822 294.156 381.193C293.719 378.749 293.494 376.275 293.543 373.81C293.579 372.027 293.776 370.224 294.121 368.428C293.917 368.23 293.712 368.033 293.508 367.829C293.396 368.026 293.283 368.167 293.212 368.096L291.598 366.479C290.453 365.325 289.685 364.475 288.367 362.608C286.269 359.628 284.705 356.352 283.543 352.901C282.705 350.435 282.149 347.63 281.931 344.919C281.86 344.467 281.79 344.009 281.734 343.544C281.283 339.874 281.698 336.358 282.255 332.737C282.29 332.498 282.41 332.35 282.572 332.272C282.612 331.985 282.661 331.691 282.709 331.397C278.044 326.457 274.687 320.503 274.961 313.313C275.047 311.048 275.512 308.814 276.399 306.729L276.507 306.494V306.494C272.613 305.895 269.524 303.159 267.204 299.767C266.998 299.604 266.799 299.44 266.608 299.277C262.458 295.732 259.581 290.712 257.612 285.41C256.201 282.331 255.267 279.041 254.87 275.629C254.842 275.385 254.825 275.143 254.803 274.901C253.84 269.505 253.595 264.055 254.04 258.686C253.073 255.363 252.286 251.982 251.748 248.521C251.494 246.873 251.318 245.224 251.184 243.575L251.17 243.485L251.149 243.188L251.09 242.449C251.08 242.326 251.072 242.204 251.065 242.082C249.874 226.992 253.248 212.141 258.825 198.163C259.311 196.906 259.813 195.653 260.33 194.409L260.879 193.109V193.109C266.478 184.078 274.885 176.773 282.005 169.058C284.462 166.396 280.488 162.4 278.022 165.072C273.291 170.198 268.216 175.108 263.634 180.377C262.824 180.436 262.014 180.458 261.205 180.418C259.797 180.347 258.431 180.122 257.107 179.762C253.804 179.276 250.797 177.944 248.065 175.986C244.41 174.281 241.29 171.068 240.98 166.876C240.945 166.454 240.952 166.038 240.98 165.623C240.642 163.572 240.945 161.424 241.804 159.444C241.952 158.902 242.142 158.366 242.381 157.838C243.079 156.267 244.227 154.76 245.628 153.738C245.663 153.716 245.691 153.703 245.719 153.681C245.867 153.527 246.008 153.371 246.17 153.231C246.41 153.012 246.663 152.808 246.931 152.618C245.98 151.053 245.121 149.448 244.388 147.735C243.593 145.875 243.184 143.988 242.959 141.993C242.867 141.204 242.832 140.422 242.818 139.641C242.776 139.281 242.748 138.915 242.719 138.548C242.543 135.759 242.867 132.864 243.91 130.256C243.987 130.06 244.086 129.862 244.177 129.658C244.374 129.066 244.593 128.475 244.86 127.896C245.903 125.677 247.381 123.796 249.205 122.253C250.191 121.26 251.297 120.379 252.501 119.633C253.212 119.189 254.022 118.794 254.874 118.47C256.396 117.667 258.346 116.934 259.931 116.879C260.121 116.871 260.29 116.893 260.473 116.893C260.621 112.848 261.142 108.445 262.741 104.782C263.67 102.126 265.065 99.7664 267.163 98.0678C268.38 96.797 269.88 95.7649 271.752 95.0904L272.086 94.9751L272.212 94.9399C273.896 94.1226 275.712 93.7986 277.579 93.8063C279.755 93.6929 281.973 94.1022 283.867 95.1019C284.262 95.3132 284.684 95.5739 285.086 95.8557C285.388 95.2498 285.727 94.6369 286.114 94.0247C287.473 91.8471 289.114 89.952 291.015 88.226C291.241 88.0217 291.487 87.8385 291.727 87.6419C292.649 86.8036 293.628 86.0286 294.642 85.3241C296.832 83.8017 299.234 82.6682 301.755 81.9348C304.665 80.8588 307.736 80.3593 310.809 80.4644L311.445 80.4912V80.4912C311.586 80.5046 311.727 80.5117 311.86 80.5187C314.91 80.7167 317.917 81.4635 320.79 82.59C323.769 83.7672 326.29 85.5489 328.635 87.5919C329.184 86.8318 329.811 86.1125 330.579 85.4361C330.797 85.2466 331.029 85.0768 331.248 84.9007C331.417 84.7316 331.593 84.5696 331.776 84.4076C332.614 83.6678 333.501 83.0267 334.473 82.4561C335.565 81.8157 336.741 81.3719 337.959 81.0971C339.198 80.6737 340.501 80.413 341.825 80.3285ZM327.353 370.759C327.478 370.752 334 373.199 337.25 374.781L337.41 374.859C341.156 376.719 342.959 378.058 346.325 380.446C346.551 380.608 346.783 380.855 346.783 381.094C346.783 384.573 345.938 388.826 343.015 386.942C342.593 386.669 342.167 386.403 341.738 386.141L341.093 385.751L341.072 385.758C341.079 385.758 341.086 385.751 341.093 385.744C334.727 381.862 328.001 378.819 320.903 376.642C320.417 376.466 324.015 371.027 325.008 371.33C324.438 371.104 327.258 370.764 327.353 370.759ZM394.243 217.118C390.01 217.571 385.777 218.017 381.543 218.453C378.846 218.763 376.142 219.038 373.438 219.27C369.374 219.574 365.311 219.622 361.262 219.066C359.825 218.869 358.417 218.587 357.022 218.242C356.072 218.939 355.086 219.594 354.079 220.222L342.896 228.781V228.781C335.396 234.678 328.058 240.927 321.452 247.824C309.915 259.873 300.519 273.97 294.611 289.586C294.075 289.902 293.661 290.454 293.523 291.3C292.479 297.7 289.427 303.538 288.324 309.912C287.238 316.191 288.683 321.528 292.625 326.504C293.467 327.568 295.191 327.511 296.248 326.793C296.494 327.277 297.559 327.256 297.933 325.121C299.686 323.223 301.185 321.233 302.2 318.768C302.948 316.953 301.691 315.695 300.166 315.448C300.8 313.165 301.515 310.903 302.318 308.665C304.698 302.014 307.727 295.66 311.536 289.7C314.888 284.458 318.769 279.893 322.938 275.313C322.987 275.25 323.072 275.229 323.163 275.215L324.029 274.257V274.257C324.149 274.123 324.396 274.137 324.67 274.207C324.931 273.932 325.184 273.651 325.452 273.376C325.712 273.094 326.001 273.179 326.163 273.404C326.607 273.305 327.417 273.784 327.663 273.94C328.086 274.221 328.219 274.538 327.86 274.94C327.797 275.011 327.734 275.081 327.67 275.144C328.156 275.349 328.635 275.623 329.008 275.892C330.311 276.18 332.142 277.392 331.825 277.752C331.156 278.448 330.508 279.161 329.867 279.885C330.431 280.281 330.797 280.667 330.649 280.837C327.903 283.732 325.367 286.797 323.043 290.044C321.276 292.468 319.677 294.99 318.248 297.618C316.121 301.338 314.318 305.163 312.719 309.094C312.494 309.694 312.276 310.292 312.065 310.891C309.727 317.435 307.98 324.227 307.241 331.145L307.21 331.612C307.072 334.104 307.018 340.776 306.762 342.368C308.318 343.136 309.938 343.791 311.621 344.327C311.938 344.418 312.262 344.503 312.586 344.581C312.769 344.503 312.959 344.439 313.149 344.383C314.698 343.756 316.318 343.305 317.973 343.086C319.088 342.939 320.198 342.888 321.307 342.92L321.783 342.938C322.276 342.952 322.762 342.988 323.255 343.038C323.227 342.755 323.212 342.481 323.191 342.199C323.05 342.107 322.945 341.981 322.938 341.811C322.607 338.641 322.6 335.471 322.917 332.3C323.128 330.645 323.374 328.996 323.642 327.348C323.917 325.995 324.234 324.664 324.579 323.332C325.494 319.599 326.712 315.956 328.191 312.392C332.403 302.225 338.438 293.06 344.508 283.943C348.938 277.287 353.128 270.48 357.712 263.936C361.614 258.363 365.712 252.875 370.086 247.662C374.452 242.456 379.065 237.446 384.043 232.811C384.846 232.071 385.656 231.352 386.48 230.642C391.198 226.415 396.325 222.941 401.663 219.532C401.867 219.398 402.234 219.546 402.536 219.799L403.398 219.269C403.542 219.181 403.687 219.094 403.832 219.01C403.966 218.926 404.114 219.066 404.191 219.186C404.557 218.995 404.924 218.813 405.29 218.629C405.557 218.414 405.832 218.209 406.101 217.996C402.143 217.797 398.19 217.501 394.243 217.118ZM443.888 170.152C440.691 169.512 437.48 169.42 434.255 169.899C432.903 170.097 431.558 170.335 430.224 170.623C433.253 173.265 435.689 176.646 437.27 180.537C438.979 184.743 432.164 186.555 430.479 182.41C428.855 178.411 425.779 175.344 422.065 173.505C421.262 173.954 420.484 174.44 419.741 174.978C418.769 175.767 417.853 176.62 416.994 177.557C415.121 179.593 413.403 182.312 412.276 185.003C411.839 186.469 411.515 187.976 411.311 189.526C411.269 189.878 411.227 190.238 411.191 190.597C410.497 197.888 412.581 204.982 416.166 211.259L416.307 211.261V211.261C419.507 209.525 422.857 208.062 426.304 206.871C429.065 205.012 431.931 203.292 434.881 201.735C441.154 198.425 447.78 195.872 454.607 194.127L455.396 193.929C457.004 193.518 458.626 193.156 460.255 192.84L461.234 192.655H461.248L461.142 191.604V191.604C460.593 187.483 458.98 183.658 456.896 180.122C455.332 177.452 452.973 174.718 450.353 172.534L450.339 172.527C449.15 171.85 447.899 171.291 446.612 170.828L446.128 170.66L443.888 170.152ZM358.043 163.89C351.396 163.262 344.748 163.326 338.1 163.868C333.755 164.299 329.438 164.897 325.142 165.658C322.234 166.158 319.381 166.862 316.579 167.737L318.182 170.98C320.861 176.381 323.606 181.747 326.839 186.849C328.508 189.477 330.318 191.979 332.29 194.38C333.621 196.099 335.086 197.692 336.691 199.157C337.114 199.672 337.565 200.158 338.022 200.629C339.487 201.883 341.065 202.982 342.79 203.891C344.173 204.899 345.618 205.78 347.124 206.552L347.691 206.836L352.973 208.865C353.255 208.945 353.54 209.024 353.825 209.1L354.255 209.211L355.057 209.379L355.66 209.052C355.761 208.998 355.863 208.945 355.966 208.893C356.135 208.802 356.255 208.978 356.29 209.104C356.304 209.154 356.283 209.224 356.248 209.294L357.017 208.878V208.878C358.341 209.416 359.745 209.845 361.251 210.129C361.933 210.256 362.616 210.354 363.3 210.438L363.391 210.499C363.407 210.51 363.422 210.521 363.438 210.535H364.186V210.535C369.45 211.043 374.79 210.372 380.046 209.427C387.484 208.679 394.921 207.854 402.353 207.082C402.494 207.069 402.55 207.132 402.55 207.231L403.008 207.189V207.189C403.67 207.118 404.445 208.224 403.945 208.626C404.346 208.865 404.734 209.211 405.022 209.478L405.191 209.464C404.17 207.463 403.381 205.37 402.818 203.194L402.1 199.544V199.544C401.903 198.184 401.79 196.734 401.769 195.303C401.719 194.648 401.684 194.036 401.684 193.5C401.684 192.992 401.691 192.485 401.712 191.979C400.311 191.4 398.888 190.894 397.438 190.463C393.318 189.957 389.205 189.449 385.086 188.948C382.614 189.04 380.142 189.216 377.677 189.491C374.881 189.738 372.093 190.055 369.311 190.435C369.05 190.463 368.586 190.111 368.304 189.702L367.114 189.865V189.865C366.494 189.943 365.846 188.702 366.663 188.448C366.959 188.331 367.255 188.22 367.55 188.113L367.994 187.955L367.741 187.983C367.656 187.991 367.55 187.969 367.431 187.928C366.776 188.011 366.121 188.096 365.473 188.174C364.651 188.276 364.838 187.192 365.414 186.937L365.691 186.835C365.205 186.531 364.776 185.7 365.378 185.429L365.459 185.398C365.741 185.286 366.015 185.193 366.297 185.088C366.276 184.997 366.276 184.912 366.304 184.835L365.142 184.982V184.982C365.036 184.996 365.541 184.254 365.783 184.108L365.825 184.087L366.381 183.918C366.466 183.679 366.917 183.15 367.072 183.102C369.114 182.46 371.015 181.883 373.001 181.438C373.1 181.319 373.212 181.227 373.339 181.199C374.579 180.903 375.832 180.671 377.086 180.474C377.17 180.347 377.255 180.256 377.353 180.248C380.459 179.853 383.572 179.762 386.698 179.974C387.297 180.029 387.896 180.094 388.494 180.17C389.642 180.298 390.79 180.46 391.931 180.678C394.788 181.169 397.579 181.915 400.298 182.921L400.924 183.157C401.607 183.412 402.283 183.679 402.952 183.968C403.29 182.764 403.712 181.579 404.212 180.418C404.29 180.192 404.374 179.974 404.466 179.755L403.783 179.346V179.346C403.635 179.628 403.332 179.846 403.135 179.727C398.241 176.423 393.065 173.668 387.607 171.47C384.55 170.117 381.424 168.97 378.219 168.011C376.621 167.497 375.008 167.032 373.388 166.588C372.579 166.419 371.769 166.249 370.945 166.109C366.712 164.967 362.41 164.228 358.043 163.89ZM519.32 175.073C518.726 176.1 518.107 177.117 517.452 178.12C514.268 182.995 510.451 187.569 506.123 191.557C507.252 191.554 508.378 191.597 509.49 191.702C511.407 191.883 513.286 192.201 515.117 192.647C515.265 192.528 515.431 192.468 515.565 192.563L516.042 192.893V192.893C519.969 193.953 523.657 195.62 526.997 197.853L526.937 197.412C526.927 197.339 526.916 197.265 526.903 197.192C526.959 196.325 526.973 195.458 526.945 194.599C526.255 189.519 524.529 184.841 522.557 180.108C522.52 180.016 522.547 179.897 522.604 179.776C521.609 178.15 520.519 176.577 519.32 175.073ZM520.227 135.139C518.755 135.406 517.297 135.752 515.846 136.181C513.121 136.591 510.48 137.309 507.931 138.33C504.417 139.577 501.008 141.028 497.614 142.565C491.022 145.551 484.839 149.328 479.212 153.879C478.853 154.153 478.508 154.436 478.163 154.717C476.903 155.809 475.677 156.95 474.515 158.155C473.297 159.479 472.072 160.804 470.853 162.135C469.36 163.7 467.642 165.115 466.29 166.806C466.015 167.151 465.776 167.532 465.558 167.913L466.353 168.187V168.187C467.022 168.412 466.91 169.666 466.248 169.483C466.022 169.42 465.811 169.342 465.6 169.258C465.691 169.378 465.755 169.498 465.769 169.603C465.811 169.941 465.55 170.407 465.135 170.287C464.945 170.237 464.755 170.166 464.565 170.089C464.508 170.307 464.466 170.526 464.466 170.737C464.501 170.751 464.536 170.765 464.579 170.773C465.043 170.935 465.917 171.66 466.043 172.154C466.142 172.534 465.818 172.942 465.403 172.829C465.093 172.745 464.79 172.618 464.494 172.477C464.691 172.668 464.846 172.872 464.86 173.049C464.888 173.373 464.607 173.83 464.219 173.725C463.501 173.527 462.924 173.225 462.445 172.844C462.318 173.013 462.135 173.147 461.987 173.105L461.712 173.02V173.02C461.788 173.09 461.856 173.164 461.923 173.237L462.022 173.344C463.966 175.443 465.663 177.768 467.022 180.27C467.086 180.199 467.163 180.135 467.262 180.058C467.896 179.522 468.55 179.001 469.205 178.494L469.403 178.321V178.321L469.607 178.148L468.135 178.635L468.168 178.596C468.272 178.463 468.595 178.019 468.746 177.871L468.783 177.838C470.804 176.029 473.008 174.492 475.388 173.239C476.931 172.238 478.55 171.392 480.248 170.695C484.297 168.814 488.424 167.384 492.663 166.06C493.297 165.856 493.931 165.637 494.565 165.439C494.748 165.376 494.783 165.453 494.755 165.58L495.086 165.482V165.482C495.677 165.291 496.684 166.334 496.283 166.82C496.525 167.017 496.763 167.237 496.971 167.443L497.121 167.595L497.29 167.546C497.793 167.39 498.642 168.175 499.181 168.731L499.579 169.152C499.881 169.476 500.473 170.145 499.748 170.407L498.839 170.716V170.716C498.867 170.899 498.79 171.054 498.508 171.16C498.191 171.265 497.881 171.378 497.572 171.492C497.759 171.656 497.944 171.826 498.126 171.999L498.396 172.259C498.714 172.584 499.471 173.302 498.803 173.619L498.719 173.654L497.853 173.964C497.966 174.217 497.938 174.458 497.558 174.598C492.501 176.317 487.565 178.332 482.741 180.622C479.128 182.622 475.311 184.116 471.29 185.095C470.959 185.201 470.241 184.701 469.945 184.201L469.344 184.378C469.245 184.407 469.144 184.435 469.043 184.461L468.945 184.483V184.483C469.698 186.49 470.255 188.667 470.565 190.773C470.6 190.963 470.628 191.161 470.649 191.352C471.438 191.287 472.219 191.231 473.008 191.189C478.466 190.9 483.987 191.076 489.459 191.724C491.67 190.407 493.797 188.963 495.832 187.399C496.452 186.92 497.065 186.426 497.67 185.926C501.304 182.77 504.593 179.227 507.508 175.401C510.205 171.857 512.55 168.053 514.522 164.066C516.269 160.325 517.712 156.436 518.804 152.42C519.804 148.75 520.149 145.178 520.403 141.381C520.487 140.761 520.543 140.141 520.593 139.521L520.587 139.255V139.255L520.579 139.126C520.508 137.795 520.374 136.463 520.227 135.139ZM468.628 182.319C468.466 182.375 468.297 182.432 468.128 182.481C468.227 182.7 468.318 182.912 468.41 183.129L468.42 183.125V183.125L469.086 182.601V182.601C468.945 182.538 468.783 182.44 468.628 182.319ZM519.241 125.149C520.508 124.677 521.466 124.585 522.114 124.881C521.156 124.952 520.198 125.043 519.241 125.149Z" class="main_filling"/>
    <path fill-rule="evenodd" clip-rule="evenodd" d="M497.601 410.171C502.335 412.103 506.559 415.326 509.647 419.443C510.721 420.874 510.999 422.385 510.774 423.767C510.521 425.322 509.602 426.73 508.348 427.675C507.091 428.623 505.518 429.09 503.997 428.852C502.676 428.645 501.361 427.921 500.32 426.42L500.102 426.12C498.266 423.635 495.874 421.597 493.148 420.283C490.521 419.016 487.582 418.425 484.541 418.769C478.75 419.423 474.758 422.557 470.515 426.812C469.989 427.349 469.463 427.903 468.934 428.466C468.6 428.976 468.137 429.304 467.622 429.476C467.051 429.667 466.405 429.656 465.813 429.45C465.242 429.25 464.732 428.873 464.389 428.37C464.064 427.892 463.88 427.302 463.94 426.623C464.328 422.214 466.632 418.278 469.906 415.188C473.541 411.756 478.361 409.382 482.898 408.549C487.896 407.632 492.989 408.289 497.601 410.171V410.171ZM494.235 359.554C499.553 362.788 507.656 370.328 501.935 378.345C495.201 385.414 485.506 377.309 480.728 373.644C476.298 370.803 471.321 378.109 475.431 381.426C509.955 406.996 523.965 360.4 496.925 355.752C493.948 355.24 492.842 358.554 494.235 359.554ZM432.368 329.81C432.956 322.514 444.064 320.857 445.168 328.077C446.158 334.544 444.993 340.485 442.081 346.308C439.299 351.87 432.305 349.275 431.777 344.21C431.068 337.42 432.003 334.348 432.368 329.81ZM516.92 326.58C518.469 324.551 520.705 323.166 523.384 323.948C531.753 326.395 529.287 338.282 526.347 344.068C524.75 347.21 519.587 348.007 517.254 345.24C513.451 340.729 511.63 331.719 516.465 327.275C516.596 327.045 516.741 326.814 516.92 326.58ZM441.963 297.885L443.285 297.653C447.375 296.945 452.461 296.266 455.354 299.555C456.889 301.299 457.417 304.541 455.354 306.211C451.726 309.149 447.715 308.01 443.367 308.259C439.784 308.465 436.34 309.058 432.889 310.045C425.317 312.21 419.147 316.162 412.68 320.502C411.832 321.071 410.965 319.985 411.37 319.192C415.103 311.877 422.338 305.868 429.584 302.205C433.452 300.25 437.684 298.629 441.963 297.885ZM509.291 294.608L510.303 294.815C521.315 297.118 535.622 301.718 540.837 312.538C541.036 314.069 540.826 314.396 540.655 314.611L540.598 314.682C540.457 314.865 540.345 315.117 539.682 315.325C539.498 315.282 539.312 315.235 539.125 315.186C536.734 314.559 534.843 313.696 533.012 312.8L531.027 311.822C528.724 310.692 526.4 309.603 523.938 308.8C518.683 307.085 513.277 305.877 507.788 305.232C506.599 305.092 505.453 304.691 504.549 304.002C503.692 303.349 503.036 302.444 502.737 301.242C502.35 299.685 502.461 298.507 503.296 297.103C503.924 296.049 504.822 295.318 505.853 294.898C506.904 294.47 508.101 294.369 509.291 294.608Z" class="main_filling"/>
</svg>
