<svg width="800" height="1080" viewBox="0 0 800 1080" fill="none" xmlns="http://www.w3.org/2000/svg">
    <style>
        .outlines {
            fill: #f9fafb;
        }

        .main_filling {
            fill: #232526;
        }


        @media (prefers-color-scheme: dark) {
            .outlines {
                fill: #f9fafb;
            }

        .main_filling {
                fill: #ff8000;
            }
        }
    </style>
    <path fill-rule="evenodd" clip-rule="evenodd" d="M163.874 951.211C167.587 956.855 174.892 955.987 178.028 951.615C213.736 959.938 250.344 956.658 286.549 954.618C388.572 950.465 491.17 963.483 592.781 949.865C603.56 947.708 616.106 948.739 624.925 941.26C639.032 924.723 635.994 899.615 633.747 879.474C615.735 765.934 590.127 651.352 577.353 537.082C576.639 526.198 581.123 512.673 585.143 502.441C586.136 500.538 592.411 498.672 595.668 496.476C605.661 489.3 604.041 476.44 595.378 468.894C567.328 449.115 528.28 456.026 498.524 463.324C492.822 441.898 486.412 427.806 475.554 426.411C454.889 423.754 404.76 415.638 389.319 426.411C381.932 431.564 377.191 449.724 371.873 458.571C333.094 457.882 254.387 405.979 238.206 464.426C225.06 465.334 212.039 476.816 214.554 490.595C197.504 505.667 210.951 528.267 210.716 547.027C208.474 586.83 186.944 622.427 177.987 660.878C157.513 735.453 134.34 871.104 159.734 943.896C159.187 943.611 157.994 944.041 158.767 944.646C161.642 945.457 162.016 949.081 163.874 951.211Z" class="outlines"/>
    <path fill-rule="evenodd" clip-rule="evenodd" d="M609.721 932.246C604.958 893.996 601.646 847.821 601.608 809.251C601.604 805.619 607.238 805.625 607.242 809.251C607.28 847.821 610.592 893.996 615.354 932.246C615.802 935.842 610.163 935.797 609.721 932.246M574.439 695.079C567.08 699.582 557.416 696.459 550.133 693.477C546.816 692.12 548.277 686.67 551.63 688.043C557.173 690.312 565.274 693.653 571.124 690.488C576.963 687.329 577.226 678.64 577.27 672.906C577.297 669.275 582.93 669.278 582.904 672.906C582.845 680.707 581.802 690.573 574.439 695.079M560.817 870.118C553.392 866.311 547.057 861.106 541.959 854.499C539.742 851.627 544.639 848.824 546.823 851.655C551.311 857.47 557.157 861.917 563.661 865.252C566.892 866.909 564.038 871.77 560.817 870.118M525.13 673.42C512.39 724.49 503.841 776.475 499.651 828.946C498.799 839.598 498.2 850.236 497.862 860.881C497.524 863.657 497.2 866.439 496.897 869.222C495.749 879.747 494.869 890.442 494.947 901.037C494.982 905.793 495.13 910.527 495.454 915.268C494.89 913.682 494.369 912.091 493.862 910.506C492.827 907.258 492.144 903.891 491.088 900.664C490.214 897.994 489.088 895.437 488.038 892.851V892.844C488.355 882.255 487.637 871.568 487.271 861.029C486.799 847.376 486.214 833.736 485.911 820.076C485.306 792.756 485.609 765.414 486.595 738.108C488.573 683.086 493.573 628.326 498.616 573.529C500.017 558.291 501.524 543.059 502.566 527.792C503.616 512.364 504.038 496.907 504.158 481.437C504.165 480.323 502.475 480.028 502.165 481.105C501.89 477.435 501.404 473.772 500.595 470.228C512.742 477.977 525.552 484.677 538.109 491.722C544.721 495.435 551.306 499.211 558.123 502.536C561.869 504.367 565.651 506.052 569.51 507.644C573.51 509.293 577.334 511.561 581.735 510.412C582.116 510.314 582.475 510.173 582.82 509.99C582.32 510.94 581.82 511.885 581.341 512.844C579.679 516.147 578.095 519.466 576.559 522.812C576.151 523.115 575.792 523.531 575.51 524.073C574.764 525.531 574.038 527.004 573.334 528.497C573.193 528.363 573.052 528.23 572.911 528.096C572.32 527.539 571.503 528.377 572.024 528.983C572.264 529.257 572.496 529.526 572.728 529.801C568.137 539.685 564.404 550.076 560.559 560.222C555.834 572.691 551.355 585.252 547.137 597.898C538.82 622.774 531.482 647.974 525.13 673.42M342.996 858.757C319.516 871.336 297.576 886.368 276.473 902.582C273.596 904.792 270.793 899.894 273.629 897.716C294.732 881.502 316.673 866.469 340.153 853.889C343.352 852.177 346.194 857.043 342.996 858.757M263.693 711.433C262.473 711.342 261.287 710.634 260.977 709.364C259.075 701.574 257.585 693.088 259.354 685.142C260.143 681.597 265.573 683.106 264.787 686.639C263.392 692.905 264.5 699.678 265.949 705.927C286.427 706.823 306.63 699.472 326.223 694.535C329.746 693.648 331.234 699.085 327.721 699.97C306.938 705.206 285.44 713.043 263.693 711.433M671.369 919.235C671.39 919.185 671.411 919.129 671.426 919.08C672.63 915.43 672.658 911.189 672.792 907.365C673.024 900.558 672.778 893.739 672.165 886.954C670.869 872.674 668.08 858.626 664.749 844.698C658.151 817.11 648.827 790.269 643.764 762.307C633.827 707.419 636.186 650.27 616.686 597.328C608.58 575.318 597.003 554.162 581.271 536.677C582.419 533.182 583.538 529.681 584.63 526.165C586.538 520.05 588.489 513.738 589.665 507.44C589.693 507.271 589.728 507.095 589.749 506.918C596.447 504.03 602.538 498.584 603.58 491.342C604.031 488.214 603.51 484.748 602.158 481.725C604.919 479.175 606.693 475.864 606.271 471.426C605.482 463.07 595.728 460.921 588.94 459.287C581.221 457.434 573.214 456.92 565.32 457.794C561.334 458.23 557.39 458.963 553.538 460.062C550.193 461.013 546.552 461.992 543.869 464.289C543.552 464.557 543.813 465.078 544.193 465.078C549.623 465.058 555.031 463.063 560.517 462.802C566.264 462.535 571.996 463.007 577.63 464.19C583.137 465.346 588.63 467.037 593.637 469.65C595.045 470.39 597.109 470.89 595.454 472.384C594.242 473.476 591.862 473.568 590.306 473.729C586.862 474.089 583.89 476.104 583.454 479.781C583.066 483.029 585.003 486.706 588.454 487.439C588.644 487.482 588.82 487.531 588.975 487.594C589.066 487.77 589.207 487.918 589.193 487.678C589.193 487.678 589.2 487.671 589.2 487.678C589.285 488.193 589.313 488.396 589.313 488.432C589.292 488.39 589.257 488.214 589.228 488.073C589.249 488.2 589.292 488.404 589.348 488.707C589.271 488.376 589.334 489.187 589.271 489.313C587.44 492.695 582.024 493.646 578.869 495.104C578.257 495.385 577.728 495.717 577.278 496.09C576.531 495.83 575.771 495.569 575.003 495.28C571.221 493.864 567.447 492.49 563.616 491.214C556.221 488.742 548.735 486.537 541.341 484.057C527.341 479.365 513.806 473.44 500.066 468.072C499.63 466.452 499.123 464.867 498.524 463.324C498.404 463 497.827 462.894 497.764 463.324C497.552 464.691 497.383 466.064 497.242 467.445C497.186 467.572 497.172 467.713 497.2 467.847C496.404 475.878 496.616 484.1 496.207 492.124C495.7 502.128 494.285 512.061 493.883 522.072V522.255C492.404 530.801 491.066 539.375 489.855 547.977C488.496 547.554 486.94 547.639 485.348 548.491C474.095 554.5 461.447 557.847 448.721 558.594C442.313 558.966 435.968 558.756 429.595 558.016C425.404 557.537 421.278 556.663 417.144 555.832C419.32 546.709 421.658 537.628 424.299 528.639C426.475 521.248 428.897 513.893 431.89 506.785C434.911 499.606 438.672 492.751 442.172 485.79C443.785 482.571 441.883 477.646 437.693 477.985C436.454 478.083 435.214 478.161 433.968 478.217C421.841 478.795 409.228 477.443 397.257 476.237C383.63 474.857 369.82 473.426 356.313 471.179C355.313 471.017 354.904 472.377 355.89 472.708C362.299 474.864 368.63 477.3 375.2 478.914C381.961 480.584 388.764 482.106 395.623 483.296C402.193 484.431 408.792 485.382 415.411 486.185C419.728 486.713 424.095 486.981 428.44 487.333C422.588 496.689 418.552 507.242 415.038 517.633C410.524 530.977 407.207 544.708 403.961 558.41C397.017 587.781 391.292 617.448 386.813 647.297C383.602 668.7 381.003 690.187 379.052 711.731C378.475 705.186 377.771 698.662 376.975 692.146C374.313 670.51 370.426 649.016 365.228 627.846C365.693 627.029 365.911 626.05 365.757 625.098C364.82 619.279 362.355 614.214 360.193 608.817C358.045 601.279 355.728 593.79 353.235 586.358C350.404 576.234 347.228 566.266 343.165 556.529C340.059 549.111 336.517 541.882 332.573 534.873C327.862 525.073 322.686 515.486 317.003 506.32C316.707 505.467 316.228 504.671 315.545 504.002C314.51 502.367 313.461 500.754 312.39 499.155C311.693 498.112 309.693 498.746 310.221 500.071C310.468 500.691 310.714 501.311 310.968 501.924C287.82 496.132 265.123 504.988 243.073 511.526C237.51 513.181 231.89 514.675 226.186 515.753C221.7 516.598 216.475 517.627 212.003 516.696C209.01 516.077 207.686 514.717 209.144 511.519C210.651 508.208 214.764 506.031 218.334 504.566C219.679 504.277 221.003 503.762 222.278 502.987C225.249 501.184 226.552 497.422 225.151 494.216C223.876 491.321 220.158 488.827 216.869 490.151C216.397 490.341 215.933 490.525 215.468 490.708C215.419 490.637 215.362 490.539 215.313 490.398C214.841 489.109 214.637 490.652 214.841 488.806C215.179 485.79 218.369 483.05 220.552 481.324C225.982 477.019 233.827 473.835 240.834 475.462C241.362 475.582 241.89 475.73 242.411 475.913C249.63 478.414 253.144 468.016 247.376 464.141C247.024 463.909 246.58 463.613 246.095 463.268C243.693 461.598 240.179 458.787 241.137 456.251C242.32 453.102 249.299 451.291 251.94 450.22C261.489 446.345 271.806 444.147 282.102 443.696C292.461 443.246 302.954 444.387 312.947 447.183C317.848 448.55 322.883 450.629 327.517 452.729C331.679 454.609 340.735 457.096 341.313 462.366C341.44 463.529 343.095 463.923 343.454 462.655C346.292 452.538 335.278 446.007 328.01 441.83C323.242 439.081 317.834 437.37 312.602 435.686C307.588 434.066 302.468 432.875 297.242 432.156C286.024 430.621 274.672 430.818 263.545 432.974C253.411 434.94 242.137 438.293 233.947 444.817C228.919 448.818 226.644 455.187 228.665 461.401C228.735 461.605 228.806 461.816 228.876 462.021C219.827 463.641 211.264 468.826 205.538 476.054C200.834 481.993 198.369 490.257 202.58 497.169C202.404 497.295 202.228 497.429 202.059 497.57C198.045 500.782 195.059 505.447 194.172 510.547C192.433 520.607 198.51 527.645 207.01 530.336C204.904 532.394 202.883 534.577 200.904 536.761C196.475 541.657 192.242 546.99 188.51 552.429C180.947 563.448 174.482 575.445 168.827 587.534C157.2 612.361 149.869 639.083 145.982 666.178C144.024 679.831 142.714 693.555 142.214 707.335C141.637 723.045 142.221 738.763 141.919 754.48C141.623 769.585 139.954 784.323 136.58 799.047C133.348 813.13 129.038 826.931 125.137 840.831C120.735 856.485 115.89 872.068 113.566 888.208C112.39 896.422 111.545 904.659 112.2 912.965C112.862 921.426 115.933 928.661 118.764 936.53C119.482 938.539 121.672 939.348 123.426 938.918C123.82 942.687 125.242 946.365 127.362 949.549C131.862 956.298 138.792 960.603 146.728 962.167C155.672 963.921 164.89 963.505 173.947 963.181C183.771 962.829 193.602 962.512 203.426 962.104C213.711 961.679 223.995 961.242 234.28 960.803C233.94 950.257 233.535 939.715 233.076 929.174C230.597 872.192 226.692 815.175 226.588 758.117C226.389 758 226.193 757.862 226.006 757.68C221.376 753.203 215.691 750.262 210.35 746.758C207.328 744.775 210.153 739.897 213.194 741.892C217.697 744.846 222.389 747.471 226.609 750.781C226.633 744.842 226.685 738.903 226.803 732.962C226.875 729.335 232.509 729.335 232.437 732.962C232.083 750.865 232.202 768.771 232.607 786.671C233.917 844.678 238.037 902.577 239.913 960.562C267.519 959.382 295.126 958.194 322.735 957.185C345.193 956.369 367.651 955.552 390.109 954.734C394.82 954.566 397.468 951.197 398.045 946.794C399.102 938.692 397.116 930.316 392.623 923.504C392.158 922.799 391.609 922.172 390.996 921.637C391.102 916.783 391.299 911.921 391.024 907.068C390.616 899.657 390.003 892.245 389.468 884.841C388.383 870.011 387.545 855.153 387.214 840.288C386.538 810.558 387.031 780.8 388.714 751.113C392.088 691.801 399.94 632.869 412.792 574.853C413.728 570.626 414.672 566.399 415.651 562.179C425.644 567.372 437.799 569.238 448.721 569.309C462.411 569.394 475.799 566.244 488.165 560.518C488.08 561.158 487.996 561.792 487.919 562.433C484.468 589.909 481.559 617.44 479.024 645.008C473.968 699.966 470.869 755.149 471.299 810.353C471.418 825.649 472.003 840.894 472.728 856.168C473.468 871.702 474.602 888.117 478.926 903.102C479.404 904.756 480.468 905.708 481.693 906.053C481.757 908.237 481.897 910.428 482.052 912.584C482.552 919.594 483.982 934.156 487.038 940.51C490.017 946.71 494.982 951.628 501.313 954.334C509.355 957.764 518.052 956.778 526.545 956.228C563.475 953.819 600.376 950.592 637.285 947.76C642.426 947.365 647.566 946.978 652.7 946.576C657.271 946.224 661.996 945.913 666.052 943.54C670.665 940.842 674.264 927.59 672.672 922.109C672.383 921.109 671.947 920.122 671.369 919.235" class="main_filling"/>
    <path fill-rule="evenodd" clip-rule="evenodd" d="M556.747 326.319C556.467 310.537 556.157 294.439 553.812 278.81C551.519 263.531 545.211 249.72 534.372 238.625C511.348 215.057 477.975 209.301 446.91 204.026L393.798 195.006C377.595 192.255 360.308 187.857 343.937 191.759C335.87 193.681 329.02 198.148 322.758 203.432C316.723 208.526 310.234 213.996 306.145 220.848C302.048 227.711 300.639 235.733 299.308 243.495C297.805 252.245 296.639 261.064 295.81 269.904C294.148 287.615 293.922 305.46 295.127 323.207C295.71 331.816 296.639 340.399 297.825 348.945C298.413 353.183 299.078 357.41 299.829 361.622C300.05 362.864 300.218 364.239 300.445 365.628C298.77 370.395 297.817 375.331 297.894 380.247C298.12 394.726 310.336 403.841 322.652 408.735C329.793 411.573 337.258 413.501 344.274 416.671C351.655 420.006 356.679 425.411 361.726 431.578C371.351 443.339 382.212 453.909 394.614 462.728C420.908 481.426 454.212 490.27 486.117 483.557C493.772 481.947 501.494 479.446 508.375 475.678C515.64 471.699 521.103 465.934 525.69 459.118C534.208 446.465 540.316 432.216 544.937 417.717C549.651 402.927 552.996 388.11 554.821 372.687C556.639 357.315 557.022 341.787 556.747 326.319V326.319Z" class="outlines"/>
    <path fill-rule="evenodd" clip-rule="evenodd" d="M387.261 140.029C409.24 137.005 439.576 146.835 450.522 166.655C502.779 154.331 568.69 153.927 611.761 194.955C656.704 243.623 600.253 307.793 562.822 322.26C565.547 335.51 561.298 420.392 531.231 458.254C507.369 490.334 451.801 505.139 426.087 466.822L425.887 466.506C423.132 462.08 425.504 462.223 428.332 465.514C453.511 487.665 487.746 488.043 514.127 464.667C563.569 421.939 558.471 317.172 534.944 256.564C467.951 249.203 396.223 269.516 349.952 319.964L353.081 338.808C353.614 342.019 354.22 345.226 354.682 348.448C354.977 350.512 355.01 352.565 353.581 354.236C348.86 359.752 340.905 351.463 334.359 348.166C332.427 347.894 330.491 347.789 328.592 347.923C297.143 351.975 303.339 413.006 337.904 402.309C340.808 400.499 343.303 401.051 344.43 403.677C352.669 411.227 358.101 424.691 371.789 437.66C376.619 442.524 381.014 446.594 386.446 450.496C389.637 453.724 399.265 457.016 396.213 462.54C390.441 475.11 356.406 435.626 350.388 424.707C331.534 432.155 310.639 429.625 291.101 427.804C188.023 422.443 201.784 313.746 286.274 245.12C302.178 233.407 319.725 223.851 337.965 216.499C340.456 215.495 339.368 211.404 336.842 212.422C324.773 217.288 313.008 223.08 301.792 229.783L301.775 225.776C301.759 219.026 301.865 211.998 303.037 205.831C303.622 201.557 304.608 196.993 306.125 193.559C308 183.032 337.377 146.897 387.261 140.029ZM327.217 361.935C328.808 360.422 331.779 362.226 333.196 362.181C336.819 362.677 340.262 364.207 342.946 366.097C344.719 367.09 345.961 368.023 346.999 368.881L347.027 368.873C347.019 368.873 347.009 368.881 347.001 368.883L347.099 368.949C348.61 370.024 354.143 376.075 350.648 374.447C350.387 374.109 350.12 373.783 349.851 373.464C349.822 373.508 349.782 373.551 349.734 373.592L349.93 373.884C352.902 378.355 347.772 373.644 346.983 372.393C346.945 372.423 346.903 372.444 346.862 372.466L347.889 373.717C348.033 373.895 348.146 374.036 348.24 374.156L348.457 374.366C351.892 377.744 351.999 380.784 348.008 375.789C348.165 376.025 348.291 376.274 348.309 376.495L348.545 376.797C351.679 380.836 349.13 379.402 347.573 377.677L347.443 377.528L347.469 377.569C348.918 379.801 346.044 378.235 345.536 377.04L345.514 376.986C344.961 376.535 344.62 376.028 344.504 375.9L344.482 375.878C341.788 373.117 337.882 370.78 334.564 369.718C334.083 369.626 333.597 369.553 333.105 369.501C331.11 369.056 329.093 368.751 327.055 368.586C326.806 368.556 326.553 368.373 326.364 368.136C323.283 368.032 324.234 366.769 325.513 366.534L325.535 366.53L325.281 366.509C323.303 366.316 321.953 365.606 323.953 365.17L324.206 365.12C324.175 365.071 324.148 365.023 324.121 364.974C322.408 364.786 323.526 363.12 324.476 363.523C324.076 362.215 325.905 362.868 326.133 362.674C326.307 362.481 326.523 362.31 326.648 362.301C327.198 361.912 326.931 361.947 327.217 361.935ZM337.696 340.753L337.294 340.988C336.97 341.178 336.636 341.304 336.301 341.378C336.774 341.579 337.241 341.797 337.704 342.029C337.697 341.745 337.691 341.461 337.691 341.178L337.696 340.753Z" class="main_filling"/>
    <path fill-rule="evenodd" clip-rule="evenodd" d="M498.003 414.561C502.737 416.493 506.961 419.715 510.049 423.832C511.123 425.263 511.401 426.775 511.176 428.157C510.923 429.711 510.004 431.12 508.75 432.065C507.493 433.012 505.92 433.48 504.399 433.242C503.078 433.035 501.762 432.311 500.722 430.81L500.504 430.51C498.668 428.025 496.276 425.986 493.55 424.672C490.922 423.406 487.984 422.814 484.943 423.158C479.152 423.813 475.16 426.946 470.917 431.201C470.391 431.738 469.865 432.292 469.336 432.855C469.002 433.365 468.539 433.693 468.024 433.866C467.453 434.057 466.807 434.046 466.215 433.839C465.644 433.64 465.133 433.262 464.791 432.759C464.466 432.282 464.282 431.691 464.341 431.013C464.73 426.603 467.034 422.668 470.308 419.578C473.943 416.146 478.762 413.771 483.299 412.939C488.298 412.021 493.391 412.679 498.003 414.561V414.561ZM494.236 359.554C499.554 362.788 507.657 370.328 501.936 378.345C495.202 385.414 485.506 377.309 480.729 373.644C476.299 370.803 471.321 378.109 475.431 381.426C509.955 406.996 523.966 360.4 496.926 355.752C493.948 355.24 492.843 358.554 494.236 359.554ZM432.369 329.81C432.957 322.514 444.064 320.857 445.169 328.077C446.158 334.544 444.994 340.485 442.082 346.308C439.299 351.87 432.306 349.275 431.777 344.21C431.068 337.42 432.003 334.348 432.369 329.81ZM516.921 326.58C518.469 324.551 520.705 323.166 523.384 323.948C531.754 326.395 529.287 338.282 526.348 344.068C524.75 347.21 519.588 348.007 517.255 345.24C513.452 340.729 511.631 331.719 516.465 327.275C516.596 327.045 516.742 326.814 516.921 326.58ZM441.964 297.885L443.286 297.653C447.376 296.945 452.461 296.266 455.355 299.555C456.889 301.299 457.417 304.541 455.355 306.211C451.726 309.149 447.715 308.01 443.367 308.259C439.784 308.465 436.34 309.058 432.889 310.045C425.317 312.21 419.148 316.162 412.681 320.502C411.832 321.071 410.966 319.985 411.371 319.192C415.104 311.877 422.338 305.868 429.585 302.205C433.452 300.25 437.685 298.629 441.964 297.885ZM509.291 294.608L510.303 294.815C521.315 297.118 535.623 301.718 540.837 312.538C541.036 314.069 540.826 314.396 540.655 314.611L540.599 314.682C540.458 314.865 540.346 315.117 539.683 315.325C539.499 315.282 539.313 315.235 539.125 315.186C536.735 314.559 534.844 313.696 533.013 312.8L531.027 311.822C528.724 310.692 526.401 309.603 523.938 308.8C518.683 307.085 513.278 305.877 507.789 305.232C506.599 305.092 505.454 304.691 504.55 304.002C503.692 303.349 503.037 302.444 502.738 301.242C502.351 299.685 502.462 298.507 503.297 297.103C503.924 296.049 504.822 295.318 505.853 294.898C506.905 294.47 508.102 294.369 509.291 294.608Z" class="main_filling"/>
    <path fill-rule="evenodd" clip-rule="evenodd" d="M563.569 374.093C561.235 370.959 557.04 366.845 552.797 367.066C552.254 367.095 552.05 367.683 552.376 368.081C553.764 369.777 555.661 370.983 557.052 372.714C558.697 374.762 559.885 377.233 560.658 379.732C561.78 383.362 562.09 387.471 561.09 391.163C559.326 397.669 553.751 402.439 547.668 404.874C541.647 407.285 534.402 408.109 528.707 404.576C520.302 399.362 513.173 391.844 502.609 391.696C500.138 391.661 498.397 392.793 497.359 394.41C496.317 392.851 494.597 391.749 492.188 391.721C480.345 391.588 471.506 399.744 461.566 404.828C454.848 408.265 446.156 407.198 439.226 404.928C432.688 402.787 425.592 398.487 423.126 391.698C421.764 387.949 422.069 383.571 423.467 379.875C424.386 377.444 425.805 375.096 427.561 373.186C429.381 371.205 431.774 369.96 433.639 368.082C434.02 367.698 433.719 367.101 433.219 367.066C425.299 366.529 418.147 375.989 416.652 382.852C415.18 389.611 417.376 396.353 421.82 401.51C430.857 411.996 447.591 415.454 460.615 412.373C471.157 409.88 481.169 404.137 492.188 404.961C494.604 405.142 496.338 404.135 497.384 402.607C498.432 404.179 500.177 405.207 502.609 404.971C512.88 403.976 522.047 411.252 532.016 413.029C539.953 414.443 548.527 412.536 555.328 408.258C562.438 403.786 567.442 396.614 567.771 388.063C567.961 383.143 566.518 378.053 563.569 374.093" class="main_filling"/>
</svg>
