<svg width="840" height="1230" viewBox="0 0 840 1230" fill="none" xmlns="http://www.w3.org/2000/svg">
    <style>
        .outlines {
            fill: #f9fafb;
        }

        .main_filling {
            fill: #232526;
        }


        @media (prefers-color-scheme: dark) {
            .outlines {
                fill: #f9fafb;
            }

            .main_filling {
                fill: #ff8000;
            }
        }
    </style>
    <path fill-rule="evenodd" clip-rule="evenodd" d="M750.031 1024.04C735.286 1003.08 704.203 999.612 684.236 984.925C673.717 976.869 662.586 971.537 654.411 960.69C667.427 945.415 651.331 909.608 648.019 888.929C634.893 834.791 622.754 779.787 607.143 725.712C634.196 734.125 627.148 683.753 623.284 672.105C623.017 670.504 621.032 670.185 619.815 669.68C620.156 667.393 621.093 666.891 618.251 666.26C617.3 652.555 621.182 637.208 614.166 625.102C606.259 611.887 587.357 600.829 571.74 600.646C560.77 557.126 558.76 536.6 506.785 555.047C507.934 550.809 508.291 546.921 506.289 542.639C498.473 519.047 488.651 493.238 480.11 469.33C470.266 441.818 460.086 413.368 446.921 386.933C437.752 370.147 409.065 365.659 389.621 368.438C384.983 360.263 373.291 337.652 358.5 342.88C358.389 336.061 358.283 329.241 358.195 322.421C358.118 316.493 358.743 310.414 356.461 304.785C354.043 298.823 349.122 295.676 343.341 293.394C325.843 287.62 305.74 278.344 287.276 284.084C271.143 291.439 273.022 319.095 265.215 334.128C254.274 317.924 235.616 328.789 231.669 346.168C186.725 364.064 148.094 343.734 145.218 413.984C147.696 426.789 149.803 438.801 148.629 451.733L147.269 451.872C135.766 514.117 131.342 580.841 134.123 650.207C133.566 677.519 123.602 703.01 113.967 727.656C106.88 745.778 99.5618 764.518 96.0926 783.744C92.2458 799.757 78.1049 876.762 109.549 851.197C110.754 938.804 188.905 950.02 259.282 930.67C333.993 915.154 418.099 919.615 464.727 844.557C480.545 871.597 486.002 888.291 489.973 916.567C494.33 937.281 500.658 960.805 512.289 974.506C502.274 992.514 497.369 1014.45 497.852 1028.75C498.042 1034.36 495.471 1036.96 499.166 1040.45C516.894 1057.2 556.446 1057.39 586.521 1064.84C607.143 1067.47 681.71 1077.5 693.106 1070.96C701.054 1073.18 691.811 1052.52 699.758 1052.08C702.477 1052.1 702.841 1048.64 705.633 1048.77C723.458 1049.58 761.887 1054.81 752.596 1040.45L750.031 1024.04Z" class="outlines"/>
    <path fill-rule="evenodd" clip-rule="evenodd" d="M745.606 1044.33C732.464 1047.16 718.948 1046.37 705.633 1047.48C706.063 1046.37 706.424 1045.23 706.706 1044.07C720.465 1042.4 734.894 1041.61 748.011 1037.07C748.32 1038.55 748.552 1040.04 748.644 1041.55C748.656 1041.75 748.629 1044.01 748.951 1043.59C748.552 1044.11 746.202 1044.22 745.606 1044.33M679.212 1010.26C655.296 1002.39 629.931 995.645 611.496 977.408C611.533 977.307 611.568 977.205 611.603 977.104C615.397 976.03 619.571 973.738 623.223 976.23C634.917 975.827 647.131 971.732 655.321 963.077C655.88 963.196 656.421 963.363 656.949 963.57C672.707 990.357 706.28 995.459 730.868 1010.98C740.835 1016.78 759.4 1032.39 735.649 1032.74C726.274 1034.16 716.844 1035.21 707.39 1035.94C706.661 1020.85 691.71 1014.25 679.212 1010.26M695.931 1048.89C691.175 1055.37 682.589 1057.93 674.82 1057.3C669.107 1056.52 664.065 1054.51 658.123 1054.94C613.075 1053.23 568.777 1043.91 524.849 1034.39C485.504 1027.01 515.565 997.988 512.289 974.506C517.841 977.89 524.137 980.361 530.619 982.173C538.97 1005.4 561.791 999.33 577.951 988.205C584.186 988.003 591.777 988.96 596.877 984.821C597.174 985.065 597.488 985.272 597.812 985.449C601.859 983.066 605.562 980.573 609.806 978.736C624.148 1002.97 654.613 1008.5 679.058 1017.85C694.013 1021.88 706.259 1033.43 695.931 1048.89M695.114 1069.64C682.472 1073.42 669.093 1072.77 656.049 1071.7C613.199 1067.99 570.632 1060.69 529.061 1049.65C519.201 1047.03 500.074 1043.99 499.166 1031.62C507.942 1043.13 523.611 1044.48 536.772 1047.45C579.976 1055.91 624.23 1066.84 668.415 1064.73C677.747 1067.39 687.918 1065.29 695.813 1060.13C695.562 1063.3 695.335 1066.47 695.114 1069.64M461.486 665.707C467.885 648.742 474.825 632.006 481.537 615.146C493.992 622.122 508.052 624.673 522.41 626.3C522.748 626.469 523.106 626.618 523.493 626.737C524.173 626.876 524.745 626.811 525.202 626.603C544.349 628.627 563.879 629.421 580.721 637.246C587.239 640.273 593.355 644.351 598.89 649.968C604.945 655.763 609.824 662.76 613.099 670.48C614.122 672.862 614.664 675.338 616.278 677.298C616.765 679.932 617.316 682.547 617.689 685.207C618.633 695.602 619.92 706.552 615.906 716.526C613.416 722.634 608.314 717.721 604.931 715.33C599.426 711.489 594.358 707.083 589.306 702.677C573.786 688.094 555.647 675.695 533.877 673.646C510.372 670.381 484.905 666.302 461.486 665.707M452.066 665.742C450.775 669.036 449.507 672.341 448.261 675.65C442.085 674.593 428.94 672.103 423.559 669.264C425.476 669.329 427.375 668.332 427.861 666.044C428.075 665.032 428.412 664.084 428.676 663.097C431.92 652.533 434.687 641.756 439.268 631.629C443.75 620.937 449.08 610.547 453.154 599.695C460.06 599.258 470.97 607.823 475.903 611.316C467.104 629.044 459.289 647.229 452.096 665.662C451.961 665.662 451.823 665.662 451.689 665.667C451.813 665.692 451.942 665.717 452.066 665.742M411.382 664.491C375.959 662.278 340.06 664.61 305.044 658.334C298.407 657.207 292.221 655.173 286.478 652.399C269.765 644.331 256.779 630.007 247.215 613.608C212.666 561.633 174.65 510.006 157.644 449.109C147.568 419.636 145.606 375.581 180.825 362.898C196.445 357.073 215.309 357.43 228.753 346.862C227.233 352.449 226.378 358.294 225.594 363.469C224.272 371.909 222.97 380.642 224.043 389.176C224.053 389.25 224.063 389.325 224.078 389.394C222.315 394.197 227.863 398.732 233.309 398.261C244.795 397.998 250.429 384.204 261.94 383.782C266.143 383.629 268.652 386.134 271.226 389.116C277.455 396.346 283.557 403.714 291.083 409.638C291.62 410.06 292.336 409.549 292.032 408.904C288.231 400.791 282.901 393.607 277.615 386.397C266.655 368.907 251.905 376.955 239.435 387.588C237.005 389.35 234.536 390.779 232.037 390.153C232.201 389.553 232.245 388.858 232.141 388.084C231.213 381.237 232.121 374.018 233.065 367.225C235.222 354.548 234.581 338.015 246.817 330.339C252.158 327.322 258.616 326.94 263.813 330.364C262.859 332.701 261.721 335.33 261.557 337.801C260.514 337.067 259.809 337.295 259.62 338.888C263.669 350.816 270.297 361.777 275.92 373.025C280.312 381.465 284.729 389.895 289.235 398.276C290.566 400.871 291.689 403.62 294.283 405.059C294.288 405.083 294.293 405.108 294.297 405.133C296.051 410.914 296.051 417.126 297.403 423.005C298.233 426.598 299.187 430.21 300.205 433.802C301.168 437.171 302.187 440.526 303.221 443.825C315.521 486.402 327.172 529.178 339.165 571.849C324.966 564.516 317.767 550.806 311.269 536.794C294.129 500.687 276.174 461.276 256.992 427.962C274.833 465.836 299.305 554.558 329.78 576.613C334.43 579.689 339.498 582.006 344.789 583.842C347 585.842 349.315 586.273 350.87 585.742C360.449 588.427 370.479 589.97 379.894 591.94C396.219 595.363 412.55 598.762 428.885 602.146C434.409 603.287 439.959 604.816 445.603 605.084C445.885 605.098 446.159 605.089 446.412 605.054C433.977 619.334 425.606 638.829 420.822 657.103C416.926 655.982 412.51 660.135 411.382 664.491M271.176 666.064C243.548 707.48 200.251 733.172 164.594 766.605C143.231 789.087 126.195 815.191 106.711 839.246C106.11 839.99 105.503 840.734 104.898 841.474C103.397 843.319 101.311 845.349 100.103 847.14C100.068 847.194 100.034 847.244 100.004 847.284C97.1815 841.394 98.7266 833.862 98.6223 827.149C99.0545 815.647 100.56 804.245 102.821 792.972C110.203 747.71 135.621 707.426 141.15 661.906C140.966 613.494 138.557 564.943 142.64 516.545C144.13 494.455 145.695 472.356 147.911 450.32C163.214 507.108 207.897 568.366 233.264 607.584C243.498 622.574 252.66 638.928 267.072 650.395C270.555 653.144 274.232 655.505 278.057 657.54C275.468 660.105 273.252 663.027 271.176 666.064M361.671 444.594C365.477 443.597 373.877 442.6 378.244 439.732C380.504 447.47 382.948 455.148 385.526 462.782C379.268 460.934 372.495 461.8 366.049 462.503C357.65 463.419 349.262 464.416 340.878 465.459C333.198 466.414 325.523 467.406 317.851 468.426C315.114 458.623 312.359 448.827 309.56 439.042C325.562 446.45 344.541 447.482 361.671 444.594M370.38 370.852C370.365 370.202 370.211 369.522 369.873 368.823C369.824 368.723 369.778 368.624 369.729 368.525C368.422 363.866 367.096 359.212 365.745 354.562C365.541 353.778 364.299 353.932 364.323 354.756C364.313 355.331 364.309 355.902 364.304 356.478C364.215 356.24 364.13 356.001 364.045 355.758C362.371 350.911 361.144 345.919 360.335 340.848C374.673 343.8 386.482 375.06 393.154 397.408C387.669 395.701 380.475 395.314 378.344 399.854C375.7 390.183 373.078 380.508 370.38 370.852M348.134 555.953C351.708 555.719 355.282 555.497 358.855 555.249C366.166 554.743 373.474 554.215 380.784 553.698C382.537 553.574 384.29 553.446 386.044 553.317C391.008 553.044 395.972 552.769 400.937 552.504C406.426 552.213 411.979 551.715 417.509 551.512C418.55 551.489 419.591 551.472 420.632 551.461C420.837 551.878 421.049 552.288 421.279 552.677C413.99 554.692 407.333 557.024 401.997 559.375C389.875 564.68 378.22 571.661 368.264 580.438C366.42 580.056 364.577 579.669 362.734 579.277C357.677 578.186 352.554 577.02 347.621 575.357C346.359 572.266 345.947 568.634 344.874 565.588C344.023 562.535 343.172 559.481 342.321 556.427C344.265 556.394 346.253 556.075 348.134 555.953M336.072 530.983C336.137 530.976 336.202 530.968 336.267 530.961C336.275 530.961 336.284 530.96 336.292 530.96C337.09 530.935 337.887 530.904 338.684 530.867C340.279 530.793 341.872 530.698 343.465 530.585C346.653 530.358 349.835 530.055 353.013 529.709C359.379 529.014 365.724 528.146 372.076 527.338C375.818 526.862 379.548 526.452 383.274 526.103C391.988 525.526 400.727 525.083 409.431 524.96C412.216 531.584 415.044 538.189 417.895 544.778C418.164 545.393 418.426 546.062 418.691 546.756C405.896 546.512 393.046 547.724 380.297 548.486C373.149 548.914 366.001 549.329 358.855 549.768C355.28 549.987 351.707 550.23 348.134 550.464C345.749 550.619 343.184 550.516 340.799 550.966C340.294 549.155 339.789 547.343 339.284 545.532C337.962 540.838 336.654 536.14 335.344 531.443C335.6 531.32 335.845 531.168 336.072 530.983M325.183 494.839C323.133 487.428 321.08 480.018 319.017 472.611C319.404 472.557 319.792 472.504 320.179 472.45C321.628 472.251 323.077 472.053 324.526 471.855C327.719 471.421 330.912 470.992 334.106 470.57C336.581 470.242 339.057 469.92 341.534 469.599C344.269 469.368 347.004 469.149 349.74 468.947C362.115 468.035 374.586 467.19 387.001 467.12C389.608 474.664 392.353 482.162 395.198 489.623C384.64 490.265 374.092 491.115 363.547 491.961C357.482 492.447 351.418 492.952 345.356 493.475C342.406 493.73 339.457 493.989 336.509 494.252C334.871 494.398 333.233 494.546 331.595 494.695C330.649 494.78 329.414 495.101 328.35 495.108C328.212 494.999 328.067 494.893 327.914 494.788C327.138 494.253 325.995 494.347 325.183 494.839M327.653 501.093C334.616 500.245 341.565 499.332 348.524 498.487C352.383 498.112 356.244 497.743 360.105 497.383C372.374 496.239 384.658 495.248 396.927 494.12C400.257 502.71 403.714 511.253 407.254 519.759C392.228 518.769 376.929 521.29 362.072 523.034C354.141 523.966 346.189 524.806 338.206 525.103C336.942 525.15 335.175 525.084 333.66 525.419C331.597 518.006 329.542 510.589 327.49 503.172C327.52 502.482 327.574 501.79 327.653 501.093M451.008 600.201C450.481 600.702 449.964 601.218 449.453 601.749C449.463 601.581 449.467 601.417 449.463 601.248C449.473 601.243 449.483 601.238 449.487 601.233C449.944 600.787 450.452 600.444 451.008 600.201M441.712 387.94C457.159 425.362 470.498 463.841 484.965 501.719C489.605 514.58 494.176 527.466 498.499 540.441C500.138 544.728 500.739 549.541 504.108 552.91C504.247 553.049 504.401 553.178 504.565 553.287C500.039 555.185 495.951 557.295 492.658 559.428C494.172 564.557 496.001 569.59 498.185 574.447C498.965 576.183 496.396 577.695 495.611 575.95C492.835 569.776 490.595 563.354 488.839 556.803C486.653 553.859 484.124 551.219 480.847 549.571C474.522 547.274 466.548 546.48 457.953 546.738C457.814 546.49 457.631 546.252 457.407 546.028C454.56 543.289 453.433 538.933 452.017 535.306C447.898 524.722 444.395 513.891 441.518 502.9C438.687 492.019 436.933 480.88 433.992 470.023C433.396 468.123 431.542 458.944 429.814 459.45C429.849 459.658 429.879 459.862 429.908 460.07C429.819 460.011 429.719 459.986 429.62 459.991C428.925 482.448 434.802 505.069 441.534 526.409C443.397 533.52 447.63 540.173 448.986 547.348C443.089 547.958 437.077 548.961 431.249 550.226C431.165 549.755 431.046 549.288 430.906 548.817C430.827 548.162 430.628 547.646 430.34 547.254C429.605 545.458 428.631 543.706 427.911 542.089C426.431 538.744 424.96 535.4 423.504 532.041C415.58 513.672 408.078 495.105 401.46 476.221C393.298 453.322 386.626 429.982 380.187 406.577C384.5 408.884 392.791 404.275 397.874 414.809C398.972 417.463 401.411 419.359 404.437 418.53C407.09 417.801 409.097 414.709 408.163 411.975C408.029 411.529 407.885 411.087 407.721 410.656C402.767 395.983 398.758 380.924 391.614 367.116C409.951 368.967 431.642 370.281 441.712 387.94M612.517 633.197C614.102 640.684 613.083 648.559 612.656 656.18C605.408 646.559 596.221 638.347 585.476 632.88C584.76 628.067 581.724 623.874 580.323 619.2C577.735 612.606 575.638 605.868 573.751 599.065C591.274 602.712 608.329 615.424 612.517 633.197M548.986 690.552C554.936 722.616 564.386 753.875 571.307 785.723C571.714 787.594 568.839 788.386 568.433 786.514C561.511 754.666 552.062 723.408 546.112 691.343C545.764 689.467 548.637 688.671 548.986 690.552M545.933 985.347C550.681 986.011 555.42 986.592 560.197 987.098C550.687 991.071 541.82 990.1 534.083 983.078C538.043 984.04 542.035 984.776 545.933 985.347M755.458 1032.6C755.19 1031.32 754.487 1030.5 753.6 1030.05C753.735 1003.37 697.572 994.692 680.554 977.699C672.769 972.202 667.104 963.122 658.062 959.719C663.179 951.812 661.804 941.636 660.669 932.751C658.186 916.54 651.946 898.423 650.315 888.402C638.004 836.894 626.065 785.261 612.134 734.16C611.851 733.182 611.325 731.247 610.664 729.109C612.165 729.471 613.6 729.59 614.946 729.416C634.486 725.09 630.099 685.614 625.509 671.309C625.017 669.622 623.869 668.555 622.523 668.054C622.697 667.18 622.538 666.253 621.917 665.364C621.584 664.888 621.072 664.546 620.516 664.372C619.924 650.797 623.318 636.204 616.164 623.799C608.125 610.234 588.948 599.01 573.517 598.221C571.307 590.223 569.369 582.145 567.232 574.132C564.888 565.741 561.549 556.726 554.529 551.099C545.447 543.031 526.061 545.492 509.98 551.193C510.859 546.991 508.857 543.19 507.63 539.25C503.63 527.461 499.512 515.712 495.309 503.997C480.221 464.501 467.83 423.561 448.956 385.693C441.141 372.857 426.113 367.071 411.685 365.88C404.918 365.201 397.72 364.938 390.889 365.736C390.67 365.32 390.446 364.908 390.218 364.496C384.619 354.806 373.256 336.764 360.181 339.861C358.799 330.647 358.779 321.204 359.917 311.985C359.997 311.33 358.923 311.047 358.655 311.643C349.99 331.053 351.601 354.94 362.172 373.318C362.947 374.593 364.001 375.253 365.093 375.442C366.778 394.738 370.986 413.781 376.178 432.473C375.398 432.502 374.648 432.666 374.021 432.944C357.458 439.002 339.244 439.99 322.005 436.452C317.151 435.43 312.451 434.055 307.726 432.656C306.833 429.56 305.938 426.474 305.039 423.383C302.783 413.618 302.207 404.235 296.484 396.371C296.146 395.79 295.798 395.214 295.465 394.639C290.869 386.313 286.199 378.032 281.495 369.77C280.352 368.416 272.711 353.377 266.764 344.282C267.509 344.262 268.28 344.073 269.03 343.696C273.223 341.607 273.178 335.549 273.943 331.485C276.288 318.857 279.001 306.21 279.746 293.364C279.786 292.709 278.782 292.431 278.489 293.026C272.771 304.349 268.806 316.466 264.574 328.399C264.489 328.637 264.4 328.88 264.305 329.128C260.38 324.186 253.49 323.01 247.488 324.34C237.457 326.955 232.399 335.097 229.483 344.356C200.643 358.105 166.323 344.063 148.82 380.438C140.936 399.447 141.085 421.001 146.192 443.433C132.893 511.435 128.729 580.999 131.497 650.191C130.513 696.996 101.767 737.603 93.5299 783.153C89.4213 801.104 86.8428 819.508 87.1613 837.951C86.5303 847.696 90.8327 862.085 103.332 858.294C104.758 857.783 106.05 856.999 107.242 856.051C112.464 934.964 173.354 950.226 243.534 936.636C246.375 936.685 249.167 936.031 252.153 935.192C253.604 934.76 255.044 934.309 256.485 933.832C257.569 933.574 258.656 933.311 259.744 933.039C260.55 932.874 261.359 932.719 262.167 932.559C282.176 919.345 302.96 907.309 322.73 893.723C324.124 892.765 325.831 894.991 324.536 896.061C311.33 906.969 298.402 918.354 284.661 928.607C323.811 922.391 363.649 923.45 400.204 907.341C425.854 896.133 449.994 873.671 464.531 849.437C464.751 849.822 464.965 850.209 465.183 850.594C464.476 848.589 463.771 846.584 463.073 844.577C450.681 808.936 439.469 772.876 425.923 737.642C425.233 735.849 428.116 735.081 428.797 736.851C432.595 746.729 436.215 756.674 439.723 766.659C452.278 802.392 463.5 838.588 476.873 874.035C476.95 874.238 476.976 874.427 476.969 874.602C479.762 881.481 482.046 888.489 483.629 895.671C485.27 903.187 487.669 919.241 490.044 932.751C492.123 943.893 493.637 956.817 501.385 965.37C501.376 965.387 501.367 965.405 501.358 965.423H501.358C501.085 965.955 500.824 966.482 500.569 967.007C501.118 967.553 501.815 967.911 502.46 968.319C502.559 967.85 502.656 967.385 502.766 966.908C504.651 968.905 506.742 970.7 508.988 972.32C506.455 991.032 487.584 1009.16 497.355 1028.75C492.698 1039.45 504.129 1048.17 513.538 1050.38C527.961 1054.98 542.845 1058.45 557.616 1061.73C586.86 1067.18 678.386 1087.31 700.295 1071.64C699.981 1068.3 704.099 1057.43 699.239 1057.27C701.393 1055.15 703.18 1052.66 704.532 1049.97C717.941 1054.32 732.842 1052.76 746.495 1051.16C757.536 1051.39 757.131 1040.65 755.458 1032.6" class="main_filling"/>
    <path fill-rule="evenodd" clip-rule="evenodd" d="M404.72 185.918C399.717 167.875 380.591 160.002 363.366 158.753C316.729 153.91 269.258 179.88 248.583 221.991C232.032 253.967 231.514 287.558 267.09 305.815C269.033 306.885 271.062 308.029 273.134 309.067C274.934 310.739 276.788 312.345 278.812 313.694C298.184 326.419 321.961 331.923 345.003 330.729C379.024 330.044 391.17 306.984 398.602 277.412C406.441 247.97 410.824 216.024 404.72 185.918V185.918Z" class="outlines"/>
    <path fill-rule="evenodd" clip-rule="evenodd" d="M427.052 355.984C425.464 351.185 423.472 346.532 421.612 341.83C421.219 339.487 420.956 337.124 420.889 334.741C420.631 326.231 422.225 317.648 424.012 309.361C427.645 292.519 431.497 275.853 433.43 258.701C436.883 228.022 434.829 196.12 420.859 168.114C408.755 143.854 388.242 124.014 361.746 116.581C353.913 114.383 345.851 113.17 337.734 112.686C336.729 112.526 335.725 112.37 334.727 112.22C323.436 110.519 312.007 109.672 300.595 110.405C281.671 111.622 262.924 117.054 247.163 127.798C231.295 138.617 220.02 153.786 214.773 172.288C209.316 191.536 209.779 212.382 200.354 230.427C197.57 235.759 194.32 240.827 191.22 245.98C182.996 255.146 174.068 265.336 172.111 277.939C169.697 293.514 178.668 306.678 187.159 318.832C194.834 329.807 205.248 344.965 197.35 358.477C193.624 364.853 187.654 369.622 183.171 375.435C178.523 381.471 174.894 388.4 173.019 395.804C169.498 409.709 172.738 424.203 182.156 435.071C187.062 440.729 193.362 444.469 200.181 447.386C207.161 450.365 213.981 453.193 219.752 458.264C222.389 460.578 224.803 463.116 227.086 465.775C229.214 469.098 231.691 472.204 234.484 475.047C237.559 478.176 243.582 473.892 240.76 470.209C240.551 469.938 240.347 469.671 240.138 469.399C238.073 466.711 235.999 464.023 233.828 461.422C227.353 451.174 224.862 438.628 228.082 426.658C228.917 423.548 230.093 420.598 231.555 417.813C231.866 418.623 232.206 419.423 232.565 420.214C233.964 423.281 235.927 426.914 238.423 430.02C238.52 432.15 238.841 434.261 239.463 436.328C243.31 449.142 256.172 455.464 267.771 460.384C268.908 460.869 270.03 461.335 271.132 461.796C274.163 463.062 277.369 458.749 275.48 456.148C274.984 455.464 274.503 454.765 274.047 454.057C268.607 445.644 266.018 435.581 267.484 425.556C269.029 414.955 275.285 406.182 281.498 397.764C287.599 389.487 294.151 381.039 296.881 370.942C299.902 359.788 297.153 348.667 292.49 338.4C288.22 329.005 282.533 320.346 277.764 311.209C279.397 312.836 281.082 314.41 282.818 315.927C284.77 317.634 286.775 319.588 289.089 320.791C290.8 321.68 292.513 319.551 291.159 318.112C289.378 316.22 287.099 314.759 285.122 313.071C283.224 311.451 281.38 309.766 279.583 308.035C277.369 305.905 275.263 303.674 273.233 301.375C271.608 297.241 270.27 292.995 269.18 288.686C267.698 282.854 266.328 276.648 266.435 270.603C266.542 264.402 269.767 260.059 274.061 255.896C275.88 254.134 277.716 252.392 279.549 250.647C283.452 247.784 287.134 244.587 290.71 241.398C297.083 235.716 303.247 229.71 309.134 223.528C310.713 221.869 312.279 220.193 313.825 218.496C319.229 212.957 324.383 207.174 329.24 201.19C334.069 199.434 338.707 197.11 343.059 194.373C341.165 196.29 339.251 198.182 337.347 200.089C333.107 204.339 328.702 208.609 323.786 212.073C323.28 212.432 323.586 213.194 324.209 213.073C330.46 211.826 336.308 209.749 341.767 206.44C347.319 203.073 352.211 198.497 356.777 193.907C359.361 192.743 361.853 191.244 364.131 189.769C364.252 189.691 364.373 189.608 364.495 189.53C362.251 196.634 358.958 204.679 351.939 207.212C351.71 207.294 351.725 207.672 351.997 207.658C357.91 207.311 362.663 204.654 366.414 200.781C369.432 198.612 372.311 196.313 375.059 193.811C377.721 191.387 380.242 188.787 382.637 186.096C379.29 192.718 375.541 199.194 371.844 205.596C371.65 205.935 372.058 206.396 372.407 206.159C380.213 200.88 386.134 194.067 390.977 186.013C391.692 184.827 392.374 183.622 393.04 182.407C392.538 184.308 391.989 186.196 391.402 188.075C390.339 191.475 389.292 194.884 388.227 198.283C387.653 200.115 386.953 201.906 386.185 203.667C385.635 204.926 384.915 206.183 384.803 207.565C384.796 207.656 384.896 207.717 384.976 207.697C388.089 206.919 390.987 203.374 393.205 201.177C394.44 199.954 395.597 198.611 396.661 197.196C396.859 205.35 396.995 213.506 396.815 221.685C396.481 236.707 395.509 251.724 394.265 266.697C393.168 279.933 392.356 293.825 384.964 305.329C379.242 314.232 369.964 320.394 359.885 323.378C358.996 323.645 358.103 323.883 357.204 324.096C342.613 327.556 328.079 323.635 315.178 316.707C311.302 314.625 307.99 320.272 311.73 322.596C325.729 331.301 343.472 334.266 359.317 330.365C358.817 349.059 368.041 366.794 377.216 382.65C382.35 391.524 387.489 400.341 391.118 409.962C394.197 418.133 396.291 426.609 396.995 435.328C397.831 445.605 397.01 455.94 395.572 466.129C395.494 466.681 395.416 467.24 395.334 467.793C395.013 469.981 396.981 471.815 399.113 470.695C408.541 465.745 412.607 455.197 415.079 445.445C417.391 436.308 418.96 426.993 419.834 417.614C421.117 421.151 422.156 424.775 422.962 428.472C423.075 429.001 423.181 429.53 423.288 430.059C423.9 433.15 428.582 432.931 429.33 430.059C429.466 429.54 429.597 429.021 429.719 428.497C433.58 412.898 434.62 396.629 432.58 380.68C431.506 372.291 429.714 364.014 427.052 355.984" class="main_filling"/>
    <path fill-rule="evenodd" clip-rule="evenodd" d="M377.38 284.241C375.777 286.335 372.874 287.938 369.624 288.705C366.527 289.435 363.104 289.406 360.15 288.281L359.896 288.18C357.687 287.264 355.567 285.414 354.762 283.483C354.442 282.715 354.334 281.935 354.553 281.207C354.75 280.552 355.212 279.949 355.981 279.431C356.223 279.269 356.547 279.257 356.856 279.311C357.239 279.379 357.616 279.558 357.844 279.799C359.108 281.142 360.942 282.451 363.112 282.428C364.786 282.411 366.154 281.751 367.48 281.004L368.412 280.471C369.311 279.959 370.223 279.477 371.254 279.257C373.101 278.863 375.341 279.583 376.706 280.771C377.301 281.288 377.733 281.897 377.851 282.553C377.95 283.103 377.811 283.678 377.38 284.241ZM367.778 247.63C371.446 249.857 377.035 255.05 373.089 260.572C368.445 265.44 361.757 259.858 358.462 257.334C355.406 255.377 351.973 260.409 354.808 262.694C378.621 280.304 388.284 248.213 369.634 245.012C367.58 244.659 366.817 246.941 367.778 247.63ZM326.398 213.401L327.452 213.113L328.526 212.823L329.253 212.631C334.244 211.326 339.749 210.178 344.698 210.738C346.503 210.943 347.968 211.958 348.223 213.847C348.438 215.441 347.407 217.497 345.652 217.78C339.839 218.72 333.889 218.415 328.049 219.383C325.141 219.865 322.255 220.463 319.359 221.002C317.156 221.413 314.88 221.557 312.658 221.889L313.168 221.96C313.347 221.984 313.302 222.284 313.126 222.272C312.394 222.199 311.66 222.188 310.926 222.239L310.611 222.265C310.132 222.332 309.849 221.761 310.276 221.471C312.983 219.636 315.28 217.648 318.311 216.295C320.933 215.126 323.631 214.162 326.398 213.401ZM371.833 210.588C375.67 206.713 383.831 208.202 388.396 209.974C391.001 210.987 393.478 212.266 395.542 214.18L395.743 214.368L396.053 214.666C397.446 216.028 398.999 217.903 398.778 219.866C398.744 220.166 398.581 220.508 398.242 220.568C396.414 220.891 394.618 219.928 392.93 219.348L391.812 218.965C390.133 218.393 388.443 217.847 386.712 217.453C384.559 216.964 382.363 216.681 380.153 216.709C377.919 216.739 375.519 217.368 373.391 216.482C371.018 215.495 369.788 212.654 371.833 210.588ZM333.924 241.838C332.945 242.837 331.652 243.4 329.997 243.065C328.704 242.804 326.242 241.505 324.275 239.504C322.929 238.136 321.804 236.426 321.498 234.445C321.427 233.985 321.183 233.69 320.862 233.505C320.608 233.358 320.274 233.284 319.91 233.321C319.601 233.352 319.273 233.464 319.02 233.612C318.537 233.894 318.34 234.294 318.3 234.593C317.913 237.477 319.028 240.339 320.766 242.751C323.112 246.007 326.557 248.393 328.582 248.952C332.047 249.908 335.699 249.147 338.391 246.738C340.543 244.812 341.647 242.302 342.67 239.721L342.868 239.221C343.098 238.636 343.327 238.054 343.569 237.479C344.054 236.327 343.899 235.331 343.428 234.554C342.907 233.694 341.945 233.089 340.874 232.903C339.884 232.731 338.824 232.919 337.988 233.523C337.282 234.033 336.712 234.842 336.509 236.037C336.18 237.981 335.417 240.212 334.07 241.684L333.924 241.838ZM393.341 230.587C392.533 230.166 391.902 230.04 391.006 230.308C390.511 230.456 390.021 230.741 389.638 231.124C389.258 231.503 388.984 231.975 388.878 232.499C388.616 233.79 387.908 235 386.9 235.788C386.038 236.462 384.95 236.819 383.744 236.617C382.442 236.4 381.201 235.566 380.347 234.583C380.109 234.308 379.914 234.003 379.725 233.694L379.613 233.509C379.192 232.815 378.782 232.169 378.202 231.659C377.982 231.466 377.65 231.331 377.329 231.331C377.199 231.331 377.066 231.352 376.94 231.392C375.644 232.691 375.395 233.676 375.437 234.654C375.48 235.679 375.885 236.717 376.539 237.686C378.073 239.957 380.985 241.82 382.95 242.242C385.641 242.819 388.314 242.126 390.456 240.624C392.661 239.08 394.295 236.681 394.804 233.978C394.927 233.327 394.875 232.624 394.627 232.015C394.384 231.42 393.961 230.91 393.341 230.587Z" class="main_filling"/>
</svg>
